<svg id="Capa_1" enable-background="new 0 0 512 512" height="512" viewBox="0 0 512 512" width="512" xmlns="http://www.w3.org/2000/svg"><path d="m434.6 351.783h-347.658c-18.741 0-33.933-15.192-33.933-33.933 0-39.323 31.878-71.201 71.201-71.201h273.123c39.323 0 71.201 31.878 71.201 71.201-.001 18.741-15.193 33.933-33.934 33.933z" fill="#ffeccf"/><path d="m397.333 246.65h-81.044c39.323 0 71.201 31.877 71.201 71.2 0 18.741-15.192 33.933-33.933 33.933h81.043c18.741 0 33.933-15.192 33.933-33.933 0-39.323-31.878-71.2-71.2-71.2z" fill="#fdd8a3"/><circle cx="354.236" cy="224.663" fill="#fa4954" r="36.951"/><path d="m370.883 191.676c2.53 5.004 3.965 10.656 3.965 16.647 0 20.408-16.544 36.951-36.951 36.951-5.991 0-11.643-1.435-16.647-3.965 6.09 12.042 18.569 20.304 32.986 20.304 20.408 0 36.951-16.544 36.951-36.951 0-14.416-8.262-26.896-20.304-32.986z" fill="#fa2a3b"/><path d="m299.248 156.849c0 27.135-20.382 55.807-31.478 69.405-3.62 4.436-10.38 4.436-14 0-11.095-13.598-31.478-42.269-31.478-69.405 0-27.089 20.313-56.235 31.421-70.148 3.619-4.533 10.495-4.533 14.114 0 11.109 13.913 31.421 43.059 31.421 70.148z" fill="#1dd0b0"/><path d="m267.828 86.701c-3.619-4.533-10.495-4.533-14.114 0-2.382 2.983-5.188 6.672-8.126 10.886 10.761 15.437 23.295 37.982 23.295 59.262s-12.534 43.501-23.295 58.66c2.961 4.171 5.789 7.81 8.183 10.745 3.62 4.436 10.38 4.436 14 0 11.095-13.598 31.478-42.269 31.478-69.405-.001-27.089-20.313-56.234-31.421-70.148z" fill="#04b49c"/><path d="m152.862 129.522c19.188 19.188 25.049 53.874 26.818 71.335.577 5.696-4.203 10.476-9.899 9.899-17.461-1.769-52.147-7.631-71.335-26.818-19.155-19.155-25.401-54.127-27.384-71.82-.646-5.764 4.216-10.626 9.98-9.98 17.693 1.983 52.665 8.229 71.82 27.384z" fill="#1dd0b0"/><path d="m179.68 200.856c-1.769-17.461-7.631-52.147-26.818-71.335-19.155-19.155-54.127-25.401-71.82-27.384-3.699-.415-7.018 1.445-8.756 4.349 16.394 3.975 34.829 10.922 46.942 23.035 19.187 19.188 25.049 53.874 26.818 71.335.214 2.108-.31 4.089-1.339 5.721 9.624 2.284 18.551 3.517 25.074 4.178 5.696.578 10.476-4.203 9.899-9.899z" fill="#04b49c"/><path d="m490.527 428.699h-469.054c-7.734 0-14.004-6.27-14.004-14.004v-48.908c0-7.734 6.27-14.004 14.004-14.004h469.053c7.734 0 14.004 6.27 14.004 14.004v48.908c0 7.734-6.269 14.004-14.003 14.004z" fill="#fbd307"/><path d="m490.584 351.783h-98.77c7.702 0 13.947 6.244 13.947 13.947v49.022c0 7.703-6.244 13.947-13.947 13.947h98.77c7.703 0 13.947-6.244 13.947-13.947v-49.022c-.001-7.703-6.245-13.947-13.947-13.947z" fill="#f9c301"/><path d="m340.06 235.754c-19.188 19.188-53.874 25.049-71.335 26.818-5.696.577-10.476-4.203-9.899-9.899 1.769-17.46 7.631-52.147 26.818-71.335 19.155-19.155 54.127-25.401 71.82-27.384 5.764-.646 10.626 4.216 9.98 9.98-1.983 17.693-8.229 52.666-27.384 71.82z" fill="#1dd0b0"/><path d="m357.464 153.955c-3.974.446-8.823 1.109-14.166 2.082-2.228 18.23-8.702 51.319-27.141 69.758-14.82 14.82-38.881 21.687-57.115 24.862-.077.692-.151 1.37-.216 2.017-.577 5.696 4.203 10.476 9.899 9.899 17.461-1.769 52.147-7.631 71.335-26.818 19.155-19.155 25.401-54.127 27.384-71.82.647-5.765-4.215-10.627-9.98-9.98z" fill="#04b49c"/><path d="m241.018 187.819c-8.739-.658-16.891 1.728-23.515 6.206-5.192 3.51-11.985 3.458-17.185-.042-5.883-3.96-12.965-6.272-20.591-6.272-7.625 0-14.708 2.312-20.591 6.272-5.199 3.5-11.993 3.552-17.185.042-6.623-4.478-14.775-6.864-23.513-6.206-18.12 1.365-32.742 16.08-33.999 34.208-1.498 21.599 15.58 39.586 36.86 39.586h116.857c21.279 0 38.357-17.986 36.86-39.585-1.257-18.128-15.878-32.843-33.998-34.209z" fill="#fa4954"/><path d="m275.016 222.029c-.853-12.308-7.871-23.037-17.957-29.089.865 2.718 1.425 5.566 1.629 8.506 1.497 21.599-15.581 39.585-36.86 39.585-11.887 0-104.97 0-116.857 0-6.909 0-13.369-1.905-18.9-5.206 4.733 14.95 18.712 25.789 35.228 25.789h116.857c21.279 0 38.357-17.987 36.86-39.585z" fill="#fa2a3b"/><path d="m257.043 386.454c-5.958-5.958-15.617-5.958-21.574 0-5.957 5.958-5.957 15.616 0 21.574l20.671 20.671h43.148z" fill="#f9c301"/><path d="m131.321 386.454c-5.957-5.958-15.616-5.958-21.574 0-5.957 5.958-5.957 15.616 0 21.574l20.671 20.671h43.148z" fill="#f9c301"/><path d="m257.043 386.454c-5.958-5.958-15.617-5.958-21.574 0-.065.065-.119.136-.183.202l42.043 42.042h21.959z" fill="#e6b700"/><path d="m131.321 386.454c-5.957-5.958-15.616-5.958-21.574 0-.065.065-.119.136-.183.202l42.043 42.042h21.959z" fill="#e6b700"/><path d="m490.583 344.314h-24.179c5.985-7.181 9.598-16.406 9.598-26.463 0-43.379-35.291-78.67-78.67-78.67h-1.125c1.579-4.553 2.449-9.434 2.449-14.518 0-17.767-10.787-33.836-26.804-40.785 1.468-7.157 2.414-13.747 3.015-19.112.562-5.018-1.161-9.941-4.728-13.508-3.568-3.567-8.487-5.289-13.507-4.726-12.684 1.422-32.187 4.75-49.953 12.446.024-.715.039-1.425.039-2.129 0-29.069-20.709-59.347-33.053-74.808-3.15-3.946-7.851-6.21-12.896-6.21-5.044 0-9.743 2.264-12.893 6.209-12.344 15.461-33.053 45.74-33.053 74.808 0 8.476 1.772 17.606 5.262 27.224-2.338 1.047-4.601 2.3-6.767 3.764-2.653 1.793-6.12 1.774-8.83-.051-6.1-4.107-13.052-6.596-20.321-7.319-3.704-18.462-11.136-41.34-26.024-56.228-4.107-4.107-9.072-7.892-14.757-11.25-3.552-2.099-8.132-.919-10.23 2.633s-.92 8.132 2.633 10.23c4.604 2.719 8.571 5.731 11.79 8.95 11.854 11.854 18.181 30.768 21.55 46.72-5.025 1.231-9.812 3.334-14.165 6.264-2.71 1.825-6.176 1.845-8.83.05-8.354-5.648-18.129-8.229-28.258-7.467-3.465.261-6.821.931-10.025 1.954-1.477-1.187-2.865-2.41-4.124-3.669-17.982-17.982-23.643-53.105-25.243-67.371-.07-.621.204-1.038.445-1.279.242-.242.661-.512 1.279-.445 5.834.655 14.822 1.935 24.515 4.321 4.003.985 8.053-1.462 9.038-5.468.986-4.006-1.462-8.052-5.468-9.038-10.471-2.577-20.147-3.957-26.421-4.66-5.017-.56-9.94 1.161-13.507 4.727s-5.29 8.49-4.727 13.507c2.204 19.662 8.971 55.715 29.526 76.27.206.206.43.406.641.611-9.529 7.55-15.932 18.904-16.818 31.68-.71 10.24 2.002 20.079 7.694 28.311-24.057 13.958-39.143 39.695-39.143 68.029 0 10.059 3.617 19.282 9.604 26.463h-33.725c-11.81.003-21.417 9.61-21.417 21.419v49.022c0 11.809 9.607 21.417 21.417 21.417h469.167c11.809 0 21.417-9.607 21.417-21.417v-49.022c-.001-11.809-9.608-21.416-21.418-21.416zm-106.866-119.651c0 16.256-13.225 29.481-29.481 29.481-6.438 0-12.553-2.07-17.578-5.815 3.102-2.209 6.021-4.63 8.684-7.293 11.22-11.22 18.326-27.059 22.829-42.33 9.374 5.067 15.546 15.017 15.546 25.957zm-25.42-63.285c.621-.067 1.038.203 1.279.445.241.241.515.659.445 1.279-1.6 14.266-7.262 49.39-25.244 67.371-16.891 16.891-48.569 22.557-64.029 24.365 8.416-9.084 12.578-20.911 11.719-33.325-.392-5.654-1.871-11.026-4.216-15.918 3.612-7.789 7.866-14.164 12.676-18.974 17.982-17.983 53.104-23.644 67.37-25.243zm-128.534-4.529c0-25.431 20.832-54.269 29.789-65.488.389-.488.877-.59 1.219-.59.341 0 .83.103 1.22.591 8.957 11.218 29.789 40.056 29.789 65.487 0 3.417-.404 7.051-1.157 10.818-3.698 2.506-7.158 5.288-10.259 8.39-4.441 4.441-8.447 9.844-11.991 16.108-7.162-6.669-16.507-11.02-26.794-11.795-2.328-.175-4.636-.165-6.914.01-3.239-8.497-4.902-16.399-4.902-23.531zm-137.872 65.695c1.003-14.462 12.657-26.188 27.108-27.277.776-.058 1.547-.088 2.315-.088 5.907 0 11.554 1.721 16.454 5.033 7.726 5.224 17.75 5.21 25.539-.033 4.859-3.27 10.537-4.999 16.42-4.999s11.561 1.729 16.419 4.999c7.79 5.244 17.816 5.257 25.539.034 5.538-3.744 12.026-5.457 18.77-4.946 9.807.739 18.321 6.38 23.097 14.447.059.099.115.199.178.295 2.161 3.749 3.519 8.008 3.832 12.535.575 8.292-2.212 16.186-7.847 22.224-5.641 6.045-13.298 9.374-21.561 9.374h-116.855c-8.263 0-15.92-3.329-21.561-9.375-5.636-6.037-8.422-13.93-7.847-22.223zm167.343 198.685-18.483-18.484c-1.471-1.47-2.28-3.425-2.28-5.504s.81-4.035 2.281-5.505c1.47-1.471 3.425-2.28 5.504-2.28 2.08 0 4.035.81 5.506 2.28l29.493 29.494h-22.021zm237.827-6.477c0 3.572-2.906 6.478-6.478 6.478h-188.201l-40.056-40.057h-.001c-4.292-4.292-9.999-6.656-16.069-6.656s-11.777 2.364-16.068 6.656c-4.292 4.292-6.656 9.999-6.656 16.069s2.364 11.777 6.656 16.068l7.92 7.92h-104.596l-18.483-18.484c-1.471-1.47-2.28-3.425-2.28-5.504s.81-4.035 2.281-5.505c1.47-1.471 3.425-2.28 5.504-2.28 2.08 0 4.035.81 5.505 2.28l12.007 12.007c2.917 2.917 7.647 2.917 10.563 0 2.917-2.917 2.917-7.647 0-10.563l-12.006-12.007c-4.292-4.292-9.999-6.656-16.069-6.656s-11.777 2.364-16.068 6.656c-4.292 4.292-6.656 9.999-6.656 16.069s2.364 11.777 6.656 16.068l7.92 7.92h-90.969c-3.572 0-6.478-2.906-6.478-6.478v-49.023c0-3.571 2.906-6.477 6.478-6.477h303.862c4.126 0 7.47-3.344 7.47-7.47s-3.344-7.47-7.47-7.47h-238.337c-14.592 0-26.463-11.872-26.463-26.463 0-24.269 13.659-46.189 35.129-56.964 7.456 5.275 16.451 8.196 25.691 8.196h116.857c6.243 0 12.372-1.339 17.992-3.83 3.044 3.039 7.211 4.836 11.655 4.836.554 0 1.115-.028 1.676-.085 13.513-1.369 34.851-4.866 53.536-13.747 8.278 8.204 19.39 12.826 31.221 12.826 13.2 0 25.066-5.794 33.21-14.964h9.887c35.141 0 63.731 28.59 63.731 63.731 0 14.592-11.872 26.463-26.463 26.463h-74.528c-4.126 0-7.47 3.344-7.47 7.47s3.344 7.47 7.47 7.47h130.512c3.571 0 6.478 2.906 6.478 6.477v49.023z"/><circle cx="197.025" cy="317.088" r="10.358"/><circle cx="220.338" cy="294.33" r="10.358"/><circle cx="287.621" cy="317.088" r="10.358"/></svg>