<svg width="512" height="481" viewBox="0 0 512 481" fill="none" xmlns="http://www.w3.org/2000/svg">
<path d="M16 400.475C16 421.692 24.4285 442.041 39.4315 457.044C46.8601 464.472 55.6793 470.365 65.3853 474.385C75.0914 478.406 85.4943 480.475 96 480.475H416C437.217 480.475 457.566 472.047 472.569 457.044C487.571 442.041 496 421.692 496 400.475H16Z" fill="#E29460"/>
<path d="M416 464.475H96C77.5603 464.475 59.6867 458.105 45.4034 446.443C31.12 434.781 21.3039 418.542 17.616 400.475H16C16 421.692 24.4285 442.041 39.4315 457.044C46.8601 464.472 55.6793 470.365 65.3853 474.385C75.0914 478.406 85.4943 480.475 96 480.475H416C437.217 480.475 457.566 472.047 472.569 457.044C487.571 442.041 496 421.692 496 400.475H494.384C490.696 418.542 480.88 434.781 466.597 446.443C452.313 458.105 434.44 464.475 416 464.475Z" fill="black"/>
<path d="M480 288.475H32C23.5131 288.475 15.3737 291.847 9.37258 297.848C3.37142 303.849 0 311.988 0 320.475C0 328.962 3.37142 337.101 9.37258 343.103C15.3737 349.104 23.5131 352.475 32 352.475H480C488.487 352.475 496.626 349.104 502.627 343.103C508.629 337.101 512 328.962 512 320.475C512 311.988 508.629 303.849 502.627 297.848C496.626 291.847 488.487 288.475 480 288.475Z" fill="#EF4D4D"/>
<path d="M480 336.475H32C24.9214 336.46 18.0482 334.095 12.4591 329.752C6.87005 325.408 2.88165 319.331 1.12 312.475C0.464 315.067 0 317.707 0 320.475C0 328.962 3.37142 337.101 9.37258 343.103C15.3737 349.104 23.5131 352.475 32 352.475H480C488.487 352.475 496.626 349.104 502.627 343.103C508.629 337.101 512 328.962 512 320.475C512 317.691 511.536 315.051 510.88 312.475C509.121 319.332 505.133 325.411 499.543 329.755C493.954 334.099 487.079 336.463 480 336.475Z" fill="black"/>
<path d="M480 160.475H32C23.5131 160.475 15.3737 163.847 9.37258 169.848C3.37142 175.849 0 183.988 0 192.475C0 200.962 3.37142 209.101 9.37258 215.103C15.3737 221.104 23.5131 224.475 32 224.475H480C488.487 224.475 496.626 221.104 502.627 215.103C508.629 209.101 512 200.962 512 192.475C512 183.988 508.629 175.849 502.627 169.848C496.626 163.847 488.487 160.475 480 160.475Z" fill="#EF4D4D"/>
<path d="M480 208.475H32C24.9214 208.46 18.0482 206.095 12.4591 201.752C6.87005 197.408 2.88165 191.331 1.12 184.475C0.464 187.067 0 189.707 0 192.475C0 200.962 3.37142 209.101 9.37258 215.103C15.3737 221.104 23.5131 224.475 32 224.475H480C488.487 224.475 496.626 221.104 502.627 215.103C508.629 209.101 512 200.962 512 192.475C512 189.691 511.536 187.051 510.88 184.475C509.121 191.332 505.133 197.411 499.543 201.755C493.954 206.099 487.079 208.463 480 208.475Z" fill="black"/>
<path d="M16 368.475H496V384.475H16V368.475Z" fill="#469FCC"/>
<path d="M16 240.475H496V272.475H16V240.475Z" fill="#EDD87E"/>
<path d="M202.512 367.339L139.312 430.539C137.827 432.026 136.064 433.206 134.123 434.011C132.182 434.816 130.101 435.231 128 435.231C125.899 435.231 123.818 434.816 121.877 434.011C119.936 433.206 118.173 432.026 116.688 430.539L53.488 367.339H41.376L117.824 443.787C119.309 445.274 121.072 446.454 123.013 447.259C124.954 448.064 127.035 448.479 129.136 448.479C131.237 448.479 133.318 448.064 135.259 447.259C137.2 446.454 138.963 445.274 140.448 443.787L216.896 367.339H202.512Z" fill="black"/>
<path d="M116.688 430.539C118.173 432.026 119.936 433.206 121.877 434.011C123.818 434.816 125.899 435.231 128 435.231C130.102 435.231 132.182 434.816 134.123 434.011C136.064 433.206 137.828 432.026 139.312 430.539L202.512 367.339H53.4883L116.688 430.539ZM285.248 367.339L331.312 413.403C332.797 414.89 334.56 416.07 336.501 416.875C338.442 417.68 340.523 418.095 342.624 418.095C344.726 418.095 346.806 417.68 348.747 416.875C350.688 416.07 352.452 414.89 353.936 413.403L400 367.339H285.248Z" fill="#EDD87E"/>
<path d="M400 367.339L353.936 413.403C352.451 414.89 350.688 416.07 348.747 416.875C346.806 417.68 344.725 418.094 342.624 418.094C340.523 418.094 338.442 417.68 336.501 416.875C334.56 416.07 332.797 414.89 331.312 413.403L285.248 367.339H273.136L332.448 426.651C333.933 428.138 335.696 429.318 337.637 430.123C339.578 430.928 341.659 431.342 343.76 431.342C345.861 431.342 347.942 430.928 349.883 430.123C351.824 429.318 353.587 428.138 355.072 426.651L414.384 367.339H400ZM464 176.475C435.2 176.475 416 144.475 416 144.475C416 144.475 384 176.475 336 176.475C288 176.475 256 144.475 256 144.475C256 144.475 236.8 176.475 208 176.475C179.2 176.475 160 144.475 160 144.475C160 144.475 128 176.475 80 176.475C32 176.475 0 144.475 0 144.475V160.475C0 160.475 32 192.475 80 192.475C128 192.475 160 160.475 160 160.475C160 160.475 179.2 192.475 208 192.475C236.8 192.475 256 160.475 256 160.475C256 160.475 288 192.475 336 192.475C384 192.475 416 160.475 416 160.475C416 160.475 435.2 192.475 464 192.475C492.8 192.475 512 160.475 512 160.475V144.475C512 144.475 492.8 176.475 464 176.475Z" fill="black"/>
<path d="M256.063 0.475098C128.063 0.475098 16.0635 48.4751 16.0635 112.475H496.063C496.063 48.4751 384.063 0.475098 256.063 0.475098Z" fill="#E29460"/>
<path d="M352.063 56.4751C352.063 58.5968 352.906 60.6317 354.407 62.132C355.907 63.6322 357.942 64.4751 360.063 64.4751C362.185 64.4751 364.22 63.6322 365.72 62.132C367.221 60.6317 368.063 58.5968 368.063 56.4751C368.063 54.3534 367.221 52.3185 365.72 50.8182C364.22 49.318 362.185 48.4751 360.063 48.4751C357.942 48.4751 355.907 49.318 354.407 50.8182C352.906 52.3185 352.063 54.3534 352.063 56.4751Z" fill="black"/>
<path d="M288.063 40.4751C288.063 42.5968 288.906 44.6317 290.407 46.132C291.907 47.6322 293.942 48.4751 296.063 48.4751C298.185 48.4751 300.22 47.6322 301.72 46.132C303.221 44.6317 304.063 42.5968 304.063 40.4751C304.063 38.3534 303.221 36.3185 301.72 34.8182C300.22 33.318 298.185 32.4751 296.063 32.4751C293.942 32.4751 291.907 33.318 290.407 34.8182C288.906 36.3185 288.063 38.3534 288.063 40.4751Z" fill="black"/>
<path d="M208.063 72.4751C208.063 74.5968 208.906 76.6317 210.407 78.132C211.907 79.6322 213.942 80.4751 216.063 80.4751C218.185 80.4751 220.22 79.6322 221.72 78.132C223.221 76.6317 224.063 74.5968 224.063 72.4751C224.063 70.3534 223.221 68.3185 221.72 66.8182C220.22 65.318 218.185 64.4751 216.063 64.4751C213.942 64.4751 211.907 65.318 210.407 66.8182C208.906 68.3185 208.063 70.3534 208.063 72.4751Z" fill="black"/>
<path d="M224.063 40.4751C224.063 42.5968 224.906 44.6317 226.407 46.132C227.907 47.6322 229.942 48.4751 232.063 48.4751C234.185 48.4751 236.22 47.6322 237.72 46.132C239.221 44.6317 240.063 42.5968 240.063 40.4751C240.063 38.3534 239.221 36.3185 237.72 34.8182C236.22 33.318 234.185 32.4751 232.063 32.4751C229.942 32.4751 227.907 33.318 226.407 34.8182C224.906 36.3185 224.063 38.3534 224.063 40.4751Z" fill="black"/>
<path d="M128.063 40.4751C128.063 42.5968 128.906 44.6317 130.407 46.132C131.907 47.6322 133.942 48.4751 136.063 48.4751C138.185 48.4751 140.22 47.6322 141.72 46.132C143.221 44.6317 144.063 42.5968 144.063 40.4751C144.063 38.3534 143.221 36.3185 141.72 34.8182C140.22 33.318 138.185 32.4751 136.063 32.4751C133.942 32.4751 131.907 33.318 130.407 34.8182C128.906 36.3185 128.063 38.3534 128.063 40.4751Z" fill="black"/>
<path d="M432 96.4751C384 96.4751 352 128.475 352 128.475C352 128.475 332.8 96.4751 304 96.4751C275.2 96.4751 256 128.475 256 128.475C256 128.475 224 96.4751 176 96.4751C128 96.4751 96 128.475 96 128.475C96 128.475 76.8 96.4751 48 96.4751C19.2 96.4751 0 128.475 0 128.475V144.475C0 144.475 32 176.475 80 176.475C128 176.475 160 144.475 160 144.475C160 144.475 179.2 176.475 208 176.475C236.8 176.475 256 144.475 256 144.475C256 144.475 288 176.475 336 176.475C384 176.475 416 144.475 416 144.475C416 144.475 435.2 176.475 464 176.475C492.8 176.475 512 144.475 512 144.475V128.475C512 128.475 480 96.4751 432 96.4751Z" fill="#3AAD73"/>
</svg>
