<svg version="1.1" xmlns="http://www.w3.org/2000/svg" xmlns:xlink="http://www.w3.org/1999/xlink" x="0px" y="0px"
	 viewBox="0 0 512 512" style="enable-background:new 0 0 512 512;" xml:space="preserve">
		<path fill="#222C3C" d="M496.971,230.011H15.029C6.729,230.011,0,236.74,0,245.04c0,56.447,27.056,109.311,76.185,148.853
			c48.174,38.775,112.034,60.129,179.815,60.129s131.641-21.355,179.815-60.128C484.944,354.352,512,301.488,512,245.04
			C512,236.74,505.271,230.011,496.971,230.011z"/>
		<path fill="#222C3C" d="M506.765,61.606c-6.297-5.407-15.785-4.688-21.194,1.607l-60.41,70.326c4.39,6.427,7.996,13.323,10.745,20.576
			c2.696,1.155,5.338,2.435,7.923,3.823L508.372,82.8C513.779,76.504,513.061,67.015,506.765,61.606z"/>
		<path fill="#222C3C" d="M411.293,177.707c-4.664-27.768-26.027-49.948-53.371-55.823c-4.346-33.774-33.285-59.958-68.222-59.958
			c-29.259,0-54.309,18.361-64.231,44.167c-9.931-5.364-21.155-8.299-32.675-8.299c-37.928,0-68.785,30.857-68.785,68.785
			c0,0.241,0.001,0.483,0.004,0.725c-21.623,3.125-40.332,15.351-52.136,32.648h377.223
			C439.421,188.83,426.245,180.83,411.293,177.707z"/>
</svg>
