<svg version="1.1" id="Layer_1" xmlns="http://www.w3.org/2000/svg" xmlns:xlink="http://www.w3.org/1999/xlink" 
	 viewBox="0 0 512 512" xml:space="preserve">
<path d="M378.152,188.184v176.304l-244.304,0.184V188.184" fill="#A7A7A7"/>
<g>
	<path d="M180.448,199.52c0,20.776-16.912,37.624-37.776,37.624s-37.776-16.84-37.776-37.624v-45.672H407.12v45.672c0,20.776-16.912,37.624-37.776,37.624s-37.776-16.84-37.776-37.624" fill="#EC7E00"/>
	<path d="M180.448,199.52c0,20.776,16.912,37.624,37.776,37.624S256,220.296,256,199.52" fill="#EC7E00"/>
	<path d="M256,199.52c0,20.776,16.912,37.624,37.776,37.624s37.776-16.84,37.776-37.624" fill="#EC7E00"/>
</g>
<rect x="105.04" y="355.2" width="302.024" height="18.888" fill="#585858"/>
<rect x="217.92" y="267.872" width="76.144" height="87.36" fill="#2f3235"/>
<polyline points="255.752,105.88 153.168,105.88 104.888,153.848 407.064,153.848 358.784,105.88 
	242.928,105.88 " fill="#EC7E00"/>
</svg>