<svg height="512" viewBox="0 0 128 128" width="512" xmlns="http://www.w3.org/2000/svg"><g><g><path d="m102.158 102.045h-76.316a10 10 0 0 1 -8.711-5.089l-7.139-12.656h108.016l-7.139 12.661a10 10 0 0 1 -8.711 5.084z" fill="#a260e5"/><path d="m10.415 75.63h107.17a8.665 8.665 0 0 1 8.665 8.665 0 0 0 0 1 0 0h-124.5a0 0 0 0 1 0 0 8.665 8.665 0 0 1 8.665-8.665z" fill="#c7e554"/><g fill="#f3d232"><path d="m88.816 75.63c0-.142.021-.28.021-.423a12.419 12.419 0 1 0 -24.837 0c0 .143.017.281.021.423z"/><path d="m113.654 75.63c0-.142.02-.28.02-.423a12.419 12.419 0 1 0 -24.837 0c0 .143.017.281.022.423z"/><path d="m63.979 75.63c0-.142.021-.28.021-.423a12.419 12.419 0 1 0 -24.837 0c0 .143.016.281.021.423z"/><path d="m39.141 75.63c.005-.142.022-.28.022-.423a12.419 12.419 0 1 0 -24.837 0c0 .143.016.281.021.423z"/></g><g fill="#f2b733"><path d="m39.163 75.207a12.419 12.419 0 0 1 12.4-12.418 12.4 12.4 0 0 0 -24.794 0 12.419 12.419 0 0 1 12.394 12.418z"/><path d="m88.837 75.63h.021c0-.142-.021-.28-.021-.422 0 .143-.016.281-.021.423z"/><path d="m64.021 75.63c0-.142-.021-.28-.021-.423 0 .143-.017.281-.021.423z"/><path d="m88.837 75.207a12.419 12.419 0 0 1 12.4-12.418 12.4 12.4 0 0 0 -24.794 0 12.419 12.419 0 0 1 12.394 12.418z"/><path d="m64 75.207a12.419 12.419 0 0 1 12.4-12.418 12.4 12.4 0 0 0 -24.794 0 12.419 12.419 0 0 1 12.394 12.418z"/><path d="m39.163 75.63h.021c0-.142-.021-.28-.021-.423 0 .142-.017.28-.021.422z"/></g><path d="m64 50.792a12.419 12.419 0 0 1 12.419-12.418 12.419 12.419 0 1 0 -24.838 0 12.419 12.419 0 0 1 12.419 12.418z" fill="#f2b733"/><g fill="#f3d232"><path d="m51.56 62.789h.04a12.41 12.41 0 0 1 12.4-12 12.419 12.419 0 0 0 -24.837 0 12.41 12.41 0 0 1 12.397 12z"/><path d="m76.4 62.789h.043a12.41 12.41 0 0 1 12.4-12 12.419 12.419 0 0 0 -24.837 0 12.41 12.41 0 0 1 12.394 12z"/></g></g><g><path d="m117.585 73.88h-2.228a14.188 14.188 0 0 0 -12.524-12.749 14.075 14.075 0 0 0 -12.35-11.985 14.185 14.185 0 0 0 -12.418-12.418 14.184 14.184 0 0 0 -14.065-12.523 1.75 1.75 0 0 0 0 3.5 10.677 10.677 0 0 1 10.534 9.059 14.191 14.191 0 0 0 -10.534 7.219 14.188 14.188 0 0 0 -10.531-7.218 10.688 10.688 0 0 1 3.322-6.255 1.75 1.75 0 0 0 -2.366-2.58 14.213 14.213 0 0 0 -4.489 8.8 14.186 14.186 0 0 0 -12.419 12.416 14.075 14.075 0 0 0 -12.35 11.985 14.188 14.188 0 0 0 -12.524 12.749h-2.228a10.427 10.427 0 0 0 -10.415 10.42 1.75 1.75 0 0 0 1.75 1.75h7.22l6.636 11.77a11.767 11.767 0 0 0 10.236 5.98h76.316a11.767 11.767 0 0 0 10.236-5.98l6.636-11.77h7.22a1.75 1.75 0 0 0 1.75-1.75 10.427 10.427 0 0 0 -10.415-10.42zm-5.743 0h-21.173a10.684 10.684 0 0 1 10.567-9.341h.03a10.682 10.682 0 0 1 10.576 9.341zm-47.842-21.337a10.6 10.6 0 0 1 10.453 8.648 14.193 14.193 0 0 0 -10.453 7.209 14.193 14.193 0 0 0 -10.453-7.206 10.6 10.6 0 0 1 10.453-8.651zm-12.438 12h.029a10.683 10.683 0 0 1 10.577 9.337h-21.168a10.685 10.685 0 0 1 10.562-9.341zm24.836 0h.03a10.684 10.684 0 0 1 10.577 9.337h-21.173a10.684 10.684 0 0 1 10.568-9.341zm22.892-3.352a14.193 14.193 0 0 0 -10.453 7.209 14.193 14.193 0 0 0 -10.453-7.206 10.641 10.641 0 0 1 20.906 0zm-22.872-21.067a10.676 10.676 0 0 1 10.534 9.057 14.062 14.062 0 0 0 -10.533 7.219 14.065 14.065 0 0 0 -10.534-7.214 10.675 10.675 0 0 1 10.533-9.062zm-24.836 0a10.675 10.675 0 0 1 10.533 9.057 14.065 14.065 0 0 0 -10.534 7.219 14.062 14.062 0 0 0 -10.533-7.214 10.676 10.676 0 0 1 10.534-9.062zm-12.419 12.419a10.6 10.6 0 0 1 10.453 8.648 14.193 14.193 0 0 0 -10.453 7.209 14.193 14.193 0 0 0 -10.453-7.209 10.6 10.6 0 0 1 10.453-8.648zm-12.419 11.995a10.685 10.685 0 0 1 10.587 9.342h-21.173a10.684 10.684 0 0 1 10.586-9.342zm78.256 18.007a1.75 1.75 0 0 0 0 3.5h10.012l-5.667 10.055a8.261 8.261 0 0 1 -7.187 4.2h-76.316a8.261 8.261 0 0 1 -7.187-4.2l-5.667-10.055h65.262a1.75 1.75 0 0 0 0-3.5h-74.526a6.928 6.928 0 0 1 6.691-5.165h107.17a6.928 6.928 0 0 1 6.691 5.165z"/><path d="m94.375 82.545h-5.5a1.75 1.75 0 0 0 0 3.5h5.5a1.75 1.75 0 0 0 0-3.5z"/></g></g></svg>