<?xml version="1.0" encoding="utf-8"?>
<!-- Generator: Adobe Illustrator 19.0.0, SVG Export Plug-In . SVG Version: 6.00 Build 0)  -->
<svg version="1.1" id="Layer_1" xmlns="http://www.w3.org/2000/svg" xmlns:xlink="http://www.w3.org/1999/xlink" x="0px" y="0px"
	 viewBox="-92.6 68.5 193.1 31.5" style="enable-background:new -92.6 68.5 193.1 31.5;" xml:space="preserve">
<path fill="#E5EAED" d="M-85.6,80.3h7.1c0.2,0.3,0.3,0.7,0.5,1.2c0.2,0.5,0.2,1,0.2,1.6c0,1-0.2,1.7-0.7,2.2c-0.4,0.4-1,0.7-1.8,0.7h-5
	v13.7c-0.3,0.1-0.7,0.1-1.3,0.2s-1.2,0.1-1.9,0.1c-1.4,0-2.5-0.2-3.1-0.7s-1-1.4-1-2.7V78.8c0-1.5,0.3-2.7,0.8-3.8
	c0.5-1.1,1.2-1.9,2.1-2.6s1.9-1.2,3.1-1.5s2.4-0.5,3.7-0.5c2.1,0,3.7,0.3,4.7,0.8c1,0.6,1.5,1.5,1.5,2.9c0,0.6-0.1,1.1-0.4,1.6
	c-0.2,0.5-0.5,0.8-0.8,1c-0.5-0.1-1.1-0.3-1.7-0.4s-1.3-0.2-2.1-0.2c-1.2,0-2.2,0.2-2.9,0.6s-1,1.1-1,2.2
	C-85.6,78.8-85.6,80.3-85.6,80.3z"/>
<path fill="#E5EAED" d="M0.8,86.1c0,2.3-0.3,4.3-1,6.1c-0.7,1.7-1.7,3.2-3,4.3c-1.3,1.2-2.8,2-4.6,2.6c-1.8,0.6-3.8,0.9-6,0.9
	c-0.5,0-1.1,0-1.7,0s-1.3-0.1-2-0.2s-1.4-0.2-2-0.3c-0.7-0.1-1.3-0.3-1.9-0.5c-1.6-0.6-2.4-1.7-2.4-3.2V75.5c0-0.6,0.2-1.1,0.5-1.4
	s0.8-0.6,1.4-0.8c1.2-0.4,2.6-0.7,3.9-0.8c1.4-0.1,2.6-0.2,3.7-0.2c2.3,0,4.3,0.3,6.1,0.8c1.8,0.5,3.4,1.4,4.7,2.5
	c1.3,1.1,2.3,2.6,3.1,4.3C0.4,81.7,0.8,83.8,0.8,86.1z M-7,86.3c0-2.6-0.6-4.6-1.8-5.9c-1.2-1.3-2.8-2-4.8-2c-0.4,0-0.8,0-1.2,0
	c-0.4,0-0.8,0.1-1.3,0.1v15.1c0.3,0.1,0.7,0.1,1.2,0.2c0.5,0,0.9,0.1,1.3,0.1c2,0,3.6-0.6,4.8-1.9C-7.6,90.7-7,88.8-7,86.3z"/>
<path fill="#E5EAED" d="M4.5,78.4c0.3-0.1,0.8-0.2,1.4-0.3C6.5,78,7.1,78,7.8,78c1.4,0,2.5,0.2,3.1,0.7s1,1.4,1,2.7V91
	c0,1.2,0.3,2,0.9,2.5s1.4,0.8,2.5,0.8c0.7,0,1.2-0.1,1.6-0.2s0.7-0.2,1-0.3V78.4c0.3-0.1,0.8-0.2,1.4-0.3c0.6-0.1,1.2-0.1,1.9-0.1
	c1.4,0,2.5,0.2,3.1,0.7s1,1.4,1,2.7v13.4c0,1.4-0.6,2.5-1.8,3.2c-1,0.6-2.2,1.1-3.6,1.5c-1.4,0.3-2.9,0.5-4.6,0.5
	c-1.6,0-3-0.2-4.3-0.5s-2.4-0.9-3.4-1.6s-1.7-1.7-2.2-2.8C4.9,94,4.6,92.6,4.6,91L4.5,78.4L4.5,78.4z"/>
<path fill="#E5EAED" d="M41.4,77.6c1.4,0,2.7,0.2,4,0.7s2.3,1.2,3.3,2.1c0.9,0.9,1.7,2.1,2.2,3.5s0.8,3,0.8,4.8s-0.3,3.4-0.8,4.8
	c-0.6,1.4-1.3,2.6-2.4,3.5c-1,1-2.2,1.7-3.7,2.2S41.7,100,40,100c-1.9,0-3.5-0.2-4.8-0.7c-1.3-0.4-2.5-1-3.4-1.7
	c-1.3-0.9-1.9-2-1.9-3.5v-23c0.3-0.1,0.8-0.2,1.4-0.3c0.6-0.1,1.2-0.1,1.9-0.1c1.4,0,2.5,0.2,3.1,0.7s1,1.4,1,2.7v4.3
	c0.6-0.2,1.2-0.4,1.9-0.6C39.8,77.7,40.6,77.6,41.4,77.6z M40,83.4c-0.6,0-1.1,0.1-1.6,0.2s-0.9,0.3-1.3,0.6v9.4
	c0.3,0.2,0.7,0.3,1.1,0.5c0.4,0.1,1,0.2,1.6,0.2c1.3,0,2.3-0.5,3.1-1.4s1.2-2.3,1.2-4.1c0-1.8-0.4-3.2-1.1-4
	C42.3,83.8,41.3,83.4,40,83.4z"/>
<path fill="#E5EAED" d="M59.6,100.1c-1.4,0-2.5-0.2-3.1-0.7s-1-1.4-1-2.7V71.5c0.3-0.1,0.8-0.2,1.4-0.3c0.6-0.1,1.2-0.1,1.9-0.1
	c1.4,0,2.5,0.2,3.1,0.7s1,1.4,1,2.7v25.1c-0.3,0.1-0.8,0.2-1.4,0.3S60.3,100.1,59.6,100.1z"/>
<path fill="#E5EAED" d="M67.4,72.8c0-1.1,0.4-2,1.1-2.8c0.7-0.8,1.7-1.1,2.9-1.1s2.2,0.4,2.9,1.1c0.7,0.8,1.1,1.7,1.1,2.8
	c0,1.1-0.4,2-1.1,2.8c-0.7,0.8-1.7,1.1-2.9,1.1s-2.2-0.4-2.9-1.1C67.8,74.8,67.4,73.9,67.4,72.8z M67.8,79c0.3-0.1,0.8-0.2,1.4-0.3
	c0.6-0.1,1.2-0.1,1.9-0.1c1.4,0,2.5,0.2,3.1,0.7s1,1.4,1,2.7v17.6c-0.3,0.1-0.8,0.2-1.4,0.3c-0.6,0.1-1.2,0.1-1.9,0.1
	c-1.4,0-2.5-0.2-3.1-0.7s-1-1.4-1-2.7V79z"/>
<path fill="#E5EAED" d="M100.5,99.7c-0.3,0.1-0.8,0.2-1.4,0.3c-0.6,0.1-1.2,0.1-1.9,0.1c-1.4,0-2.5-0.2-3.1-0.7s-1-1.4-1-2.7V86.4
	c0-0.9-0.3-1.6-0.8-2c-0.5-0.4-1.2-0.6-2.1-0.6c-0.6,0-1.1,0.1-1.6,0.2c-0.5,0.1-1,0.3-1.4,0.6v15.1c-0.3,0.1-0.8,0.2-1.4,0.3
	c-0.6,0.1-1.2,0.1-1.9,0.1c-1.4,0-2.5-0.2-3.1-0.7s-1-1.4-1-2.7v-13c0-0.8,0.2-1.4,0.5-1.9s0.8-0.9,1.4-1.3c1-0.7,2.2-1.2,3.7-1.7
	c1.5-0.4,3.1-0.6,5-0.6c3.3,0,5.8,0.7,7.5,2.1c1.8,1.4,2.6,3.4,2.6,6V99.7z"/>
<path fill="#E5EAED" d="M-28.2,84.3c-0.5-1.4-1.3-2.5-2.3-3.5s-2.2-1.8-3.6-2.3c-1.4-0.5-2.9-0.8-4.6-0.8s-3.2,0.3-4.6,0.8
	c-1.4,0.5-2.6,1.2-3.6,2.2c-1,0.9-1.8,2.1-2.3,3.5c-0.5,1.4-0.8,2.9-0.8,4.6s0.3,3.3,0.8,4.7c0.5,1.4,1.3,2.5,2.3,3.5
	s2.2,1.7,3.6,2.2c1.4,0.5,2.9,0.8,4.7,0.8s3.3-0.3,4.7-0.8c1.4-0.5,2.6-1.2,3.6-2.2s1.7-2.2,2.3-3.5c0.5-1.4,0.8-3,0.8-4.7
	S-27.5,85.6-28.2,84.3z M-38.6,97.1c-3.5,0-6.4-2.6-6.8-6h13.6C-32.2,94.4-35.1,97.1-38.6,97.1z"/>
<path fill="#EC7E00" d="M-53.7,84.3c-0.5-1.4-1.3-2.5-2.3-3.5s-2.2-1.8-3.6-2.3c-1.4-0.5-2.9-0.8-4.6-0.8s-3.2,0.3-4.6,0.8
	c-1.4,0.5-2.6,1.2-3.6,2.2c-1,0.9-1.8,2.1-2.3,3.5c-0.5,1.4-0.8,2.9-0.8,4.6s0.3,3.3,0.8,4.7c0.5,1.4,1.3,2.5,2.3,3.5
	s2.2,1.7,3.6,2.2c1.4,0.5,2.9,0.8,4.7,0.8c1.8,0,3.3-0.3,4.7-0.8c1.4-0.5,2.6-1.2,3.6-2.2c1-0.9,1.8-2.1,2.3-3.5
	c0.5-1.4,0.8-3,0.8-4.7S-53,85.6-53.7,84.3z M-67.2,96c-0.9-0.3-1.7-0.8-2.4-1.5c-0.7-0.7-1.2-1.4-1.5-2.4c-0.3-0.9-0.5-2-0.5-3.2
	s0.2-2.2,0.5-3.1c0.3-0.9,0.9-1.7,1.5-2.4c0.7-0.7,1.4-1.1,2.4-1.5c0.9-0.3,1.9-0.5,3-0.5c1.1,0,2.1,0.2,3,0.5
	c0.9,0.3,1.7,0.9,2.4,1.5c0.7,0.7,1.2,1.4,1.5,2.4c0.5,0.9,0.7,1.9,0.7,3s-0.2,2.2-0.5,3.2c-0.3,0.9-0.9,1.7-1.5,2.4
	c-0.7,0.7-1.4,1.1-2.4,1.5c-0.9,0.3-1.9,0.5-3.1,0.5S-66.3,96.3-67.2,96z"/>
<path fill="#E5EAED" d="M-58.6,89c0,0.8-0.1,1.6-0.4,2.3c-0.2,0.7-0.6,1.3-1.1,1.7c-0.5,0.5-1.1,0.8-1.7,1.1s-1.4,0.4-2.3,0.4
	c-0.9,0-1.6-0.1-2.3-0.4c-0.7-0.2-1.3-0.6-1.7-1.1c-0.5-0.5-0.9-1-1.1-1.7c-0.2-0.7-0.4-1.5-0.4-2.3c0-0.8,0.1-1.6,0.4-2.3
	c0.2-0.7,0.6-1.3,1.1-1.7c0.5-0.5,1.1-0.8,1.7-1.1c0.7-0.2,1.4-0.4,2.2-0.4c0.8,0,1.5,0.1,2.2,0.4s1.3,0.6,1.7,1.1s0.9,1,1.1,1.7
	C-58.8,87.4-58.6,88.1-58.6,89z"/>
</svg>
