<svg version="1.1" id="Layer_1" xmlns="http://www.w3.org/2000/svg" xmlns:xlink="http://www.w3.org/1999/xlink" x="0px" y="0px"
	 viewBox="-52 35.5 193.1 31.5" style="enable-background:new -52 35.5 193.1 31.5;" xml:space="preserve">
<style type="text/css">
	.st0{fill:#E5EAED;}
	.st1{fill:#EC7E00;}
</style>
<path class="st0" d="M-45,47.3h7.1c0.2,0.3,0.3,0.7,0.5,1.2s0.2,1,0.2,1.6c0,1-0.2,1.7-0.7,2.2c-0.4,0.4-1,0.7-1.8,0.7h-5v13.7
	c-0.3,0.1-0.7,0.1-1.3,0.2s-1.2,0.1-1.9,0.1c-1.4,0-2.5-0.2-3.1-0.7s-1-1.4-1-2.7V45.8c0-1.5,0.3-2.7,0.8-3.8s1.2-1.9,2.1-2.6
	s1.9-1.2,3.1-1.5s2.4-0.5,3.7-0.5c2.1,0,3.7,0.3,4.7,0.8c1,0.6,1.5,1.5,1.5,2.9c0,0.6-0.1,1.1-0.4,1.6c-0.2,0.5-0.5,0.8-0.8,1
	c-0.5-0.1-1.1-0.3-1.7-0.4s-1.3-0.2-2.1-0.2c-1.2,0-2.2,0.2-2.9,0.6s-1,1.1-1,2.2C-45,45.8-45,47.3-45,47.3z"/>
<path class="st0" d="M41.4,53c0,2.3-0.3,4.3-1,6.1c-0.7,1.7-1.7,3.2-3,4.3c-1.3,1.2-2.8,2-4.6,2.6c-1.8,0.6-3.8,0.9-6,0.9
	c-0.5,0-1.1,0-1.7,0s-1.3-0.1-2-0.2s-1.4-0.2-2-0.3c-0.7-0.1-1.3-0.3-1.9-0.5c-1.6-0.6-2.4-1.7-2.4-3.2V42.5c0-0.6,0.2-1.1,0.5-1.4
	s0.8-0.6,1.4-0.8c1.2-0.4,2.6-0.7,3.9-0.8c1.4-0.1,2.6-0.2,3.7-0.2c2.3,0,4.3,0.3,6.1,0.8c1.8,0.5,3.4,1.4,4.7,2.5s2.3,2.6,3.1,4.3
	C41,48.6,41.4,50.8,41.4,53z M33.6,53.3c0-2.6-0.6-4.6-1.8-5.9c-1.2-1.3-2.8-2-4.8-2c-0.4,0-0.8,0-1.2,0c-0.4,0-0.8,0.1-1.3,0.1
	v15.1c0.3,0.1,0.7,0.1,1.2,0.2c0.5,0,0.9,0.1,1.3,0.1c2,0,3.6-0.6,4.8-1.9C33,57.6,33.6,55.8,33.6,53.3z"/>
<path class="st0" d="M45.1,45.4c0.3-0.1,0.8-0.2,1.4-0.3c0.6-0.1,1.2-0.1,1.9-0.1c1.4,0,2.5,0.2,3.1,0.7s1,1.4,1,2.7V58
	c0,1.2,0.3,2,0.9,2.5s1.4,0.8,2.5,0.8c0.7,0,1.2-0.1,1.6-0.2c0.4-0.1,0.7-0.2,1-0.3V45.4c0.3-0.1,0.8-0.2,1.4-0.3
	c0.6-0.1,1.2-0.1,1.9-0.1c1.4,0,2.5,0.2,3.1,0.7s1,1.4,1,2.7v13.4c0,1.4-0.6,2.5-1.8,3.2c-1,0.6-2.2,1.1-3.6,1.5
	c-1.4,0.3-2.9,0.5-4.6,0.5c-1.6,0-3-0.2-4.3-0.5s-2.4-0.9-3.4-1.6s-1.7-1.7-2.2-2.8s-0.8-2.5-0.8-4.1L45.1,45.4L45.1,45.4z"/>
<path class="st0" d="M82,44.5c1.4,0,2.7,0.2,4,0.7s2.3,1.2,3.3,2.1c0.9,0.9,1.7,2.1,2.2,3.5s0.8,3,0.8,4.8S92,59,91.5,60.4
	c-0.6,1.4-1.3,2.6-2.4,3.5c-1,1-2.2,1.7-3.7,2.2s-3.1,0.8-4.8,0.8c-1.9,0-3.5-0.2-4.8-0.7c-1.3-0.4-2.5-1-3.4-1.7
	c-1.3-0.9-1.9-2-1.9-3.5V38c0.3-0.1,0.8-0.2,1.4-0.3s1.2-0.1,1.9-0.1c1.4,0,2.5,0.2,3.1,0.7s1,1.4,1,2.7v4.3
	c0.6-0.2,1.2-0.4,1.9-0.6C80.4,44.6,81.2,44.5,82,44.5z M80.6,50.4c-0.6,0-1.1,0.1-1.6,0.2s-0.9,0.3-1.3,0.6v9.4
	c0.3,0.2,0.7,0.3,1.1,0.5c0.4,0.1,1,0.2,1.6,0.2c1.3,0,2.3-0.5,3.1-1.4c0.8-0.9,1.2-2.3,1.2-4.1s-0.4-3.2-1.1-4
	C82.9,50.8,81.9,50.4,80.6,50.4z"/>
<path class="st0" d="M100.2,67c-1.4,0-2.5-0.2-3.1-0.7s-1-1.4-1-2.7V38.5c0.3-0.1,0.8-0.2,1.4-0.3s1.2-0.1,1.9-0.1
	c1.4,0,2.5,0.2,3.1,0.7s1,1.4,1,2.7v25.1c-0.3,0.1-0.8,0.2-1.4,0.3S100.9,67,100.2,67z"/>
<path class="st0" d="M108.4,46c0.3-0.1,0.8-0.2,1.4-0.3s1.2-0.1,1.9-0.1c1.4,0,2.5,0.2,3.1,0.7s1,1.4,1,2.7v17.6
	c-0.3,0.1-0.8,0.2-1.4,0.3c-0.6,0.1-1.2,0.1-1.9,0.1c-1.4,0-2.5-0.2-3.1-0.7s-1-1.4-1-2.7V46z"/>
<path class="st0" d="M141.2,66.6c-0.3,0.1-0.8,0.2-1.4,0.3c-0.6,0.1-1.2,0.1-1.9,0.1c-1.4,0-2.5-0.2-3.1-0.7s-1-1.4-1-2.7V53.4
	c0-0.9-0.3-1.6-0.8-2s-1.2-0.6-2.1-0.6c-0.6,0-1.1,0.1-1.6,0.2s-1,0.3-1.4,0.6v15.1c-0.3,0.1-0.8,0.2-1.4,0.3
	c-0.6,0.1-1.2,0.1-1.9,0.1c-1.4,0-2.5-0.2-3.1-0.7s-1-1.4-1-2.7v-13c0-0.8,0.2-1.4,0.5-1.9s0.8-0.9,1.4-1.3c1-0.7,2.2-1.2,3.7-1.7
	c1.5-0.4,3.1-0.6,5-0.6c3.3,0,5.8,0.7,7.5,2.1c1.8,1.4,2.6,3.4,2.6,6C141.2,53.3,141.2,66.6,141.2,66.6z"/>
<path class="st0" d="M12.4,51.3c-0.5-1.4-1.3-2.5-2.3-3.5S7.9,46,6.5,45.5s-2.9-0.8-4.6-0.8s-3.2,0.3-4.6,0.8s-2.6,1.2-3.6,2.2
	c-1,0.9-1.8,2.1-2.3,3.5s-0.8,2.9-0.8,4.6s0.3,3.3,0.8,4.7S-7.3,63-6.3,64c1,1,2.2,1.7,3.6,2.2S0.2,67,2,67s3.3-0.3,4.7-0.8
	S9.3,65,10.3,64s1.7-2.2,2.3-3.5c0.5-1.4,0.8-3,0.8-4.7S13.1,52.5,12.4,51.3z M2,64c-3.5,0-6.4-2.6-6.8-6H8.8C8.4,61.4,5.5,64,2,64z
	"/>
<path class="st0" d="M-13.1,51.3c-0.5-1.4-1.3-2.5-2.3-3.5c-1-1-2.2-1.8-3.6-2.3s-2.9-0.8-4.6-0.8s-3.2,0.3-4.6,0.8
	s-2.6,1.2-3.6,2.2c-1,0.9-1.8,2.1-2.3,3.5s-0.8,2.9-0.8,4.6s0.3,3.3,0.8,4.7s1.3,2.5,2.3,3.5c1,1,2.2,1.7,3.6,2.2s2.9,0.8,4.7,0.8
	s3.3-0.3,4.7-0.8s2.6-1.2,3.6-2.2c1-0.9,1.8-2.1,2.3-3.5s0.8-3,0.8-4.7S-12.4,52.5-13.1,51.3z"/>
<path class="st1" d="M-16.8,55.8c0,1-0.1,1.9-0.5,2.8c-0.2,0.9-0.7,1.6-1.3,2.1c-0.6,0.6-1.3,1-2.1,1.3s-1.7,0.5-2.8,0.5
	c-1.1,0-1.9-0.1-2.8-0.5c-0.9-0.2-1.6-0.7-2.1-1.3c-0.6-0.6-1.1-1.2-1.3-2.1c-0.2-0.9-0.5-1.8-0.5-2.8s0.1-1.9,0.5-2.8
	c0.2-0.9,0.7-1.6,1.3-2.1c0.6-0.6,1.3-1,2.1-1.3c0.9-0.2,1.7-0.5,2.7-0.5c1,0,1.8,0.1,2.7,0.5c0.9,0.4,1.6,0.7,2.1,1.3
	c0.5,0.6,1.1,1.2,1.3,2.1C-17,53.9-16.8,54.6-16.8,55.8z"/>
<path class="st0" d="M107.9,39.3c0-1.1,0.4-2,1.1-2.8s1.7-1.1,2.9-1.1s2.2,0.4,2.9,1.1c0.7,0.8,1.1,1.7,1.1,2.8s-0.4,2-1.1,2.8
	s-1.7,1.1-2.9,1.1s-2.2-0.4-2.9-1.1C108.3,41.3,107.9,40.4,107.9,39.3z"/>
</svg>
