<svg version="1.1" id="Capa_1" xmlns="http://www.w3.org/2000/svg" xmlns:xlink="http://www.w3.org/1999/xlink" x="0px" y="0px"
	 viewBox="0 0 512 512" style="enable-background:new 0 0 512 512;" xml:space="preserve">
<g>
	<g>
		<path d="M256,0C115.39,0,0,115.39,0,256c0,140.073,114.928,256,256,256c140.61,0,256-115.39,256-256C512,115.927,397.072,0,256,0z
			 M30,256C30,131.928,131.928,30,256,30c56.646,0,108.322,22.2,147.916,56.873L86.873,403.916C52.2,364.322,30,312.646,30,256z
			 M301,477.464V328.437c17.461-6.196,30-22.881,30-42.437v-41.367l-120,120v112.832c-38.93-7.932-74.092-27.096-102.916-52.337
			l317.043-317.043C459.8,147.678,482,199.354,482,256C482,364.664,403.579,456.561,301,477.464z"/>
	</g>
</g>
<g>
	<g>
		<path d="M316,91c-8.291,0-15,6.709-15,15v41.367l30-30V106C331,97.709,324.291,91,316,91z"/>
	</g>
</g>
<g>
	<g>
		<path d="M256,91c-8.291,0-15,6.709-15,15v75h-30v-75c0-8.291-6.709-15-15-15s-15,6.709-15,15c0,60.601,0,99.703,0,161.367l90-90
			V106C271,97.709,264.291,91,256,91z"/>
	</g>
</g>
<g>
</g>
<g>
</g>
<g>
</g>
<g>
</g>
<g>
</g>
<g>
</g>
<g>
</g>
<g>
</g>
<g>
</g>
<g>
</g>
<g>
</g>
<g>
</g>
<g>
</g>
<g>
</g>
<g>
</g>
</svg>
