<svg width="513" height="557" viewBox="0 0 513 557" fill="none" xmlns="http://www.w3.org/2000/svg">
<path d="M279.969 556.95C359.849 556.95 424.604 543.999 424.604 528.023C424.604 512.047 359.849 499.096 279.969 499.096C200.089 499.096 135.333 512.047 135.333 528.023C135.333 543.999 200.089 556.95 279.969 556.95Z" fill="#F4F4F4"/>
<path d="M231.757 547.308C285.01 547.308 328.181 538.674 328.181 528.023C328.181 517.372 285.01 508.738 231.757 508.738C178.504 508.738 135.333 517.372 135.333 528.023C135.333 538.674 178.504 547.308 231.757 547.308Z" fill="#D8D8D8"/>
<path d="M445.191 313.947C445.191 284.297 345.605 260.259 222.761 260.259C99.9175 260.259 0.34082 284.288 0.34082 313.947C0.34082 314.381 0.34082 315.249 0.34082 315.249C0.34082 438.093 99.9271 537.679 222.771 537.679C345.614 537.679 445.201 438.093 445.201 315.249C445.201 315.249 445.191 314.381 445.191 313.947Z" fill="#E6E6E6"/>
<path d="M512.331 96.3774L116.981 57.8076L115.108 77.0017L510.458 115.571L512.331 96.3774Z" fill="#A46F3E"/>
<path d="M148.466 229.1C140 222.08 135.333 212.602 135.333 202.39C135.333 192.179 139.991 182.701 148.466 175.681C152.439 172.383 154.618 168.179 154.618 163.821C154.618 159.463 152.429 155.249 148.466 151.961C140 144.941 135.333 135.463 135.333 125.252C135.333 115.04 139.991 105.562 148.466 98.5422C152.439 95.2445 154.618 91.0404 154.618 86.6821C154.618 82.3237 152.429 78.11 148.466 74.822C140 67.8024 135.333 58.3239 135.333 48.1127C135.333 37.9014 139.991 28.423 148.466 21.4033L160.77 36.2526C156.797 39.5502 154.618 43.7543 154.618 48.1127C154.618 52.471 156.807 56.6847 160.77 59.9728C169.236 66.9924 173.903 76.4708 173.903 86.6821C173.903 96.8933 169.246 106.372 160.77 113.391C156.797 116.689 154.618 120.893 154.618 125.252C154.618 129.61 156.807 133.824 160.77 137.112C169.236 144.131 173.903 153.61 173.903 163.821C173.903 174.032 169.246 183.511 160.77 190.53C156.797 193.828 154.618 198.032 154.618 202.39C154.618 206.749 156.807 210.962 160.77 214.25L148.466 229.1Z" fill="#EEAF4B"/>
<path d="M187.036 229.1C178.57 222.08 173.903 212.602 173.903 202.39C173.903 192.179 178.56 182.701 187.036 175.681C191.008 172.383 193.188 168.179 193.188 163.821C193.188 159.463 190.999 155.249 187.036 151.961C178.57 144.941 173.903 135.463 173.903 125.252C173.903 115.04 178.56 105.562 187.036 98.5422C191.008 95.2445 193.188 91.0404 193.188 86.6821C193.188 82.3237 190.999 78.11 187.036 74.822C178.57 67.8024 173.903 58.3239 173.903 48.1127C173.903 37.9014 178.56 28.423 187.036 21.4033L199.339 36.2526C195.367 39.5502 193.188 43.7543 193.188 48.1127C193.188 52.471 195.376 56.6847 199.339 59.9728C207.805 66.9924 212.472 76.4708 212.472 86.6821C212.472 96.8933 207.815 106.372 199.339 113.391C195.367 116.689 193.188 120.893 193.188 125.252C193.188 129.61 195.376 133.824 199.339 137.112C207.805 144.131 212.472 153.61 212.472 163.821C212.472 174.032 207.815 183.511 199.339 190.53C195.367 193.828 193.188 198.032 193.188 202.39C193.188 206.749 195.376 210.962 199.339 214.25L187.036 229.1Z" fill="#EEAF4B"/>
<path d="M225.606 229.1C217.14 222.08 212.473 212.602 212.473 202.39C212.473 192.179 217.13 182.701 225.606 175.681C229.578 172.383 231.757 168.179 231.757 163.821C231.757 159.463 229.569 155.249 225.606 151.961C217.14 144.941 212.473 135.463 212.473 125.252C212.473 115.04 217.13 105.562 225.606 98.5422C229.578 95.2445 231.757 91.0404 231.757 86.6821C231.757 82.3237 229.569 78.11 225.606 74.822C217.14 67.8024 212.473 58.3239 212.473 48.1127C212.473 37.9014 217.13 28.423 225.606 21.4033L237.909 36.2526C233.937 39.5502 231.757 43.7543 231.757 48.1127C231.757 52.471 233.946 56.6847 237.909 59.9728C246.375 66.9924 251.042 76.4708 251.042 86.6821C251.042 96.8933 246.385 106.372 237.909 113.391C233.937 116.689 231.757 120.893 231.757 125.252C231.757 129.61 233.946 133.824 237.909 137.112C246.375 144.131 251.042 153.61 251.042 163.821C251.042 174.032 246.385 183.511 237.909 190.53C233.937 193.828 231.757 198.032 231.757 202.39C231.757 206.749 233.946 210.962 237.909 214.25L225.606 229.1Z" fill="#EEAF4B"/>
<path d="M264.174 229.1C255.708 222.08 251.042 212.602 251.042 202.39C251.042 192.179 255.699 182.701 264.174 175.681C268.147 172.383 270.326 168.179 270.326 163.821C270.326 159.463 268.137 155.249 264.174 151.961C255.708 144.941 251.042 135.463 251.042 125.252C251.042 115.04 255.699 105.562 264.174 98.5422C268.147 95.2445 270.326 91.0404 270.326 86.6821C270.326 82.3237 268.137 78.11 264.174 74.822C255.708 67.8024 251.042 58.3239 251.042 48.1127C251.042 37.9014 255.699 28.423 264.174 21.4033L276.478 36.2526C272.505 39.5502 270.326 43.7543 270.326 48.1127C270.326 52.471 272.515 56.6847 276.478 59.9728C284.944 66.9924 289.611 76.4708 289.611 86.6821C289.611 96.8933 284.954 106.372 276.478 113.391C272.505 116.689 270.326 120.893 270.326 125.252C270.326 129.61 272.515 133.824 276.478 137.112C284.944 144.131 289.611 153.61 289.611 163.821C289.611 174.032 284.954 183.511 276.478 190.53C272.505 193.828 270.326 198.032 270.326 202.39C270.326 206.749 272.515 210.962 276.478 214.25L264.174 229.1Z" fill="#EEAF4B"/>
<path d="M222.761 367.626C345.606 367.626 445.191 343.589 445.191 313.938C445.191 284.286 345.606 260.249 222.761 260.249C99.9163 260.249 0.331055 284.286 0.331055 313.938C0.331055 343.589 99.9163 367.626 222.761 367.626Z" fill="#FBD490"/>
<path d="M311.113 350.97C304.528 343.024 293.969 343.024 287.384 350.97L272.544 338.656C279.564 330.19 289.042 325.533 299.253 325.533C309.465 325.533 318.943 330.19 325.963 338.656L311.113 350.97Z" fill="#EEAF4B"/>
<path d="M368.967 341.327C362.382 333.382 351.823 333.382 345.238 341.327L330.398 329.014C337.418 320.548 346.896 315.891 357.107 315.891C367.319 315.891 376.797 320.548 383.817 329.014L368.967 341.327Z" fill="#EEAF4B"/>
<path d="M407.537 322.043C400.951 314.098 390.393 314.098 383.807 322.043L368.968 309.73C375.987 301.264 385.466 296.606 395.677 296.606C405.888 296.606 415.367 301.264 422.386 309.73L407.537 322.043Z" fill="#EEAF4B"/>
<path d="M349.683 312.4C343.097 304.455 332.539 304.455 325.953 312.4L311.113 300.087C318.133 291.621 327.611 286.964 337.823 286.964C348.034 286.964 357.512 291.621 364.532 300.087L349.683 312.4Z" fill="#EEAF4B"/>
<path d="M291.829 322.043C285.243 314.098 274.685 314.098 268.099 322.043L253.259 309.73C260.279 301.264 269.757 296.606 279.969 296.606C290.18 296.606 299.658 301.264 306.678 309.73L291.829 322.043Z" fill="#EEAF4B"/>
<path d="M291.829 293.115C285.243 285.17 274.685 285.17 268.099 293.115L253.259 280.802C260.279 272.336 269.757 267.679 279.969 267.679C290.18 267.679 299.658 272.336 306.678 280.802L291.829 293.115Z" fill="#EEAF4B"/>
<path d="M233.974 312.4C227.388 304.455 216.83 304.455 210.244 312.4L195.405 300.087C202.424 291.621 211.903 286.964 222.114 286.964C232.325 286.964 241.804 291.621 248.823 300.087L233.974 312.4Z" fill="#EEAF4B"/>
<path d="M243.617 350.97C237.031 343.024 226.473 343.024 219.887 350.97L205.047 338.656C212.067 330.19 221.545 325.533 231.757 325.533C241.968 325.533 251.446 330.19 258.466 338.656L243.617 350.97Z" fill="#EEAF4B"/>
<path d="M185.763 350.97C179.177 343.024 168.619 343.024 162.033 350.97L147.193 338.656C154.213 330.19 163.691 325.533 173.903 325.533C184.114 325.533 193.592 330.19 200.612 338.656L185.763 350.97Z" fill="#EEAF4B"/>
<path d="M70.0548 341.327C63.4691 333.382 52.9107 333.382 46.3249 341.327L31.4854 329.014C38.505 320.548 47.9834 315.891 58.1947 315.891C68.4059 315.891 77.8844 320.548 84.904 329.014L70.0548 341.327Z" fill="#EEAF4B"/>
<path d="M137.551 341.327C130.965 333.382 120.407 333.382 113.821 341.327L98.9814 329.014C106.001 320.548 115.48 315.891 125.691 315.891C135.902 315.891 145.38 320.548 152.4 329.014L137.551 341.327Z" fill="#EEAF4B"/>
<path d="M166.478 312.4C159.892 304.455 149.334 304.455 142.748 312.4L127.909 300.087C134.928 291.621 144.407 286.964 154.618 286.964C164.829 286.964 174.308 291.621 181.327 300.087L166.478 312.4Z" fill="#EEAF4B"/>
<path d="M89.3395 312.4C82.7537 304.455 72.1953 304.455 65.6096 312.4L50.77 300.087C57.7897 291.621 67.2681 286.964 77.4794 286.964C87.6906 286.964 97.1691 291.621 104.189 300.087L89.3395 312.4Z" fill="#EEAF4B"/>
<path d="M503.071 19.0996L500.406 0L85.7824 57.8564L88.4476 76.956L503.071 19.0996Z" fill="#AF7F58"/>
<path d="M157.436 503.146C66.4119 489.068 48.4771 373.745 48.4771 373.745C76.1024 387.727 99.5141 400.426 108.24 421.513C139.337 423.133 155.748 433.142 150.512 462.812C234.285 482.559 231.296 497.91 207.817 509.664C192.871 508.208 157.436 503.146 157.436 503.146Z" fill="#EDEDED"/>
</svg>
