<svg width="513" height="512" viewBox="0 0 513 512" fill="none" xmlns="http://www.w3.org/2000/svg">
<path d="M335.465 162.394L349.626 176.555C374.578 201.508 415.399 201.508 440.351 176.555L493.285 123.621C518.238 98.6686 518.238 57.8485 493.285 32.8958L479.124 18.7346C454.171 -6.21816 413.351 -6.21816 388.398 18.7346L335.465 71.6258C310.512 96.5785 310.512 137.441 335.465 162.394ZM380.55 123.963C367.285 110.697 367.413 88.8155 380.849 75.3794L409.384 46.8437C422.82 33.4076 444.702 33.2797 457.967 46.5451L465.517 54.0949C478.783 67.3604 478.655 89.242 465.219 102.678L436.683 131.214C423.247 144.65 401.365 144.778 388.1 131.512L380.55 123.963Z" fill="#2B2B2B"/>
<path d="M71.7324 335.401L18.7985 388.334C-6.1542 413.287 -6.1542 454.107 18.7985 479.06L32.9597 493.221C57.9125 518.174 98.7325 518.174 123.685 493.221L176.619 440.287C201.572 415.335 201.572 374.514 176.619 349.562L162.458 335.401C137.505 310.448 96.6851 310.448 71.7324 335.401ZM131.576 387.993C144.842 401.259 144.714 423.14 131.278 436.576L102.742 465.112C89.306 478.548 67.4243 478.676 54.1589 465.411L46.6091 457.861C33.3436 444.595 33.4716 422.714 46.9077 409.278L75.4433 380.742C88.8794 367.306 110.761 367.178 124.027 380.443L131.576 387.993Z" fill="#2B2B2B"/>
<path d="M256.043 510.836C396.797 510.836 510.902 396.731 510.902 255.977C510.902 115.222 396.797 1.11768 256.043 1.11768C115.288 1.11768 1.18359 115.222 1.18359 255.977C1.18359 396.731 115.288 510.836 256.043 510.836Z" fill="url(#paint0_radial_1131_405)"/>
<g opacity="0.2">
<path d="M433.783 8.54061C448.712 8.54061 462.659 14.2989 473.11 24.7492L487.271 38.9104C508.982 60.6214 508.982 95.8965 487.271 117.565L474.859 129.977C472.214 132.622 471.617 136.717 473.366 140.044C492.304 175.489 502.328 215.584 502.328 255.978C502.328 391.789 391.811 502.306 256 502.306C215.606 502.306 175.511 492.282 140.066 473.344C138.786 472.661 137.421 472.32 136.056 472.32C133.838 472.32 131.663 473.173 130.042 474.837L117.63 487.249C107.179 497.699 93.1886 503.458 78.3023 503.458C63.416 503.458 49.4254 497.699 38.9751 487.249L24.8139 473.088C3.10292 451.377 3.10292 416.102 24.8139 394.433L37.2263 382.021C39.8709 379.376 40.468 375.282 38.7192 371.955C19.7807 336.509 9.75698 296.414 9.75698 256.02C9.75698 120.209 120.274 9.69227 256.085 9.69227C296.479 9.69227 336.574 19.716 372.019 38.6545C373.299 39.337 374.664 39.6782 376.029 39.6782C378.247 39.6782 380.422 38.8251 382.043 37.1616L394.455 24.7492C404.906 14.2989 418.854 8.54061 433.783 8.54061ZM461.977 114.451C464.238 114.451 466.413 113.555 467.991 111.934L471.19 108.735C479.295 100.631 483.773 89.8396 483.859 78.4082C483.944 66.8916 479.551 56.1427 471.489 48.0811L463.939 40.5313C455.963 32.5549 445.257 28.1616 433.868 28.1616C422.309 28.1616 411.432 32.6402 403.285 40.8299L400.086 44.0289C398.337 45.7777 397.441 48.2517 397.612 50.7256C397.825 53.1996 399.062 55.5029 401.067 56.9532C421.797 72.0528 439.967 90.2234 455.067 110.953C456.517 112.958 458.821 114.238 461.295 114.408C461.551 114.408 461.764 114.451 461.977 114.451ZM78.217 483.837C89.7763 483.837 100.653 479.358 108.8 471.168L111.999 467.969C113.748 466.22 114.644 463.746 114.473 461.273C114.26 458.799 113.023 456.495 111.018 455.045C90.2882 439.945 72.1175 421.775 57.0179 401.045C55.5676 399.04 53.2643 397.76 50.7903 397.59C50.5771 397.59 50.3638 397.547 50.1505 397.547C47.8899 397.547 45.7145 398.443 44.1363 400.064L40.9372 403.263C32.8329 411.367 28.3542 422.159 28.2689 433.59C28.1836 445.107 32.577 455.855 40.6386 463.917L48.1884 471.467C56.1221 479.443 66.7857 483.837 78.217 483.837ZM433.783 0.00976562C417.318 0.00976562 400.896 6.23728 388.398 18.735L375.986 31.1473C340.242 11.9956 299.422 1.11877 256.042 1.11877C115.284 1.11877 1.18348 115.219 1.18348 255.978C1.18348 299.357 12.0603 340.177 31.1694 375.921L18.757 388.334C-6.1957 413.287 -6.1957 454.107 18.757 479.059L32.9182 493.221C45.3733 505.676 61.8378 511.946 78.3023 511.946C94.7668 511.946 111.189 505.718 123.686 493.221L136.099 480.808C171.843 499.917 212.663 510.794 256.042 510.794C396.801 510.794 510.901 396.694 510.901 255.935C510.901 212.556 500.025 171.736 480.916 135.991L493.328 123.579C518.281 98.6263 518.281 57.8062 493.328 32.8535L479.167 18.6923C466.669 6.23728 450.204 0.00976562 433.783 0.00976562ZM461.977 105.92C446.366 84.5504 427.512 65.6546 406.1 50.0432L409.299 46.8441C416.081 40.0621 424.996 36.6924 433.868 36.6924C442.612 36.6924 451.313 39.9768 457.925 46.5882L465.475 54.138C478.74 67.4034 478.612 89.2851 465.176 102.721L461.977 105.92ZM78.217 475.306C69.4729 475.306 60.7714 472.021 54.16 465.41L46.6102 457.86C33.3448 444.595 33.4727 422.713 46.9088 409.277L50.1079 406.078C65.7193 427.49 84.5725 446.344 105.985 461.955L102.786 465.154C96.0038 471.893 87.0891 475.306 78.217 475.306Z" fill="#EEEEEE"/>
</g>
<path d="M489.36 255.893C489.36 257.812 488.976 259.817 488.933 261.694C488.891 263.613 482.749 265.319 482.621 267.196C482.535 269.115 486.502 271.248 486.374 273.168C486.246 275.087 485.777 277.006 485.606 278.883C485.436 280.803 488.166 283.063 487.91 284.983C487.654 286.902 481.682 288.011 481.426 289.931C481.128 291.807 480.147 293.556 479.805 295.433C479.464 297.31 478.014 298.931 477.63 300.765C477.246 302.642 478.355 304.774 477.929 306.608C477.502 308.485 479.422 310.874 478.952 312.751C478.483 314.585 475.412 315.736 474.9 317.571C474.388 319.405 473.621 321.111 473.066 322.945C472.512 324.779 476.99 328.234 476.393 330.026C475.796 331.817 474.559 333.523 473.919 335.315C473.279 337.106 467.521 336.978 466.839 338.77C466.156 340.561 471.573 344.827 470.805 346.576C470.08 348.324 467.052 349.177 466.241 350.884C465.474 352.632 466.284 355.192 465.474 356.898C464.663 358.604 460.227 358.604 459.374 360.31C458.521 362.016 458.052 363.893 457.113 365.599C456.218 367.263 455.876 369.31 454.938 370.931C454 372.595 452.421 373.874 451.398 375.495C450.417 377.116 447.687 377.628 446.62 379.206C445.597 380.827 450.075 386.116 448.966 387.694C447.9 389.272 443.976 388.931 442.867 390.509C441.758 392.045 440.478 393.538 439.327 395.031C438.175 396.566 437.109 398.144 435.914 399.637C434.72 401.13 431.734 401.13 430.497 402.58C429.26 404.031 432.161 409.064 430.881 410.514C429.601 411.964 427.895 413.116 426.616 414.481C425.336 415.889 421.071 414.524 419.748 415.889C418.426 417.254 417.573 419.13 416.208 420.453C414.843 421.775 412.838 422.457 411.473 423.737C410.066 425.017 407.635 425.102 406.184 426.382C404.734 427.661 402.516 427.874 401.066 429.069C399.616 430.306 400.554 434.443 399.061 435.638C397.568 436.832 394.326 435.723 392.791 436.874C391.255 438.026 393.857 444.766 392.322 445.875C390.786 446.984 389.037 448.05 387.459 449.116C385.881 450.183 382.426 448.562 380.848 449.585C379.227 450.609 379.355 454.533 377.734 455.514C376.113 456.495 371.421 452.443 369.758 453.424C368.094 454.363 369.032 459.95 367.326 460.889C365.663 461.785 362.037 459.183 360.374 460.036C358.667 460.889 358.667 465.24 356.919 466.05C355.212 466.86 350.99 462.382 349.241 463.192C347.492 463.96 346.298 465.837 344.506 466.562C342.757 467.287 340.07 465.666 338.321 466.349C336.53 467.031 337.468 474.837 335.677 475.519C333.885 476.159 331.966 476.799 330.174 477.396C328.383 477.993 324.928 473.685 323.094 474.282C321.26 474.837 320.833 480.254 318.999 480.766C317.165 481.278 313.582 475.349 311.748 475.818C309.914 476.287 309.018 480.595 307.141 481.022C305.264 481.448 303.601 482.856 301.724 483.24C299.847 483.624 298.269 485.884 296.392 486.225C294.515 486.567 292.425 486.055 290.506 486.353C288.629 486.652 285.985 481.405 284.065 481.661C282.188 481.875 280.184 480.424 278.264 480.638C276.387 480.808 274.852 484.903 272.932 485.074C271.013 485.202 268.966 481.875 267.046 481.96C265.127 482.045 263.378 485.159 261.458 485.202C259.539 485.244 257.662 485.031 255.743 485.031C253.823 485.031 251.861 487.633 249.984 487.59C248.065 487.548 246.146 486.609 244.269 486.524C242.349 486.439 240.814 481.064 238.894 480.894C236.975 480.766 234.629 486.225 232.752 486.055C230.833 485.884 229.34 482.259 227.463 482.003C225.544 481.747 222.984 486.353 221.108 486.097C219.231 485.799 218.122 480.552 216.245 480.211C214.368 479.87 212.449 480.041 210.572 479.657C208.695 479.273 205.965 482.856 204.089 482.429C202.212 482.003 200.207 481.832 198.373 481.363C196.539 480.894 195.43 477.481 193.596 476.969C191.761 476.458 189.671 476.671 187.88 476.116C186.046 475.562 184.169 475.093 182.378 474.453C180.586 473.856 178.624 473.514 176.832 472.875C175.041 472.235 172.567 473.173 170.818 472.491C169.027 471.808 167.491 470.358 165.742 469.633C163.994 468.908 164.505 463.022 162.757 462.211C161.008 461.443 157.851 463.789 156.145 462.979C154.439 462.168 153.458 459.865 151.752 459.012C150.046 458.159 147.913 458.159 146.249 457.221C144.586 456.325 144.159 453.211 142.496 452.273C140.832 451.334 136.055 455.6 134.434 454.619C132.813 453.638 132.174 450.908 130.595 449.884C128.974 448.86 129.401 444.808 127.823 443.699C126.245 442.633 120.913 446.898 119.335 445.747C117.799 444.638 117.415 441.78 115.88 440.628C114.344 439.476 114.387 436.277 112.894 435.083C111.401 433.889 111.188 431.201 109.737 429.964C108.287 428.728 103.638 431.201 102.23 429.922C100.78 428.642 101.164 425.358 99.7563 424.078C98.3487 422.799 94.8937 423.609 93.5288 422.287C92.1639 420.964 93.9553 416.443 92.5904 415.078C91.2681 413.713 86.6188 415.462 85.3392 414.054C84.0596 412.647 84.4435 409.661 83.2065 408.211C81.9269 406.761 81.7562 404.415 80.5193 402.964C79.2823 401.514 79.9648 398.528 78.7704 397.035C77.5761 395.543 70.8794 398.358 69.7277 396.822C68.5761 395.287 72.0311 390.339 70.9221 388.803C69.8131 387.268 70.4955 384.538 69.4292 382.96C68.3628 381.381 61.6661 383.557 60.5997 381.978C59.576 380.358 62.0073 376.561 61.0263 374.941C60.0452 373.32 54.7561 374.215 53.7751 372.552C52.8367 370.888 55.6945 367.05 54.7988 365.386C53.903 363.722 50.3201 363.424 49.4243 361.718C48.5712 360.012 48.3153 357.964 47.4622 356.258C46.6518 354.552 46.9077 352.291 46.14 350.542C45.3722 348.794 43.794 347.386 43.0689 345.637C42.3437 343.888 39.23 342.993 38.5475 341.244C37.865 339.452 42.2158 335.741 41.5333 333.95C40.8935 332.158 36.5428 331.646 35.9029 329.855C35.3058 328.064 33.0025 326.699 32.448 324.864C31.8934 323.03 36.0736 319.789 35.5617 317.955C35.0499 316.12 34.666 314.286 34.1968 312.409C33.7276 310.575 31.083 309.21 30.6565 307.376C30.2299 305.499 28.5238 303.879 28.1825 302.002C27.7986 300.125 29.8034 297.779 29.5048 295.902C29.1636 294.025 31.6375 291.722 31.3816 289.845C31.083 287.969 30.102 286.22 29.846 284.343C29.6328 282.466 30.102 280.547 29.9314 278.627C29.7181 276.623 28.6091 274.831 28.4385 272.954C28.3105 271.035 30.4006 269.073 30.3152 267.153C30.2299 265.234 23.192 263.613 23.1493 261.694C23.1067 259.774 22.2109 257.812 22.2109 255.893C22.2109 253.973 25.538 252.054 25.5806 250.134C25.6233 248.215 28.9503 246.466 29.0356 244.547C29.1209 242.627 29.0356 240.793 29.1636 238.874C29.2915 236.954 26.0925 234.779 26.2631 232.902C26.4337 230.983 29.4195 229.404 29.6328 227.528C29.8887 225.608 30.9977 223.902 31.2536 222.025C31.5522 220.148 31.3816 218.229 31.7228 216.352C32.0641 214.475 33.5996 212.897 33.9835 211.02C34.3674 209.144 28.865 206.03 29.2489 204.153C29.6754 202.276 28.5664 199.973 29.0356 198.139C29.5048 196.305 34.9646 195.75 35.4764 193.873C35.9883 192.039 33.3863 189.267 33.9408 187.433C34.4954 185.598 38.8034 184.959 39.4006 183.167C39.9978 181.376 39.6992 179.243 40.3816 177.452C41.0215 175.66 39.6992 173.101 40.4243 171.309C41.1068 169.518 43.0689 168.238 43.794 166.489C44.5191 164.741 46.993 163.717 47.7608 162.011C48.5286 160.262 50.7466 159.238 51.557 157.532C52.3675 155.826 52.1969 153.65 53.0926 151.944C53.9457 150.238 54.159 148.233 55.0973 146.57C55.9931 144.906 57.5713 143.627 58.5097 141.963C59.4481 140.3 57.5286 136.973 58.5523 135.309C59.5334 133.688 64.7798 134.755 65.8036 133.134C66.8273 131.513 65.5476 128.442 66.614 126.864C67.6803 125.285 68.7467 123.707 69.8557 122.172C70.9647 120.636 68.2348 116.2 69.4292 114.664C70.5808 113.129 73.8652 113.214 75.0595 111.721C76.2538 110.228 75.87 107.371 77.1069 105.92C78.3439 104.47 80.306 103.532 81.5856 102.124C82.8652 100.674 84.0169 99.0957 85.3392 97.6881C86.6188 96.2805 89.3913 96.1952 90.7136 94.8303C92.0359 93.4653 92.4624 91.1194 93.8274 89.7971C95.1923 88.4748 97.7942 88.3895 99.2018 87.1099C100.609 85.8302 103.211 85.8729 104.662 84.6359C106.112 83.3563 105.856 80.1572 107.306 78.9203C108.756 77.6833 112.041 78.6643 113.534 77.47C115.027 76.2757 116.136 74.6548 117.628 73.5032C119.164 72.3515 120.785 71.4131 122.363 70.3041C123.899 69.1951 126.671 69.9202 128.249 68.8112C129.828 67.7448 130.809 65.8681 132.387 64.8444C134.008 63.8207 134.647 61.3894 136.311 60.3657C137.932 59.3846 138.23 56.1002 139.894 55.1619C141.557 54.2235 144.458 55.4604 146.121 54.522C147.785 53.6263 148.297 50.4699 150.003 49.5741C151.709 48.7211 154.738 50.4699 156.444 49.6168C158.15 48.8064 160.411 49.1903 162.159 48.4225C163.908 47.6547 164.164 43.4746 165.913 42.7495C167.662 42.0244 170.434 43.6879 172.226 43.0054C174.017 42.3229 176.534 43.7305 178.325 43.0907C180.117 42.4509 181.524 40.958 183.359 40.3182C185.15 39.721 186.003 36.1381 187.837 35.5836C189.671 35.0291 192.103 36.6073 193.937 36.0954C195.771 35.5836 197.434 34.5172 199.269 34.048C201.103 33.5788 202.425 30.8916 204.302 30.4651C206.179 30.0385 208.695 32.8537 210.572 32.4698C212.449 32.0859 213.728 28.6309 215.605 28.2897C217.482 27.9485 219.7 29.612 221.577 29.356C223.454 29.0575 224.861 24.8774 226.738 24.6214C228.615 24.4082 231.259 30.6357 233.136 30.4651C235.013 30.2944 236.676 27.4366 238.553 27.3086C240.473 27.1807 242.307 26.4982 244.226 26.4129C246.146 26.3276 248.065 27.5219 249.984 27.4366C251.904 27.394 253.781 25.5598 255.7 25.5598C257.62 25.5598 259.411 30.2944 261.331 30.3371C263.25 30.3797 265.169 27.6072 267.089 27.7352C269.008 27.8205 271.269 22.4461 273.188 22.574C275.108 22.702 277.07 23.2565 278.947 23.4271C280.866 23.5977 282.444 27.0954 284.321 27.3513C286.241 27.6072 288.544 25.1333 290.421 25.3892C292.298 25.6878 293.662 29.5693 295.539 29.8679C297.416 30.2091 299.762 28.2044 301.639 28.5883C303.516 28.9722 304.113 35.1144 305.989 35.5409C307.866 35.9675 310.767 31.958 312.601 32.4272C314.435 32.8963 316.525 32.6831 318.359 33.1949C320.193 33.7068 321.132 37.3324 322.923 37.8869C324.757 38.4414 327.956 34.7305 329.791 35.3276C331.625 35.9248 332.264 39.9343 334.056 40.5741C335.847 41.2139 336.786 44.0718 338.535 44.7542C340.326 45.4367 343.696 42.195 345.445 42.9201C347.193 43.6452 349.838 42.4935 351.587 43.304C353.336 44.0718 352.909 49.5315 354.658 50.3419C356.364 51.1524 358.198 51.7495 359.904 52.6026C361.611 53.4557 363.274 54.3514 364.938 55.2472C366.601 56.1429 367.454 58.4036 369.118 59.3846C370.781 60.323 373.426 59.5552 375.047 60.5363C376.668 61.5173 379.781 60.1951 381.402 61.2188C383.023 62.2425 385.454 62.1571 387.033 63.2235C388.611 64.2899 388.952 67.233 390.488 68.342C392.023 69.451 394.71 69.1098 396.246 70.3041C397.781 71.4558 398.037 74.3136 399.53 75.5079C401.023 76.7022 404.009 76.1477 405.459 77.3847C406.909 78.6217 403.54 85.4464 404.947 86.726C406.398 88.0056 410.279 86.4701 411.644 87.7497C413.052 89.0293 414.672 90.0957 416.037 91.4606C417.402 92.7829 416.635 96.1952 417.957 97.5601C419.279 98.9251 422.222 98.7118 423.502 100.119C424.782 101.527 428.663 100.631 429.9 102.082C431.18 103.532 433.654 104.001 434.848 105.494C436.085 106.944 432.331 112.532 433.526 114.025C434.72 115.518 439.838 113.982 440.99 115.475C442.142 117.01 441.331 119.996 442.44 121.574C443.549 123.11 441.886 126.565 442.952 128.143C444.019 129.721 447.943 129.38 448.966 130.958C449.99 132.579 447.9 136.12 448.881 137.74C449.862 139.361 457.284 137.186 458.222 138.849C459.161 140.513 453.317 146.015 454.213 147.679C455.109 149.342 456.943 150.451 457.839 152.158C458.692 153.864 465.516 152.627 466.327 154.333C467.137 156.039 460.867 161.115 461.635 162.864C462.403 164.613 469.142 163.717 469.867 165.508C470.592 167.257 466.796 170.883 467.478 172.674C468.161 174.466 472.81 174.722 473.493 176.513C474.132 178.305 473.962 180.437 474.559 182.271C475.156 184.063 473.834 186.537 474.388 188.328C474.943 190.162 473.279 192.594 473.791 194.428C474.303 196.262 477.758 197.286 478.227 199.12C478.696 200.954 476.18 203.513 476.606 205.347C477.033 207.224 482.877 207.907 483.26 209.783C483.644 211.66 477.843 214.646 478.185 216.565C478.526 218.442 481.085 219.892 481.384 221.769C481.682 223.646 485.649 225.054 485.905 226.93C486.118 228.807 488.038 230.599 488.251 232.518C488.422 234.395 481.896 236.911 482.023 238.831C482.151 240.75 482.919 242.542 483.005 244.461C483.09 246.381 489.232 248.087 489.317 250.006C489.445 251.968 489.36 253.973 489.36 255.893Z" fill="url(#paint1_radial_1131_405)"/>
<path d="M70.8801 230.896C70.8801 230.896 138.316 282.679 139.255 285.75C140.193 288.821 105.558 321.195 72.1597 291.252C43.3255 265.489 68.0649 231.579 70.8801 230.896Z" fill="#FCDA00"/>
<path d="M71.8175 232.561C71.8175 232.561 137.036 281.57 137.974 284.428C138.913 287.286 106.709 316.248 74.3341 288.054C46.4382 263.741 69.1729 233.115 71.8175 232.561Z" fill="#FFF59D"/>
<path d="M92.8901 259.006L68.0227 260.627C66.1033 260.755 64.4824 259.304 64.3545 257.385C64.1412 254.314 64.3118 249.75 66.3166 245.74C67.8948 242.627 69.3877 240.366 70.582 238.788C71.7337 237.252 73.909 236.996 75.4019 238.148L94.7669 252.821C97.2835 254.74 96.0892 258.793 92.8901 259.006Z" fill="url(#paint2_linear_1131_405)"/>
<path d="M80.3907 286.901C80.3907 286.901 75.1869 284.47 70.7082 278.328C68.0636 274.702 67.4238 270.65 67.3385 267.963C67.2959 266.214 68.4902 264.721 70.1963 264.422L94.8078 260.157C97.9642 259.602 100.097 263.271 98.0922 265.745L80.9026 286.986L80.3907 286.901Z" fill="url(#paint3_linear_1131_405)"/>
<path d="M85.2976 292.404C87.9421 294.792 93.2739 297.949 102.871 296.755C104.62 296.541 105.942 294.963 105.857 293.172L104.833 272.1C104.663 268.901 100.653 267.622 98.691 270.138L84.9137 287.712C83.8047 289.162 83.9326 291.209 85.2976 292.404Z" fill="url(#paint4_linear_1131_405)"/>
<path d="M106.624 272.783L109.098 292.233C109.396 294.451 111.487 295.944 113.662 295.39C117.757 294.409 124.411 292.148 130.852 287.158C132.814 285.665 132.856 282.722 130.894 281.186L114.259 268.347C110.889 265.83 106.069 268.56 106.624 272.783Z" fill="url(#paint5_linear_1131_405)"/>
<path d="M352.483 373.106C352.483 373.106 393.986 276.238 397.398 274.191C400.811 272.143 450.29 303.75 424.612 353.058C402.474 395.542 354.19 376.262 352.483 373.106Z" fill="#FCDA00"/>
<path d="M354.233 371.398C354.233 371.398 393.091 278.071 396.205 276.066C399.361 274.061 444.02 303.834 420.048 351.393C399.446 392.341 355.726 374.427 354.233 371.398Z" fill="#FFF59D"/>
<path d="M379.527 338.044L389.124 367.432C389.849 369.693 388.612 372.082 386.352 372.85C382.726 374.044 377.181 375.238 371.764 374.044C367.541 373.105 364.342 371.996 362.124 371.058C359.949 370.162 358.925 367.646 359.863 365.47L371.508 337.745C373.043 334.077 378.29 334.29 379.527 338.044Z" fill="url(#paint6_linear_1131_405)"/>
<path d="M416.807 344.443C416.807 344.443 415.485 351.395 409.47 358.689C405.93 362.997 401.281 365.002 398.082 365.898C395.992 366.495 393.816 365.514 392.963 363.552L380.295 335.315C378.674 331.689 382.428 327.978 386.011 329.642L416.764 343.846L416.807 344.443Z" fill="url(#paint7_linear_1131_405)"/>
<path d="M421.924 336.935C424.014 333.053 426.147 325.674 421.754 314.499C420.943 312.451 418.64 311.385 416.55 312.025L391.555 319.703C387.758 320.854 387.46 326.101 391.085 327.679L416.422 338.854C418.512 339.707 420.901 338.897 421.924 336.935Z" fill="url(#paint8_linear_1131_405)"/>
<path d="M391.854 317.313L414.461 308.356C417.02 307.332 418.172 304.347 416.892 301.915C414.461 297.309 409.684 290.015 401.75 283.787C399.319 281.91 395.779 282.721 394.584 285.536L384.262 309.465C382.129 314.328 386.949 319.276 391.854 317.313Z" fill="url(#paint9_linear_1131_405)"/>
<path d="M415.398 155.74C415.398 155.74 320.535 129.38 318.189 126.48C315.843 123.579 338.962 73.8017 387.843 91.4605C429.943 106.645 418.128 153.778 415.398 155.74Z" fill="#FCDA00"/>
<path d="M413.65 154.332C413.65 154.332 322.37 129.977 320.109 127.332C317.848 124.688 339.858 79.6021 386.906 95.8107C427.384 109.844 416.252 152.583 413.65 154.332Z" fill="#FFF59D"/>
<path d="M379.568 135.095L405.587 122.555C407.592 121.574 409.98 122.427 410.919 124.431C412.454 127.631 414.288 132.621 413.862 137.782C413.521 141.792 412.881 144.905 412.326 147.081C411.772 149.214 409.554 150.451 407.421 149.896L380.25 142.559C376.667 141.578 376.241 136.673 379.568 135.095Z" fill="url(#paint10_linear_1131_405)"/>
<path d="M380.849 99.7349C380.849 99.7349 387.46 100.119 394.967 104.768C399.403 107.498 401.835 111.55 403.072 114.408C403.882 116.242 403.242 118.417 401.536 119.441L376.967 134.669C373.811 136.631 369.929 133.602 370.996 130.062L380.294 99.8202L380.849 99.7349Z" fill="url(#paint11_linear_1131_405)"/>
<path d="M373.213 95.9391C369.332 94.4889 362.251 93.4225 352.441 98.8823C350.649 99.906 349.924 102.167 350.82 104.001L361.014 126.181C362.55 129.551 367.455 129.167 368.479 125.626L375.645 100.759C376.242 98.7543 375.175 96.6642 373.213 95.9391Z" fill="url(#paint12_linear_1131_405)"/>
<path d="M358.838 126.267L347.748 106.432C346.511 104.214 343.568 103.489 341.478 104.982C337.511 107.84 331.369 113.129 326.549 121.276C325.099 123.75 326.293 126.949 329.066 127.717L352.483 134.286C357.26 135.608 361.227 130.532 358.838 126.267Z" fill="url(#paint13_linear_1131_405)"/>
<path d="M220.553 180.011C215.819 177.537 210.018 177.366 204.899 178.902C200.975 180.096 197.264 182.314 194.705 185.513C192.146 188.712 190.738 192.978 191.42 197.03C192.274 202.362 196.582 206.798 201.743 208.418C206.861 210.082 212.62 209.144 217.397 206.584C228.444 200.613 234.459 187.305 220.553 180.011ZM213.729 200.229C211.297 201.551 208.354 202.02 205.752 201.167C203.15 200.314 200.932 198.053 200.506 195.324C200.165 193.234 200.89 191.101 202.212 189.437C203.534 187.774 205.411 186.665 207.416 186.068C210.06 185.257 213.004 185.342 215.435 186.622C222.473 190.376 219.402 197.158 213.729 200.229Z" fill="black"/>
<path d="M359.094 305.797C354.36 303.323 348.559 303.152 343.44 304.688C339.516 305.882 335.805 308.1 333.246 311.299C330.687 314.498 329.279 318.764 329.961 322.816C330.815 328.148 335.123 332.584 340.284 334.205C345.402 335.868 351.161 334.93 355.938 332.37C366.943 326.356 372.957 313.048 359.094 305.797ZM352.227 325.972C349.796 327.295 346.853 327.764 344.251 326.911C341.649 326.058 339.431 323.797 339.004 321.067C338.663 318.977 339.388 316.844 340.71 315.181C342.033 313.56 343.909 312.408 345.914 311.811C348.559 311.001 351.502 311.086 353.933 312.366C360.971 316.119 357.9 322.944 352.227 325.972Z" fill="black"/>
<path d="M235.397 65.8672C230.662 63.3932 224.861 63.2226 219.743 64.7582C215.819 65.9525 212.108 68.1705 209.549 71.3696C206.989 74.5686 205.582 78.8341 206.264 82.8862C207.117 88.218 211.425 92.654 216.587 94.2749C221.705 95.9384 227.463 95 232.241 92.4407C243.245 86.4265 249.26 73.1184 235.397 65.8672ZM228.53 86.0426C226.098 87.3649 223.155 87.8341 220.553 86.981C217.952 86.1279 215.733 83.8673 215.307 81.1374C214.966 79.0473 215.691 76.9146 217.013 75.2511C218.335 73.6302 220.212 72.4786 222.217 71.8814C224.819 71.1136 227.762 71.1989 230.193 72.4786C237.274 76.1895 234.203 83.0142 228.53 86.0426Z" fill="black"/>
<path d="M391.085 160.773C390.403 155.526 386.308 151.005 381.275 149.256C376.284 147.507 370.569 148.232 365.834 150.621C354.744 156.209 348.431 169.09 361.91 176.64C366.517 179.242 372.19 179.541 377.266 178.176C381.147 177.109 384.858 175.062 387.46 171.991C390.104 168.92 391.597 164.782 391.085 160.773ZM380.294 167.896C378.972 169.474 377.052 170.498 375.09 171.052C372.488 171.777 369.588 171.607 367.242 170.285C360.374 166.403 363.573 159.834 369.247 156.976C371.678 155.739 374.578 155.398 377.138 156.294C379.697 157.19 381.787 159.493 382.128 162.18C382.384 164.228 381.616 166.318 380.294 167.896Z" fill="black"/>
<path d="M148.809 318.595C137.847 309.424 121.34 308.614 119.463 326.315C118.823 332.372 121.084 338.514 124.838 343.292C127.738 346.917 131.577 349.903 136.056 351.268C140.492 352.633 145.568 352.334 149.535 349.946C154.781 346.832 157.681 340.434 157.255 334.334C156.871 328.192 153.501 322.519 148.809 318.595ZM143.989 341.031C141.942 342.225 139.383 342.396 137.079 341.713C134.819 341.031 132.814 339.495 131.364 337.619C129.444 335.187 128.293 332.031 128.591 328.96C129.53 319.917 137.975 320.344 143.563 325.036C145.952 327.04 147.7 329.941 147.871 333.055C148.17 336.168 146.677 339.453 143.989 341.031Z" fill="black"/>
<path d="M58.6818 218.655C56.2505 199.248 83.2933 178.049 117.331 194.087C151.369 210.125 194.066 236.57 189.972 250.689C185.877 264.807 66.5302 281.314 58.6818 218.655Z" fill="url(#paint14_linear_1131_405)"/>
<path d="M83.208 234.396C86.9189 237.296 91.4829 239.429 95.8337 241.092C105.175 244.718 114.644 247.832 124.241 250.519C131.237 252.481 148.554 254.486 158.749 250.434C132.346 246.808 105.388 246.467 83.208 234.396Z" fill="#EE9565"/>
<path d="M79.8818 231.196C80.8629 232.348 81.9719 233.414 83.2089 234.395C105.389 246.424 132.389 246.808 158.707 250.433C159.261 250.22 159.773 249.964 160.285 249.708C133.711 243.267 103.981 244.675 79.8818 231.196Z" fill="#BA6E4C"/>
<path d="M109.484 205.347C101.934 203.939 93.9578 203.214 87.0052 206.029C80.0526 208.844 74.5928 216.181 76.0431 223.816C76.5976 226.674 77.9625 229.063 79.8393 231.195C103.982 244.674 135.844 239.044 160.285 249.707C165.958 246.807 168.688 241.56 164.423 232.56C161.522 226.375 155.38 222.409 149.366 219.252C136.783 212.641 123.304 207.906 109.484 205.347Z" fill="#F6A67D"/>
<path d="M276.389 47.3991C297.929 42.7071 324.418 70.9442 309.873 110.698C295.327 150.452 269.948 201.04 253.654 197.883C237.36 194.727 206.863 62.5413 276.389 47.3991Z" fill="url(#paint15_linear_1131_405)"/>
<path d="M261.161 76.4897C258.304 80.9258 256.342 86.3002 254.891 91.2908C251.778 102.125 249.218 113.044 247.171 124.092C245.678 132.111 245.166 151.774 250.754 162.779C252.204 132.879 249.901 102.594 261.161 76.4897Z" fill="#EE9565"/>
<path d="M264.404 72.4365C263.21 73.6735 262.101 74.9958 261.163 76.4887C249.902 102.593 252.205 132.878 250.755 162.778C251.053 163.375 251.395 163.93 251.736 164.484C256.343 134.072 251.736 100.887 264.404 72.4365Z" fill="#BA6E4C"/>
<path d="M296.394 103.063C297.204 94.4473 297.204 85.4473 293.365 77.9401C289.484 70.433 280.74 65.0586 272.337 67.4472C269.223 68.3429 266.621 70.1344 264.446 72.4377C251.735 100.845 261.289 136.035 251.777 164.528C255.574 170.628 261.758 173.144 271.441 167.429C278.095 163.547 281.934 156.253 284.834 149.173C290.977 134.414 294.901 118.803 296.394 103.063Z" fill="#F6A67D"/>
<path d="M444.788 174.38C461.637 183.977 462.319 218.015 429.39 235.46C396.461 252.906 350.096 270.991 341.352 259.347C332.565 247.702 390.447 143.37 444.788 174.38Z" fill="url(#paint16_linear_1131_405)"/>
<path d="M417.702 184.445C413.223 185.64 408.787 188.028 404.906 190.46C396.503 195.706 388.356 201.336 380.55 207.351C374.877 211.701 362.934 224.242 360.119 234.735C378.673 216.009 394.967 194.853 417.702 184.445Z" fill="#EE9565"/>
<path d="M422.225 183.721C420.732 183.849 419.196 184.062 417.704 184.446C394.969 194.896 378.675 216.053 360.078 234.735C359.907 235.29 359.822 235.887 359.694 236.441C380.68 219.209 397.187 194.811 422.225 183.721Z" fill="#BA6E4C"/>
<path d="M425.126 222.537C430.713 217.376 436.045 211.49 437.922 204.324C439.799 197.158 437.282 188.456 430.329 185.087C427.77 183.807 424.998 183.508 422.225 183.679C397.187 194.769 382.727 223.39 359.737 236.4C358.628 242.627 361.187 247.874 370.869 249.878C377.481 251.243 384.306 248.727 390.362 245.869C403.116 239.855 414.889 231.964 425.126 222.537Z" fill="#F6A67D"/>
<path d="M354.488 438.155C345.957 458.33 307.867 463.705 283.895 429.112C259.924 394.519 233.307 344.913 245.208 333.524C257.066 322.093 382 373.022 354.488 438.155Z" fill="url(#paint17_linear_1131_405)"/>
<path d="M339.56 409.107C337.598 404.244 334.356 399.595 331.115 395.543C324.077 386.841 316.655 378.438 308.892 370.505C303.219 364.704 287.565 353.016 275.408 351.268C298.868 369.566 324.802 385.007 339.56 409.107Z" fill="#EE9565"/>
<path d="M341.011 414.098C340.669 412.435 340.243 410.771 339.603 409.108C324.845 385.008 298.911 369.524 275.408 351.226C274.726 351.14 274.086 351.055 273.446 351.055C295.541 372.254 325.186 387.525 341.011 414.098Z" fill="#BA6E4C"/>
<path d="M297.8 422.542C304.326 428.13 311.663 433.334 319.981 434.443C328.298 435.594 337.682 431.585 340.54 423.353C341.606 420.281 341.606 417.168 341.009 414.097C325.184 387.523 291.104 375.111 273.445 351.054C266.321 350.67 260.734 354.21 259.795 365.385C259.156 373.021 262.866 380.314 266.919 386.713C275.407 400.191 285.857 412.348 297.8 422.542Z" fill="#F6A67D"/>
<path d="M190.013 176.641C189.544 176.94 174.999 172.077 167.62 170.627C160.241 169.134 149.918 170.329 150.558 172.717C151.198 175.106 155.25 176.386 155.25 176.386C155.25 176.386 150.046 180.182 154.61 181.504C159.174 182.826 177.26 184.532 177.26 184.532C177.26 184.532 163.269 185.769 168.729 186.878C174.146 187.987 188.094 188.329 190.952 186.878C193.81 185.386 192.445 185.769 192.445 185.769L190.013 176.641Z" fill="#ED0000"/>
<path d="M208.015 161.073C208.015 161.073 194.237 169.775 190.526 173.102C186.815 176.429 187.157 186.325 193.768 189.054C200.379 191.784 207.972 190.633 215.052 187.007C222.133 183.381 224.692 174.595 224.692 174.595L208.015 161.073Z" fill="#ED0000"/>
<path d="M167.792 134.328C167.962 134.755 168.133 135.011 168.261 135.352C168.432 135.736 168.56 136.077 168.687 136.461C168.943 137.229 169.157 137.996 169.37 138.764C169.754 140.3 170.052 141.878 170.351 143.413C170.948 146.527 171.46 149.684 171.716 152.883L171.289 152.371C173.124 152.883 174.915 153.565 176.664 154.29C178.413 155.015 180.161 155.826 181.74 156.935L181.356 156.892L185.109 156.295C185.493 156.252 185.877 156.508 185.92 156.892C185.962 157.276 185.707 157.66 185.323 157.703L181.569 158.3C181.526 158.3 181.441 158.3 181.398 158.3L181.185 158.257C179.266 157.873 177.517 157.105 175.811 156.338C174.062 155.57 172.356 154.717 170.735 153.693L170.65 153.65C170.479 153.565 170.351 153.395 170.308 153.181C169.199 150.153 168.304 147.082 167.536 144.011C167.152 142.475 166.768 140.897 166.512 139.319C166.384 138.508 166.299 137.74 166.214 136.93C166.214 136.546 166.171 136.12 166.171 135.693C166.171 135.266 166.171 134.755 166.256 134.371C166.342 133.987 166.725 133.731 167.152 133.816C167.493 133.944 167.706 134.115 167.792 134.328Z" fill="#E53935"/>
<path d="M163.952 136.077L164.805 150.75L164.72 150.196L167.023 162.907L166.511 162.352L172.525 164.485C172.952 164.613 173.165 165.082 172.995 165.508C172.867 165.935 172.397 166.148 171.971 165.978L165.957 163.845C165.743 163.76 165.573 163.589 165.488 163.376L165.445 163.29L160.966 151.177C160.924 151.006 160.881 150.835 160.881 150.665L162.246 136.034C162.288 135.608 162.672 135.267 163.142 135.309C163.611 135.352 163.909 135.693 163.952 136.077Z" fill="#E53935"/>
<path d="M158.792 140.086C158.621 141.451 158.365 142.773 158.067 144.096C157.768 145.418 157.469 146.74 157.128 148.02C156.787 149.342 156.403 150.622 156.019 151.901C155.806 152.541 155.55 153.181 155.251 153.778C154.953 154.375 154.569 154.972 154.1 155.527V155.143C154.868 156.636 155.379 158.171 155.806 159.75C156.233 161.328 156.574 162.906 156.659 164.612C156.659 164.996 156.36 165.337 155.977 165.38C155.678 165.38 155.422 165.252 155.294 164.996C154.526 163.503 154.015 161.968 153.588 160.389C153.161 158.811 152.82 157.19 152.735 155.527V155.143C152.65 154.418 152.65 153.735 152.735 153.053C152.82 152.37 152.948 151.731 153.119 151.048C153.503 149.769 153.887 148.489 154.356 147.209C154.782 145.93 155.251 144.693 155.763 143.413C156.275 142.176 156.787 140.939 157.384 139.702C157.555 139.361 157.981 139.19 158.365 139.361C158.664 139.489 158.834 139.787 158.792 140.086Z" fill="#E53935"/>
<path d="M159.259 136.675C157.169 139.106 154.866 141.324 152.477 143.457C151.283 144.523 150.089 145.59 148.852 146.571C147.572 147.552 146.25 148.447 144.671 149.045L144.927 148.618C144.671 151.433 144.202 154.248 143.605 157.021C143.477 157.703 143.307 158.429 143.136 159.111L142.88 160.135C142.752 160.561 142.752 160.519 142.752 160.775C142.667 161.372 142.667 162.097 142.624 162.779C142.581 163.462 142.539 164.144 142.411 164.869C142.368 165.296 141.984 165.594 141.558 165.552C141.216 165.509 141.003 165.253 140.918 164.997C140.747 164.315 140.619 163.59 140.491 162.907C140.406 162.182 140.321 161.5 140.278 160.732C140.235 160.263 140.449 159.58 140.491 159.324L140.705 158.301C140.833 157.618 141.003 156.978 141.131 156.296C141.771 153.609 142.453 151.007 143.434 148.362L143.69 147.936C144.544 146.485 145.653 145.334 146.804 144.225C147.998 143.158 149.235 142.177 150.472 141.154C152.946 139.149 155.506 137.229 158.278 135.566C158.619 135.353 159.131 135.438 159.345 135.822C159.515 136.035 159.472 136.419 159.259 136.675Z" fill="#E53935"/>
<path d="M207.715 133.945C204.26 132.708 200.464 137.016 198.16 138.978C194.791 141.836 191.72 144.949 188.862 148.276C188.691 148.447 188.52 148.575 188.35 148.746C188.222 148.874 188.137 149.044 188.137 149.172C187.881 149.471 187.582 149.769 187.326 150.111C186.729 150.836 187.923 151.603 188.478 150.921C188.862 150.452 189.288 149.983 189.672 149.513C195.772 144.736 201.871 139.959 207.928 135.182C208.397 134.798 208.227 134.115 207.715 133.945Z" fill="#E53935"/>
<path d="M216.118 140.172C212.45 137.656 206.649 141.708 203.322 143.371C198.502 145.803 193.938 148.618 189.587 151.774C189.331 151.902 189.075 152.03 188.862 152.158C188.649 152.286 188.521 152.414 188.478 152.585C188.094 152.883 187.668 153.182 187.241 153.48C186.345 154.163 187.497 155.442 188.393 154.803C188.99 154.333 189.63 153.907 190.227 153.48C198.843 149.556 207.459 145.632 216.075 141.708C216.63 141.409 216.672 140.556 216.118 140.172Z" fill="#E53935"/>
<path d="M220.17 147.38C217.057 144.139 210.488 147.167 206.82 148.276C201.531 149.854 196.412 151.902 191.421 154.29C191.166 154.376 190.867 154.461 190.611 154.546C190.355 154.632 190.227 154.76 190.099 154.93C189.63 155.144 189.161 155.357 188.692 155.613C187.668 156.125 188.521 157.66 189.545 157.148C190.227 156.807 190.952 156.466 191.635 156.125C201.019 153.736 210.403 151.305 219.744 148.916C220.426 148.745 220.64 147.85 220.17 147.38Z" fill="#E53935"/>
<path d="M224.565 154.333C221.621 150.452 214.2 152.67 210.147 153.267C204.304 154.12 198.546 155.528 192.872 157.319C192.574 157.362 192.275 157.405 191.977 157.447C191.721 157.49 191.55 157.618 191.422 157.788C190.91 157.959 190.356 158.13 189.844 158.3C188.692 158.684 189.417 160.476 190.569 160.049C191.337 159.793 192.147 159.537 192.958 159.281C203.28 158.172 213.645 157.021 223.967 155.912C224.65 155.826 224.991 154.888 224.565 154.333Z" fill="#E53935"/>
<path d="M238.554 159.41C238.554 159.41 238.938 166.789 234.203 171.567C229.426 176.344 225.374 178.946 220.554 176.728C215.734 174.51 210.189 170.372 206.307 161.5L215.478 152.074L238.554 159.41Z" fill="#ED0000"/>
<path d="M245.464 141.537C245.464 141.537 245.976 160.817 241.028 161.926C236.038 162.992 214.199 153.523 214.199 153.523L217.867 144.096L245.464 141.537Z" fill="#ED0000"/>
<path d="M233.692 117.182C233.692 117.182 240.303 122.471 243.673 130.575C247.085 138.679 247.981 142.092 247.981 142.092C247.981 142.092 242.18 145.675 231.772 147.253C221.365 148.831 216.63 149.002 216.63 149.002L212.876 139.191L233.692 117.182Z" fill="#ED0000"/>
<path d="M215.351 105.11C215.351 105.11 230.067 110.655 233.65 114.281C237.19 117.907 233.18 126.949 226.185 133.39C219.19 139.831 216.375 141.196 212.792 142.177C209.209 143.158 205.199 135.821 205.199 135.821L215.351 105.11Z" fill="#ED0000"/>
<path d="M195.857 105.665C195.857 105.665 209.25 101.656 212.961 103.746C216.672 105.836 218.848 113.897 215.35 126.054C212.108 137.4 210.53 138.722 205.795 138.21C200.165 137.57 191.933 137.101 188.606 132.367C185.321 127.632 195.857 105.665 195.857 105.665Z" fill="#ED0000"/>
<path d="M195.857 105.664C195.857 105.664 199.27 117.565 195.26 126.394C191.251 135.224 182.208 139.02 152.222 141.792C121.127 144.65 111.189 140.47 111.189 140.47L113.833 136.077L103.724 136.631L108.587 131.641L102.231 131.172L128.336 119.1L115.54 118.546C115.54 118.546 144.416 110.399 161.478 107.882C178.54 105.366 186.346 105.11 195.857 105.664Z" fill="#ED0000"/>
<path d="M138.367 121.759C139.364 119.888 138.654 117.563 136.783 116.566C134.911 115.57 132.586 116.279 131.59 118.15C130.593 120.022 131.303 122.347 133.174 123.343C135.046 124.34 137.371 123.63 138.367 121.759Z" fill="black"/>
<path d="M328.47 284.258C328.385 284.77 316.357 291.296 310.94 295.22C305.48 299.145 299.977 306.609 301.94 307.633C303.902 308.656 307.186 306.822 307.186 306.822C307.186 306.822 306.504 312.538 310.172 310.363C313.84 308.187 325.911 297.353 325.911 297.353C325.911 297.353 318.233 307.249 322.243 304.348C326.252 301.448 334.997 292.576 335.764 289.803C336.532 287.031 335.935 288.14 335.935 288.14L328.47 284.258Z" fill="#ED0000"/>
<path d="M329.237 263.058C329.237 263.058 326.549 277.347 326.464 281.783C326.421 286.22 333.075 292.021 338.876 289.376C344.677 286.731 348.559 281.058 350.478 274.234C352.398 267.409 348.218 260.371 348.218 260.371L329.237 263.058Z" fill="#ED0000"/>
<path d="M287.309 273.081C287.693 273.209 287.949 273.295 288.29 273.423C288.631 273.551 288.93 273.679 289.271 273.807C289.911 274.105 290.551 274.404 291.19 274.745C292.427 275.427 293.622 276.195 294.859 276.92C297.247 278.413 299.636 279.991 301.897 281.783L301.342 281.74C302.792 280.845 304.328 280.077 305.863 279.394C307.399 278.669 308.977 278.029 310.683 277.688L310.427 277.901L312.304 275.086C312.518 274.788 312.901 274.702 313.2 274.916C313.499 275.129 313.584 275.513 313.371 275.811L311.494 278.627C311.451 278.669 311.451 278.712 311.409 278.712L311.238 278.84C309.83 279.821 308.252 280.546 306.717 281.186C305.138 281.826 303.56 282.423 301.897 282.892H301.811C301.641 282.935 301.47 282.935 301.299 282.849C298.655 281.74 296.096 280.461 293.622 279.053C292.385 278.328 291.148 277.645 289.953 276.878C289.356 276.494 288.759 276.067 288.205 275.598C287.949 275.385 287.65 275.129 287.394 274.873C287.096 274.617 286.797 274.318 286.584 274.02C286.371 273.721 286.456 273.295 286.754 273.081C286.882 273.039 287.096 272.996 287.309 273.081Z" fill="#E53935"/>
<path d="M286.113 276.664L296.222 285.024L295.838 284.726L305.563 290.953H304.881L309.914 288.309C310.255 288.138 310.682 288.266 310.895 288.607C311.066 288.948 310.938 289.375 310.596 289.588L305.563 292.233C305.35 292.318 305.137 292.318 304.966 292.275L304.881 292.233L294.26 287.797C294.089 287.754 293.961 287.626 293.876 287.541L285.132 277.73C284.876 277.432 284.876 276.963 285.174 276.707C285.43 276.408 285.814 276.408 286.113 276.664Z" fill="#E53935"/>
<path d="M285.603 282.467C286.37 283.405 287.096 284.386 287.778 285.367C288.46 286.348 289.143 287.372 289.783 288.353C290.423 289.377 291.02 290.4 291.66 291.424C291.958 291.936 292.214 292.49 292.427 293.087C292.641 293.642 292.811 294.239 292.854 294.922L292.598 294.666C294.048 295.092 295.37 295.689 296.65 296.372C297.93 297.054 299.209 297.779 300.361 298.76C300.617 298.974 300.66 299.4 300.446 299.656C300.276 299.87 300.02 299.912 299.764 299.869C298.314 299.486 296.991 298.846 295.712 298.163C294.432 297.481 293.152 296.713 292.001 295.775L291.745 295.519C291.19 295.135 290.764 294.708 290.38 294.239C289.996 293.77 289.655 293.301 289.314 292.789C288.716 291.765 288.119 290.699 287.565 289.632C287.01 288.566 286.456 287.5 285.944 286.433C285.432 285.367 284.963 284.258 284.494 283.106C284.366 282.765 284.536 282.424 284.878 282.296C285.133 282.168 285.432 282.253 285.603 282.467Z" fill="#E53935"/>
<path d="M283.641 280.078C283.939 282.935 284.025 285.793 283.982 288.651C283.939 290.059 283.939 291.509 283.811 292.917C283.683 294.324 283.47 295.732 282.916 297.139L282.788 296.713C284.494 298.59 286.029 300.594 287.48 302.684C287.863 303.196 288.205 303.708 288.546 304.263L289.058 305.073C289.271 305.414 289.228 305.372 289.399 305.542C289.74 305.969 290.209 306.395 290.636 306.865C291.062 307.334 291.489 307.76 291.873 308.272C292.129 308.571 292.086 308.997 291.788 309.253C291.574 309.424 291.276 309.466 291.02 309.338C290.465 309.04 289.911 308.699 289.399 308.357C288.887 307.974 288.375 307.632 287.863 307.163C287.565 306.907 287.224 306.353 287.053 306.182L286.498 305.457C286.157 304.945 285.816 304.433 285.475 303.964C284.11 301.917 282.83 299.869 281.679 297.651L281.551 297.225C281.124 295.774 281.039 294.367 280.996 292.917C280.996 291.509 281.124 290.059 281.209 288.651C281.423 285.793 281.721 282.978 282.276 280.163C282.361 279.779 282.702 279.566 283.086 279.608C283.385 279.566 283.598 279.779 283.641 280.078Z" fill="#E53935"/>
<path d="M311.322 246.722C308.421 248.215 308.933 253.333 308.805 256.063C308.635 259.987 308.805 263.912 309.232 267.793C309.232 268.006 309.232 268.22 309.232 268.39C309.232 268.561 309.274 268.689 309.36 268.817C309.402 269.158 309.445 269.542 309.488 269.883C309.616 270.694 310.853 270.395 310.725 269.627C310.639 269.073 310.597 268.518 310.511 268.006C311.108 261.096 311.663 254.229 312.26 247.319C312.303 246.807 311.748 246.509 311.322 246.722Z" fill="#E53935"/>
<path d="M320.536 245.015C316.654 245.911 315.801 252.138 314.863 255.337C313.54 259.944 312.602 264.679 312.005 269.456C311.92 269.712 311.877 269.925 311.792 270.181C311.749 270.394 311.749 270.565 311.834 270.693C311.792 271.12 311.706 271.589 311.664 272.015C311.578 272.996 313.114 273.039 313.199 272.058C313.284 271.375 313.37 270.736 313.455 270.053C316.142 262.034 318.787 254.015 321.474 245.996C321.645 245.442 321.09 244.887 320.536 245.015Z" fill="#E53935"/>
<path d="M327.702 246.721C323.692 246.764 321.688 252.949 320.152 255.977C317.977 260.371 316.185 264.977 314.735 269.712C314.607 269.925 314.522 270.181 314.394 270.394C314.308 270.608 314.308 270.778 314.351 270.949C314.223 271.375 314.053 271.845 313.925 272.271C313.626 273.252 315.162 273.636 315.46 272.655C315.673 271.972 315.844 271.333 316.057 270.65C320.195 263.058 324.332 255.465 328.427 247.873C328.726 247.404 328.256 246.721 327.702 246.721Z" fill="#E53935"/>
<path d="M334.91 248.085C330.559 247.659 327.488 253.844 325.441 256.872C322.455 261.223 319.853 265.83 317.592 270.607C317.422 270.82 317.294 271.076 317.123 271.289C316.995 271.503 316.953 271.673 316.995 271.844C316.782 272.27 316.569 272.74 316.355 273.166C315.886 274.19 317.507 274.787 317.934 273.763C318.232 273.081 318.573 272.398 318.872 271.759C324.417 264.294 329.962 256.872 335.507 249.408C335.934 248.939 335.507 248.171 334.91 248.085Z" fill="#E53935"/>
<path d="M346.725 242.072C346.725 242.072 351.801 246.295 352.014 252.309C352.27 258.324 351.46 262.546 347.109 264.38C342.758 266.215 336.659 267.281 328.512 264.423L327.957 252.693L346.725 242.072Z" fill="#ED0000"/>
<path d="M339.218 226.675C339.218 226.675 352.143 238.063 349.839 241.988C347.536 245.869 328.043 254.4 328.043 254.4L324.119 246.253L339.218 226.675Z" fill="#ED0000"/>
<path d="M316.142 219.55C316.142 219.55 323.607 218.441 330.986 221.171C338.365 223.901 341.137 225.351 341.137 225.351C341.137 225.351 339.943 231.323 334.654 239.086C329.365 246.849 326.592 250.048 326.592 250.048L317.891 246.55L316.142 219.55Z" fill="#ED0000"/>
<path d="M297.118 224.2C297.118 224.2 309.701 217.93 314.222 217.802C318.744 217.674 322.199 225.821 322.199 234.309C322.156 242.797 321.346 245.484 319.768 248.385C318.189 251.285 310.981 249.494 310.981 249.494L297.118 224.2Z" fill="#ED0000"/>
<path d="M285.603 237.294C285.603 237.294 291.148 226.076 294.774 224.967C298.399 223.816 304.968 227.271 310.812 236.953C316.271 245.996 316.186 247.83 312.944 250.56C309.106 253.844 303.774 258.963 298.698 258.28C293.622 257.598 285.603 237.294 285.603 237.294Z" fill="#ED0000"/>
<path d="M285.602 237.295C285.602 237.295 295.498 242.285 298.782 250.304C302.109 258.281 299.081 266.513 282.659 287.84C265.64 309.935 256.853 313.902 256.853 313.902L255.573 309.509L249.772 316.461L249.474 310.234L245.294 314.115L253.27 289.717L245.123 297.779C245.123 297.779 257.365 273.935 266.066 261.267C274.768 248.598 279.46 243.181 285.602 237.295Z" fill="#ED0000"/>
<path d="M259.085 289.017C260.866 288.402 261.812 286.459 261.196 284.678C260.581 282.896 258.638 281.951 256.856 282.567C255.075 283.182 254.13 285.125 254.745 286.907C255.361 288.688 257.304 289.633 259.085 289.017Z" fill="black"/>
<path d="M165.7 374.3C165.53 373.831 172.44 362.058 175.127 355.874C177.771 349.689 178.71 340.475 176.492 340.603C174.274 340.731 172.397 344.016 172.397 344.016C172.397 344.016 170.051 338.769 168.046 342.523C166.041 346.276 161.221 361.76 161.221 361.76C161.221 361.76 162.757 349.305 160.795 353.869C158.833 358.433 155.932 370.504 156.7 373.276C157.468 376.049 157.383 374.812 157.383 374.812L165.7 374.3Z" fill="#ED0000"/>
<path d="M175.938 392.898C175.938 392.898 170.905 379.248 168.687 375.409C166.469 371.571 157.767 369.992 154.141 375.282C150.516 380.571 150.089 387.395 151.966 394.263C153.843 401.13 161.009 405.012 161.009 405.012L175.938 392.898Z" fill="#ED0000"/>
<path d="M206.778 362.741C206.394 362.826 206.095 362.911 205.797 362.954C205.455 363.039 205.114 363.082 204.73 363.124C204.005 363.21 203.323 363.252 202.598 363.295C201.19 363.338 199.74 363.295 198.332 363.295C195.474 363.252 192.659 363.124 189.801 362.741L190.313 362.527C189.503 364.063 188.607 365.47 187.626 366.878C186.645 368.286 185.664 369.65 184.384 370.845L184.512 370.504L184.342 373.916C184.342 374.257 184.043 374.513 183.659 374.513C183.318 374.513 183.062 374.215 183.062 373.831L183.233 370.418C183.233 370.376 183.233 370.333 183.275 370.29L183.361 370.077C184.043 368.499 185.024 367.091 186.048 365.726C187.072 364.361 188.095 363.039 189.29 361.759L189.332 361.717C189.46 361.589 189.631 361.504 189.801 361.504C192.659 361.077 195.474 360.906 198.332 360.821C199.74 360.778 201.19 360.736 202.598 360.778C203.323 360.821 204.005 360.864 204.73 360.992C205.072 361.034 205.455 361.12 205.797 361.205C206.181 361.29 206.607 361.376 206.906 361.504C207.247 361.632 207.375 362.058 207.247 362.357C207.204 362.57 206.991 362.698 206.778 362.741Z" fill="#E53935"/>
<path d="M205.967 359.073L193 357.111L193.469 357.153L181.952 356.812L182.507 356.471L179.521 361.333C179.308 361.674 178.881 361.76 178.54 361.589C178.199 361.376 178.113 360.949 178.284 360.608L181.27 355.746C181.398 355.575 181.568 355.447 181.782 355.404H181.867L193.298 353.741C193.469 353.698 193.64 353.741 193.768 353.783L206.308 357.708C206.692 357.836 206.905 358.22 206.777 358.603C206.692 358.902 206.351 359.115 205.967 359.073Z" fill="#E53935"/>
<path d="M203.45 353.827C202.299 353.443 201.19 352.973 200.081 352.462C198.972 351.95 197.905 351.438 196.839 350.883C195.773 350.372 194.706 349.774 193.64 349.177C193.128 348.879 192.616 348.537 192.147 348.154C191.678 347.77 191.209 347.343 190.825 346.831L191.166 346.917C189.716 347.3 188.266 347.471 186.815 347.556C185.365 347.642 183.915 347.642 182.422 347.386C182.081 347.343 181.825 347.002 181.91 346.618C181.953 346.362 182.123 346.149 182.379 346.106C183.83 345.68 185.28 345.552 186.73 345.466C188.18 345.424 189.631 345.381 191.123 345.637L191.465 345.722C192.104 345.765 192.702 345.936 193.299 346.106C193.896 346.319 194.408 346.533 194.962 346.831C195.986 347.428 197.052 347.983 198.076 348.623C199.1 349.22 200.123 349.902 201.104 350.542C202.128 351.225 203.109 351.907 204.048 352.675C204.346 352.888 204.389 353.315 204.133 353.571C204.005 353.827 203.706 353.912 203.45 353.827Z" fill="#E53935"/>
<path d="M206.35 354.851C204.602 352.548 203.109 350.117 201.659 347.685C200.976 346.448 200.251 345.211 199.611 343.932C199.014 342.652 198.459 341.33 198.204 339.837L198.545 340.135C196.113 339.41 193.767 338.429 191.464 337.406C190.867 337.15 190.312 336.894 189.758 336.638L188.905 336.211C188.564 336.041 188.606 336.041 188.35 335.955C187.839 335.785 187.241 335.614 186.644 335.443C186.047 335.273 185.45 335.102 184.853 334.889C184.512 334.761 184.298 334.377 184.426 333.993C184.512 333.737 184.767 333.524 185.066 333.524C185.706 333.481 186.346 333.524 186.985 333.567C187.625 333.609 188.222 333.652 188.948 333.823C189.331 333.865 189.929 334.207 190.142 334.249L190.995 334.633C191.549 334.889 192.104 335.145 192.658 335.401C194.876 336.425 197.052 337.576 199.142 338.898L199.483 339.197C200.592 340.221 201.403 341.372 202.17 342.609C202.895 343.846 203.535 345.126 204.175 346.363C205.455 348.922 206.649 351.481 207.63 354.211C207.758 354.553 207.587 354.979 207.204 355.107C206.82 355.192 206.521 355.064 206.35 354.851Z" fill="#E53935"/>
<path d="M199.738 397.718C201.444 394.946 198.416 390.808 197.136 388.42C195.259 384.965 193.084 381.68 190.738 378.567C190.653 378.396 190.525 378.225 190.44 378.012C190.354 377.841 190.226 377.756 190.098 377.713C189.885 377.415 189.672 377.116 189.416 376.86C188.904 376.221 188.008 377.116 188.477 377.713C188.819 378.14 189.16 378.567 189.501 379.036C192.53 385.263 195.601 391.448 198.629 397.676C198.842 398.102 199.482 398.102 199.738 397.718Z" fill="#E53935"/>
<path d="M192.701 403.902C195.559 401.13 193.128 395.329 192.274 392.13C191.038 387.481 189.417 382.959 187.497 378.566C187.412 378.31 187.369 378.097 187.284 377.841C187.241 377.627 187.113 377.499 186.985 377.414C186.815 376.988 186.644 376.604 186.431 376.177C186.004 375.281 184.639 376.007 185.066 376.945C185.364 377.542 185.62 378.182 185.876 378.779C187.71 387.054 189.545 395.286 191.379 403.561C191.507 404.116 192.274 404.286 192.701 403.902Z" fill="#E53935"/>
<path d="M185.662 406.079C189.075 403.946 187.667 397.633 187.368 394.264C186.985 389.358 186.131 384.496 184.98 379.676C184.937 379.42 184.937 379.164 184.895 378.908C184.895 378.695 184.767 378.524 184.639 378.396C184.511 377.97 184.425 377.501 184.297 377.031C184.041 376.05 182.506 376.477 182.804 377.458C182.975 378.14 183.146 378.823 183.316 379.463C183.658 388.079 184.041 396.738 184.383 405.354C184.425 406.036 185.15 406.377 185.662 406.079Z" fill="#E53935"/>
<path d="M178.752 408.638C182.719 406.804 182.165 399.894 182.378 396.226C182.719 390.937 182.549 385.647 182.08 380.401C182.08 380.145 182.122 379.846 182.122 379.59C182.122 379.335 182.037 379.164 181.952 379.036C181.909 378.567 181.866 378.055 181.824 377.543C181.696 376.434 180.032 376.733 180.16 377.842C180.245 378.567 180.331 379.335 180.373 380.06C179.435 389.316 178.497 398.572 177.558 407.785C177.473 408.425 178.198 408.894 178.752 408.638Z" fill="#E53935"/>
<path d="M171.715 419.899C171.715 419.899 165.189 418.875 161.904 413.8C158.62 408.724 157.127 404.714 159.9 400.918C162.715 397.122 167.364 393.07 175.852 391.321L182.378 401.089L171.715 419.899Z" fill="#ED0000"/>
<path d="M186.088 429.239C186.088 429.239 169.155 426.082 169.112 421.561C169.069 417.04 181.439 399.722 181.439 399.722L188.989 404.67L186.088 429.239Z" fill="#ED0000"/>
<path d="M209.508 423.481C209.508 423.481 203.664 428.259 195.944 429.709C188.223 431.159 185.067 431.33 185.067 431.33C185.067 431.33 183.019 425.571 183.574 416.187C184.171 406.804 184.853 402.666 184.853 402.666L194.109 401.216L209.508 423.481Z" fill="#ED0000"/>
<path d="M223.498 409.703C223.498 409.703 215.906 421.561 212.109 423.992C208.27 426.423 201.147 421.22 196.796 413.926C192.446 406.632 191.806 403.902 191.635 400.575C191.465 397.248 198.631 395.115 198.631 395.115L223.498 409.703Z" fill="#ED0000"/>
<path d="M226.653 392.598C226.653 392.598 227.677 405.053 225.118 407.911C222.601 410.726 215.179 411.153 205.198 405.864C195.899 400.916 195.004 399.295 196.369 395.286C197.99 390.508 199.909 383.342 204.644 381.338C209.421 379.29 226.653 392.598 226.653 392.598Z" fill="#ED0000"/>
<path d="M226.655 392.599C226.655 392.599 215.607 393.367 208.655 388.206C201.702 383.045 200.081 374.471 203.195 347.727C206.479 320.044 211.982 312.111 211.982 312.111L215.309 315.267L216.716 306.31L220.171 311.513L221.75 306.054L227.423 331.092L230.28 320.002C230.28 320.002 232.029 346.746 231.048 362.101C230.152 377.414 228.873 384.367 226.655 392.599Z" fill="#ED0000"/>
<path d="M228.073 338.916C229.286 337.474 229.099 335.321 227.656 334.109C226.213 332.896 224.061 333.083 222.848 334.526C221.636 335.969 221.823 338.121 223.266 339.334C224.709 340.546 226.861 340.359 228.073 338.916Z" fill="black"/>
<defs>
<radialGradient id="paint0_radial_1131_405" cx="0" cy="0" r="1" gradientUnits="userSpaceOnUse" gradientTransform="translate(256.05 255.98) rotate(-45) scale(254.857)">
<stop offset="0.596"/>
<stop offset="0.6762" stop-color="#060606"/>
<stop offset="0.7843" stop-color="#171717"/>
<stop offset="0.9078" stop-color="#333333"/>
<stop offset="0.9999" stop-color="#4D4D4D"/>
</radialGradient>
<radialGradient id="paint1_radial_1131_405" cx="0" cy="0" r="1" gradientUnits="userSpaceOnUse" gradientTransform="translate(255.806 255.078) scale(233.018 233.018)">
<stop stop-color="#EFC700"/>
<stop offset="1" stop-color="#FF8D03"/>
</radialGradient>
<linearGradient id="paint2_linear_1131_405" x1="58.1108" y1="275.155" x2="87.4612" y2="243.323" gradientUnits="userSpaceOnUse">
<stop offset="0.00490687" stop-color="#FABD00"/>
<stop offset="0.2442" stop-color="#FAC300"/>
<stop offset="0.5667" stop-color="#FAD400"/>
<stop offset="0.9352" stop-color="#FAF000"/>
<stop offset="1" stop-color="#FAF600"/>
</linearGradient>
<linearGradient id="paint3_linear_1131_405" x1="67.5195" y1="283.831" x2="96.8695" y2="251.999" gradientUnits="userSpaceOnUse">
<stop offset="0.00490687" stop-color="#FABD00"/>
<stop offset="0.2442" stop-color="#FAC300"/>
<stop offset="0.5667" stop-color="#FAD400"/>
<stop offset="0.9352" stop-color="#FAF000"/>
<stop offset="1" stop-color="#FAF600"/>
</linearGradient>
<linearGradient id="paint4_linear_1131_405" x1="85.5606" y1="300.464" x2="114.911" y2="268.633" gradientUnits="userSpaceOnUse">
<stop offset="0.00490687" stop-color="#FABD00"/>
<stop offset="0.2442" stop-color="#FAC300"/>
<stop offset="0.5667" stop-color="#FAD400"/>
<stop offset="0.9352" stop-color="#FAF000"/>
<stop offset="1" stop-color="#FAF600"/>
</linearGradient>
<linearGradient id="paint5_linear_1131_405" x1="92.6515" y1="307.003" x2="122.002" y2="275.171" gradientUnits="userSpaceOnUse">
<stop offset="0.00490687" stop-color="#FABD00"/>
<stop offset="0.2442" stop-color="#FAC300"/>
<stop offset="0.5667" stop-color="#FAD400"/>
<stop offset="0.9352" stop-color="#FAF000"/>
<stop offset="1" stop-color="#FAF600"/>
</linearGradient>
<linearGradient id="paint6_linear_1131_405" x1="409.584" y1="374.706" x2="362.362" y2="349.228" gradientUnits="userSpaceOnUse">
<stop offset="0.00490687" stop-color="#FABD00"/>
<stop offset="0.2442" stop-color="#FAC300"/>
<stop offset="0.5667" stop-color="#FAD400"/>
<stop offset="0.9352" stop-color="#FAF000"/>
<stop offset="1" stop-color="#FAF600"/>
</linearGradient>
<linearGradient id="paint7_linear_1131_405" x1="417.117" y1="360.747" x2="369.895" y2="335.269" gradientUnits="userSpaceOnUse">
<stop offset="0.00490687" stop-color="#FABD00"/>
<stop offset="0.2442" stop-color="#FAC300"/>
<stop offset="0.5667" stop-color="#FAD400"/>
<stop offset="0.9352" stop-color="#FAF000"/>
<stop offset="1" stop-color="#FAF600"/>
</linearGradient>
<linearGradient id="paint8_linear_1131_405" x1="431.555" y1="333.985" x2="384.332" y2="308.507" gradientUnits="userSpaceOnUse">
<stop offset="0.00490687" stop-color="#FABD00"/>
<stop offset="0.2442" stop-color="#FAC300"/>
<stop offset="0.5667" stop-color="#FAD400"/>
<stop offset="0.9352" stop-color="#FAF000"/>
<stop offset="1" stop-color="#FAF600"/>
</linearGradient>
<linearGradient id="paint9_linear_1131_405" x1="437.232" y1="323.465" x2="390.01" y2="297.987" gradientUnits="userSpaceOnUse">
<stop offset="0.00490687" stop-color="#FABD00"/>
<stop offset="0.2442" stop-color="#FAC300"/>
<stop offset="0.5667" stop-color="#FAD400"/>
<stop offset="0.9352" stop-color="#FAF000"/>
<stop offset="1" stop-color="#FAF600"/>
</linearGradient>
<linearGradient id="paint10_linear_1131_405" x1="409.831" y1="102.646" x2="392.124" y2="149.562" gradientUnits="userSpaceOnUse">
<stop offset="0.00490687" stop-color="#FABD00"/>
<stop offset="0.2442" stop-color="#FAC300"/>
<stop offset="0.5667" stop-color="#FAD400"/>
<stop offset="0.9352" stop-color="#FAF000"/>
<stop offset="1" stop-color="#FAF600"/>
</linearGradient>
<linearGradient id="paint11_linear_1131_405" x1="395.963" y1="97.4116" x2="378.256" y2="144.327" gradientUnits="userSpaceOnUse">
<stop offset="0.00490687" stop-color="#FABD00"/>
<stop offset="0.2442" stop-color="#FAC300"/>
<stop offset="0.5667" stop-color="#FAD400"/>
<stop offset="0.9352" stop-color="#FAF000"/>
<stop offset="1" stop-color="#FAF600"/>
</linearGradient>
<linearGradient id="paint12_linear_1131_405" x1="369.375" y1="87.3769" x2="351.668" y2="134.293" gradientUnits="userSpaceOnUse">
<stop offset="0.00490687" stop-color="#FABD00"/>
<stop offset="0.2442" stop-color="#FAC300"/>
<stop offset="0.5667" stop-color="#FAD400"/>
<stop offset="0.9352" stop-color="#FAF000"/>
<stop offset="1" stop-color="#FAF600"/>
</linearGradient>
<linearGradient id="paint13_linear_1131_405" x1="358.923" y1="83.4325" x2="341.216" y2="130.348" gradientUnits="userSpaceOnUse">
<stop offset="0.00490687" stop-color="#FABD00"/>
<stop offset="0.2442" stop-color="#FAC300"/>
<stop offset="0.5667" stop-color="#FAD400"/>
<stop offset="0.9352" stop-color="#FAF000"/>
<stop offset="1" stop-color="#FAF600"/>
</linearGradient>
<linearGradient id="paint14_linear_1131_405" x1="60.0544" y1="210.403" x2="185.337" y2="252.003" gradientUnits="userSpaceOnUse">
<stop offset="0.4039"/>
<stop offset="0.4933" stop-color="#0F0F0F"/>
<stop offset="0.691" stop-color="#2A2A2A"/>
<stop offset="0.8663" stop-color="#3A3A3A"/>
<stop offset="0.9999" stop-color="#404040"/>
</linearGradient>
<linearGradient id="paint15_linear_1131_405" x1="285.768" y1="48.175" x2="251.745" y2="192.892" gradientUnits="userSpaceOnUse">
<stop offset="0.4039"/>
<stop offset="0.4933" stop-color="#0F0F0F"/>
<stop offset="0.691" stop-color="#2A2A2A"/>
<stop offset="0.8663" stop-color="#3A3A3A"/>
<stop offset="0.9999" stop-color="#404040"/>
</linearGradient>
<linearGradient id="paint16_linear_1131_405" x1="450.502" y1="180.375" x2="343.052" y2="254.918" gradientUnits="userSpaceOnUse">
<stop offset="0.4039"/>
<stop offset="0.4933" stop-color="#0F0F0F"/>
<stop offset="0.691" stop-color="#2A2A2A"/>
<stop offset="0.8663" stop-color="#3A3A3A"/>
<stop offset="0.9999" stop-color="#404040"/>
</linearGradient>
<linearGradient id="paint17_linear_1131_405" x1="348.499" y1="445.294" x2="250.369" y2="334.753" gradientUnits="userSpaceOnUse">
<stop offset="0.4039"/>
<stop offset="0.4933" stop-color="#0F0F0F"/>
<stop offset="0.691" stop-color="#2A2A2A"/>
<stop offset="0.8663" stop-color="#3A3A3A"/>
<stop offset="0.9999" stop-color="#404040"/>
</linearGradient>
</defs>
</svg>
