<svg width="512" height="512" viewBox="0 0 512 512" fill="none" xmlns="http://www.w3.org/2000/svg">
<path d="M0.00976562 376.907L4.08786 386.751C26.9784 442.001 70.0094 485.031 125.276 507.922L135.12 512L230.651 281.36L0.00976562 376.907Z" fill="#EAAD7A"/>
<path d="M28.1348 388.345C48.1662 430.438 81.588 463.845 123.681 483.89L191.244 320.781L28.1348 388.345Z" fill="#F4BE8E"/>
<path d="M369.58 26.9538C260.775 -18.1083 136.025 33.5629 90.9632 142.36C68.4317 196.766 70.0877 255.141 90.9632 305.564L287.971 223.97L206.369 420.97C315.173 466.033 439.908 414.361 484.97 305.565C530.032 196.766 478.376 72.0318 369.58 26.9538Z" fill="#F4BE8E"/>
<path d="M494.829 138.282C471.939 83.0319 428.908 39.9999 373.657 17.1104C346.268 5.76613 317.47 0 288.064 0C244.291 0 201.744 12.7343 165.026 36.7969C127.416 61.4694 98.4 96.5633 81.1186 138.282C58.2131 193.533 58.2131 254.391 81.1186 309.642L85.1807 319.499L268.259 243.672L192.431 426.734L202.274 430.812C229.681 442.171 258.463 447.921 287.891 447.921C331.657 447.921 374.188 435.187 410.907 411.124C448.532 386.453 477.548 351.374 494.829 309.641C517.721 254.391 517.721 193.532 494.829 138.282ZM475.126 301.485C459.485 339.234 433.236 370.969 399.22 393.282C365.97 415.078 327.47 426.594 287.892 426.594C264.823 426.594 242.181 422.672 220.401 414.938L307.689 204.251L96.995 291.533C80.1986 244.251 81.4786 193.141 100.807 146.438C116.463 108.689 142.713 76.9538 176.729 54.6423C209.963 32.8598 248.462 21.3445 288.064 21.3445C314.658 21.3445 340.706 26.5476 365.502 36.8129C415.486 57.5163 454.408 96.4542 475.127 146.438C495.829 196.438 495.829 251.5 475.126 301.485Z" fill="#EAAD7A"/>
<path d="M482.642 154.876L474.486 135.172L307.689 204.25L376.782 37.453L357.065 29.2979L287.97 196.094L218.869 29.2979L199.181 37.453L268.26 204.266L101.462 135.172L93.3066 154.876L279.815 232.126L357.065 418.641L376.782 410.469L307.689 243.672L474.486 312.767L482.642 293.063L315.845 223.969L482.642 154.876Z" fill="#EAAD7A"/>
<path d="M479.937 181.313C479.937 187.189 475.156 191.97 469.281 191.97C463.376 191.97 458.594 187.189 458.594 181.313C458.594 175.422 463.375 170.641 469.281 170.641C475.155 170.641 479.937 175.422 479.937 181.313Z" fill="#434A54"/>
<path d="M373.282 223.969C373.282 229.859 368.516 234.625 362.627 234.625C356.736 234.625 351.971 229.859 351.971 223.969C351.971 218.078 356.737 213.297 362.627 213.297C368.517 213.297 373.282 218.079 373.282 223.969Z" fill="#8CC153"/>
<path d="M469.265 277.282C469.265 283.173 464.499 287.954 458.594 287.954C452.719 287.954 447.938 283.173 447.938 277.282C447.938 271.391 452.719 266.625 458.594 266.625C464.499 266.625 469.265 271.392 469.265 277.282Z" fill="#434A54"/>
<path d="M447.939 330.609C447.939 336.5 443.159 341.265 437.284 341.265C431.377 341.265 426.611 336.499 426.611 330.609C426.611 324.719 431.377 319.937 437.284 319.937C443.158 319.938 447.939 324.719 447.939 330.609Z" fill="#8CC153"/>
<path d="M415.939 373.267C415.939 379.158 411.173 383.939 405.283 383.939C399.393 383.939 394.627 379.158 394.627 373.267C394.627 367.376 399.393 362.595 405.283 362.595C411.173 362.595 415.939 367.376 415.939 373.267Z" fill="#8CC153"/>
<path d="M373.282 277.282C373.282 283.173 368.516 287.954 362.627 287.954C356.736 287.954 351.971 283.173 351.971 277.282C351.971 271.391 356.737 266.625 362.627 266.625C368.517 266.625 373.282 271.392 373.282 277.282Z" fill="#434A54"/>
<path d="M297.877 298.61C297.877 304.501 293.096 309.282 287.204 309.282C281.314 309.282 276.533 304.501 276.533 298.61C276.533 292.719 281.314 287.954 287.204 287.954C293.096 287.954 297.877 292.72 297.877 298.61Z" fill="#8CC153"/>
<path d="M341.299 405.265C341.299 411.157 336.533 415.922 330.627 415.922C324.752 415.922 319.971 411.156 319.971 405.265C319.971 399.376 324.752 394.595 330.627 394.595C336.533 394.595 341.299 399.376 341.299 405.265Z" fill="#8CC153"/>
<path d="M277.315 405.265C277.315 411.157 272.534 415.922 266.635 415.922C260.744 415.922 255.963 411.156 255.963 405.265C255.963 399.376 260.744 394.595 266.635 394.595C272.533 394.595 277.315 399.376 277.315 405.265Z" fill="#434A54"/>
<path d="M181.323 341.266C181.323 347.157 176.557 351.938 170.65 351.938C164.775 351.938 159.994 347.157 159.994 341.266C159.994 335.391 164.775 330.61 170.65 330.61C176.558 330.609 181.323 335.391 181.323 341.266Z" fill="#8CC153"/>
<path d="M138.666 447.922C138.666 453.813 133.9 458.579 127.994 458.579C122.119 458.579 117.338 453.812 117.338 447.922C117.338 442.032 122.119 437.25 127.994 437.25C133.9 437.25 138.666 442.031 138.666 447.922Z" fill="#434A54"/>
<path d="M74.6794 405.265C74.6794 411.156 69.8983 415.921 64.0072 415.921C58.117 415.921 53.3359 411.155 53.3359 405.265C53.3359 399.376 58.117 394.595 64.0072 394.595C69.8983 394.595 74.6794 399.376 74.6794 405.265Z" fill="#8CC153"/>
<path d="M458.593 127.985C458.593 133.876 453.827 138.641 447.936 138.641C442.062 138.641 437.281 133.875 437.281 127.985C437.281 122.095 442.062 117.312 447.936 117.312C453.827 117.312 458.593 122.094 458.593 127.985Z" fill="#8CC153"/>
<path d="M362.625 181.313C362.625 187.189 357.844 191.97 351.969 191.97C346.063 191.97 341.297 187.189 341.297 181.313C341.297 175.422 346.063 170.641 351.969 170.641C357.844 170.641 362.625 175.422 362.625 181.313Z" fill="#434A54"/>
<path d="M394.625 74.6567C394.625 80.5478 389.844 85.329 383.953 85.329C378.062 85.329 373.281 80.5478 373.281 74.6567C373.281 68.7666 378.062 64.0015 383.953 64.0015C389.844 64.0005 394.625 68.7666 394.625 74.6567Z" fill="#434A54"/>
<path d="M266.633 32.001C266.633 37.8911 261.867 42.6722 255.961 42.6722C250.086 42.6722 245.305 37.8911 245.305 32.001C245.305 26.1098 250.086 21.3447 255.961 21.3447C261.867 21.3447 266.633 26.1098 266.633 32.001Z" fill="#434A54"/>
<path d="M309.312 138.641C309.312 144.532 304.531 149.312 298.641 149.312C292.75 149.312 287.969 144.531 287.969 138.641C287.969 132.751 292.75 127.985 298.641 127.985C304.53 127.985 309.312 132.75 309.312 138.641Z" fill="#8CC153"/>
<path d="M234.648 181.313C234.648 187.188 229.867 191.969 223.976 191.969C218.086 191.969 213.305 187.188 213.305 181.313C213.305 175.422 218.086 170.641 223.976 170.641C229.867 170.641 234.648 175.422 234.648 181.313Z" fill="#8CC153"/>
<path d="M213.307 234.625C213.307 240.516 208.541 245.297 202.65 245.297C196.76 245.297 191.994 240.516 191.994 234.625C191.994 228.734 196.76 223.969 202.65 223.969C208.541 223.969 213.307 228.734 213.307 234.625Z" fill="#434A54"/>
<path d="M117.338 181.313C117.338 187.189 112.557 191.97 106.681 191.97C100.775 191.97 95.9941 187.189 95.9941 181.313C95.9941 175.422 100.775 170.641 106.681 170.641C112.557 170.641 117.338 175.422 117.338 181.313Z" fill="#8CC153"/>
<path d="M106.679 245.297C106.679 251.188 101.898 255.953 95.9922 255.953C90.117 255.953 85.3359 251.187 85.3359 245.297C85.3359 239.407 90.117 234.625 95.9922 234.625C101.898 234.625 106.679 239.407 106.679 245.297Z" fill="#434A54"/>
<path d="M213.305 74.6567C213.305 80.5478 208.539 85.329 202.648 85.329C196.758 85.329 191.992 80.5478 191.992 74.6567C191.992 68.7666 196.758 64.0015 202.648 64.0015C208.539 64.0005 213.305 68.7666 213.305 74.6567Z" fill="#434A54"/>
<path d="M330.625 42.6722C330.625 48.5634 325.844 53.3285 319.969 53.3285C314.078 53.3285 309.312 48.5624 309.312 42.6722C309.312 36.7821 314.079 32.001 319.969 32.001C325.844 32.001 330.625 36.7821 330.625 42.6722Z" fill="#8CC153"/>
<path d="M149.336 106.657C149.336 112.548 144.555 117.313 138.664 117.313C132.773 117.313 127.992 112.548 127.992 106.657C127.992 100.766 132.773 95.9854 138.664 95.9854C144.555 95.9854 149.336 100.766 149.336 106.657Z" fill="#8CC153"/>
<path d="M319.972 85.3288C319.972 103.001 305.644 117.313 287.973 117.313C270.309 117.313 255.965 103 255.965 85.3288C255.965 67.6574 270.309 53.3291 287.973 53.3291C305.644 53.3281 319.972 67.6564 319.972 85.3288Z" fill="#ED5564"/>
<path d="M319.972 362.595C319.972 380.267 305.644 394.595 287.973 394.595C270.309 394.595 255.965 380.267 255.965 362.595C255.965 344.938 270.309 330.61 287.973 330.61C305.644 330.609 319.972 344.938 319.972 362.595Z" fill="#ED5564"/>
<path d="M212.559 103.313C225.059 115.796 225.059 136.063 212.559 148.547C200.059 161.048 179.809 161.048 167.309 148.547C154.809 136.063 154.809 115.796 167.309 103.313C179.809 90.8129 200.059 90.8129 212.559 103.313Z" fill="#ED5564"/>
<path d="M408.628 299.376C421.129 311.876 421.129 332.124 408.628 344.625C396.128 357.109 375.879 357.109 363.378 344.625C350.879 332.124 350.879 311.876 363.378 299.376C375.879 286.875 396.128 286.875 408.628 299.376Z" fill="#ED5564"/>
<path d="M149.338 191.969C166.994 191.969 181.322 206.298 181.322 223.97C181.322 241.625 166.994 255.954 149.338 255.954C131.65 255.954 117.338 241.625 117.338 223.97C117.338 206.297 131.65 191.969 149.338 191.969Z" fill="#ED5564"/>
<path d="M426.614 191.969C444.285 191.969 458.597 206.298 458.597 223.97C458.597 241.625 444.285 255.954 426.614 255.954C408.941 255.954 394.629 241.625 394.629 223.97C394.628 206.297 408.941 191.969 426.614 191.969Z" fill="#ED5564"/>
<path d="M93.1054 373.673C105.59 361.172 125.855 361.172 138.355 373.673C150.84 386.157 150.84 406.421 138.355 418.906C125.855 431.406 105.59 431.406 93.1054 418.922C80.6211 406.421 80.6211 386.157 93.1054 373.673Z" fill="#ED5564"/>
<path d="M363.378 103.313C375.878 90.8129 396.128 90.8129 408.628 103.313C421.128 115.796 421.128 136.063 408.628 148.547C396.128 161.048 375.878 161.048 363.378 148.547C350.895 136.063 350.895 115.796 363.378 103.313Z" fill="#ED5564"/>
</svg>
