<svg width="512" height="428" viewBox="0 0 512 428" fill="none" xmlns="http://www.w3.org/2000/svg">
<path d="M0 181.884C0 294.524 114.347 427.644 256 427.644C397.653 427.644 512 294.524 512 181.884H0Z" fill="#B2C1C0"/>
<path d="M512 181.884C512 254.417 397.653 313.297 256 313.297C114.347 313.297 0 254.417 0 181.884C0 109.351 114.347 50.4707 256 50.4707C397.653 50.4707 512 109.351 512 181.884Z" fill="#E8E8E8"/>
<path d="M256 296.231C126.293 296.231 16.2129 243.324 16.2129 181.031C16.2129 118.738 126.293 65.8311 256 65.8311C385.706 65.8311 495.786 118.738 495.786 181.031C495.786 244.178 385.706 296.231 256 296.231Z" fill="#B2C1C0"/>
<path d="M89.5996 38.5244C90.4529 53.0311 97.2796 101.671 91.3063 123.858C128.853 130.684 100.693 58.1511 89.5996 38.5244Z" fill="#699635"/>
<path d="M457.387 134.951C474.454 95.6977 448 54.7377 430.934 78.631C413.867 102.524 426.667 117.884 383.147 109.351C373.76 93.1377 396.8 43.6443 383.147 34.2576C360.96 19.751 360.96 74.3643 335.36 42.791C309.76 12.071 308.907 84.6043 270.507 84.6043C251.734 84.6043 278.187 28.2843 235.52 17.191C192.854 6.09765 204.8 54.7377 153.6 26.5777C102.4 -1.58234 75.947 41.0843 99.8403 59.0043C122.88 76.9243 104.107 112.764 100.694 126.418C71.6803 112.764 73.387 171.644 74.2403 181.031C53.7603 187.858 20.4803 202.364 19.627 203.218C40.9603 254.418 139.947 296.231 256 296.231C385.707 296.231 495.787 243.324 495.787 181.031C495.787 117.884 429.227 198.951 457.387 134.951Z" fill="#83BF4F"/>
<path d="M309.76 205.777C331.094 160.551 279.04 179.324 259.414 198.951C258.56 166.524 275.627 146.044 290.134 123.857C266.24 140.924 240.64 160.551 212.48 170.791C228.694 189.564 237.227 215.164 240.64 239.911C308.907 246.737 293.547 279.164 290.134 295.377C371.2 289.404 289.28 250.151 309.76 205.777Z" fill="#699635"/>
<path d="M130.56 93.1377C116.906 106.791 112.64 123.858 121.173 132.391C128.853 140.924 145.92 136.658 159.573 123.004C173.226 109.351 177.493 92.2844 168.96 83.7511C160.426 76.0711 143.36 80.3377 130.56 93.1377Z" fill="#ED4C5C"/>
<path d="M310.613 253.564C296.96 267.218 292.693 284.284 301.227 292.818C308.907 301.351 325.973 297.084 339.627 283.431C353.28 269.778 357.547 252.711 349.013 244.178C341.333 235.644 324.267 239.911 310.613 253.564Z" fill="#ED4C5C"/>
<path d="M205.653 69.2441C172.373 70.9508 157.013 157.137 133.12 152.017C152.747 170.791 162.987 198.951 162.987 226.257C168.107 227.111 175.787 212.604 180.053 227.964C174.08 181.031 175.787 129.831 205.653 69.2441Z" fill="#699635"/>
<path d="M344.747 97.4044C353.28 114.471 352.427 132.391 342.187 137.511C331.947 142.631 317.44 134.098 308.054 117.031C299.52 99.9644 300.374 82.0444 310.614 76.9244C320.854 71.8044 336.214 80.3377 344.747 97.4044Z" fill="#ED4C5C"/>
<path d="M410.453 111.911C337.92 103.378 326.827 101.671 387.413 162.258C403.627 182.738 342.187 226.258 320 230.524C348.16 284.284 353.28 289.404 392.533 275.751C447.147 256.978 419.84 192.978 445.44 206.631C431.787 186.151 354.987 176.764 410.453 111.911Z" fill="#699635"/>
<path d="M454.827 155.431C453.12 146.044 473.6 124.711 469.334 94.8444C465.067 67.5377 433.494 51.3244 424.107 82.8977C415.574 111.911 388.267 105.084 388.267 105.084C406.187 35.111 396.8 0.977681 357.547 42.791C337.067 64.1244 355.84 -29.7423 290.987 70.0977C257.707 121.298 271.36 -46.809 211.627 14.631C163.84 63.271 127.147 -31.449 95.5738 25.7244C79.3604 55.591 114.347 59.8577 104.96 117.884C104.96 117.884 69.1204 95.6977 72.5338 169.084C73.3871 181.884 9.38709 184.444 23.8938 205.778C38.4004 199.804 129.707 156.284 124.587 196.391C122.88 208.338 115.2 246.738 136.534 245.031C159.574 243.324 180.907 207.484 181.76 248.444C182.614 280.018 197.974 281.724 220.16 262.098C226.134 256.978 230.4 248.444 238.934 245.031C254.294 239.058 268.8 247.591 283.307 252.711C310.614 262.951 302.934 224.551 284.16 217.724C280.747 216.871 259.414 213.458 261.12 210.044C264.534 199.804 276.48 192.978 285.014 188.711C292.694 185.298 301.227 182.738 309.76 182.738C321.707 183.591 317.44 191.271 314.88 200.658C312.32 211.751 314.027 226.258 325.974 229.671C339.627 233.938 350.72 221.138 360.107 213.458C366.934 207.484 412.16 178.471 396.8 209.191C387.414 227.111 342.187 233.084 362.667 259.538C376.32 276.604 395.094 268.924 405.334 252.711C413.867 239.911 417.28 224.551 420.694 209.191C423.254 197.244 424.107 190.418 436.054 196.391C452.267 204.924 472.747 223.698 473.6 192.978C474.454 172.498 482.134 134.951 500.054 170.791C488.96 123.858 456.534 168.231 454.827 155.431ZM343.894 213.458C343.04 214.311 321.707 229.671 318.294 215.164C315.734 204.071 326.827 191.271 320 181.884C308.054 165.671 276.48 181.031 264.534 189.564C257.707 194.684 240.64 210.898 253.44 218.578C262.827 224.551 277.334 221.138 285.867 229.671C292.694 236.498 294.4 249.298 282.454 244.178C267.094 238.204 251.734 230.524 234.667 237.351C225.28 240.764 202.24 274.898 191.147 268.071C185.174 264.658 187.734 240.764 186.88 233.938C184.32 214.311 170.667 217.724 157.867 225.404C152.747 228.818 137.387 239.911 131.414 235.644C125.44 231.378 128.854 212.604 129.707 206.631C133.974 169.938 110.08 166.524 79.3604 175.058C79.3604 163.964 78.5071 119.591 98.9871 127.271C110.934 131.538 141.654 169.084 152.747 147.751C164.694 124.711 217.6 23.1644 217.6 99.111C217.6 119.591 199.68 163.111 214.187 173.351C226.987 181.884 259.414 146.044 267.947 140.924C289.28 126.418 313.174 112.764 324.267 145.191C331.947 166.524 333.654 194.684 360.107 200.658C353.28 204.924 348.16 209.191 343.894 213.458ZM384.854 177.618C382.294 192.978 364.374 196.391 352.427 189.564C327.68 175.058 341.334 124.711 310.614 117.031C273.92 107.644 226.134 171.644 219.307 164.818C210.774 155.431 228.694 116.178 226.134 90.5777C218.454 24.871 167.254 88.871 146.774 141.778C142.507 152.018 110.934 124.711 110.934 124.711C127.147 54.7377 88.7471 55.591 100.694 33.4044C125.44 -16.089 162.134 79.4844 212.48 27.431C267.094 -28.0356 246.614 152.018 297.814 76.071C344.747 6.95101 337.067 64.1244 347.307 60.711C365.227 54.7377 395.947 -4.14231 379.734 104.231C278.187 85.4577 389.974 147.751 384.854 177.618ZM459.947 204.071C447.147 201.511 433.494 179.324 418.134 187.004C405.334 192.978 404.48 227.111 399.36 239.058C393.387 253.564 373.76 271.484 361.814 250.151C359.254 245.031 395.947 221.991 400.214 211.751C408.747 192.124 390.827 190.418 392.534 177.618C398.507 138.364 304.64 99.111 389.12 113.618C436.907 122.151 425.814 63.271 448 76.071C490.667 101.671 416.427 165.671 464.214 166.524C460.8 179.324 462.507 192.124 459.947 204.071Z" fill="#C7E755"/>
<path d="M56.3199 193.831C69.9733 206.631 74.2399 224.551 65.7066 233.084C58.0266 241.618 40.9599 237.351 27.3066 223.698C13.6533 210.044 9.3866 192.978 17.9199 184.444C26.4533 176.764 43.5199 181.031 56.3199 193.831Z" fill="#ED4C5C"/>
</svg>
