<svg version="1.1" id="Layer_1" xmlns="http://www.w3.org/2000/svg" xmlns:xlink="http://www.w3.org/1999/xlink" x="0px" y="0px"
	 viewBox="0 0 512 512" style="enable-background:new 0 0 512 512;" xml:space="preserve">
<path style="fill:#FF6638;" d="M427.574,193.365v98.043c27.074,0,49.021-21.947,49.021-49.021S454.648,193.365,427.574,193.365z"/>
<path style="fill:#FF883E;" d="M443.915,242.387c0-27.074-7.316-49.021-16.34-49.021c-17.507,0-32.861,9.184-41.532,22.99
	c-8.671-13.805-24.025-22.99-41.532-22.99s-32.861,9.184-41.532,22.99c-8.671-13.805-24.025-22.99-41.532-22.99
	s-32.861,9.184-41.532,22.99c-8.671-13.805-24.025-22.99-41.532-22.99s-32.861,9.184-41.532,22.99
	c-8.671-13.805-24.025-22.99-41.532-22.99c-27.074,0-49.021,21.947-49.021,49.021s21.947,49.021,49.021,49.021h332.255
	C436.599,291.408,443.915,269.46,443.915,242.387z"/>
<path style="fill:#FFCD71;" d="M334.979,405.791l-16.34,65.362h32.681c9.024,0,16.34-7.316,16.34-16.34s0-49.021,0-49.021H334.979z"
	/>
<g>
	<path style="fill:#FFE1AA;" d="M334.979,454.812c0-9.024,0-49.021,0-49.021H144.34c0,0,0,39.997,0,49.021s7.316,16.34,16.34,16.34
		h157.957C327.663,471.152,334.979,463.836,334.979,454.812z"/>
	<path style="fill:#FFE1AA;" d="M24.511,285.961c0,11.219,1.222,22.151,3.522,32.681l306.946,119.83
		c84.229,0,152.511-68.281,152.511-152.511L256,264.174L24.511,285.961z"/>
</g>
<g>
	<path style="fill:#FFF5E3;" d="M177.021,438.472h157.957c57.365,0,105.306-51.307,117.063-119.83H28.033
		C42.995,387.164,104.011,438.472,177.021,438.472z"/>
	<path style="fill:#FFF5E3;" d="M487.489,253.28H24.511c-9.024,0-16.34,7.316-16.34,16.34s7.316,16.34,16.34,16.34h462.979
		c9.024,0,16.34-7.316,16.34-16.34S496.514,253.28,487.489,253.28z"/>
</g>
<path d="M512,269.621c0-13.515-10.996-24.511-24.511-24.511h-2.801c0.044-0.909,0.077-1.817,0.077-2.723
	c0-31.535-25.657-57.191-57.191-57.191c-15.967,0-30.842,6.525-41.532,17.862c-10.69-11.337-25.565-17.862-41.532-17.862
	c-15.967,0-30.842,6.525-41.532,17.862c-10.69-11.337-25.565-17.862-41.532-17.862s-30.842,6.525-41.532,17.862
	c-10.69-11.337-25.565-17.862-41.532-17.862s-30.842,6.525-41.532,17.862c-10.69-11.337-25.565-17.862-41.532-17.862
	c-31.535,0-57.191,25.657-57.191,57.191c0,0.906,0.034,1.815,0.077,2.723H24.511C10.996,245.11,0,256.106,0,269.621
	c0,10.708,6.905,19.829,16.495,23.158c2.999,71.478,52.909,131.031,119.675,148.594v13.438c0,13.515,10.996,24.511,24.511,24.511
	h190.638c13.515,0,24.511-10.996,24.511-24.511v-13.438c66.767-17.564,116.676-77.116,119.675-148.595
	C505.095,289.449,512,280.328,512,269.621z M54.468,242.387c0-22.526,18.325-40.851,40.851-40.851
	c14.136,0,27.075,7.165,34.613,19.165c1.495,2.38,4.108,3.825,6.919,3.825s5.424-1.445,6.919-3.825
	c7.539-12,20.479-19.165,34.613-19.165c14.134,0,27.075,7.165,34.613,19.165c1.495,2.38,4.108,3.825,6.919,3.825
	s5.424-1.445,6.919-3.825c7.539-12,20.479-19.165,34.613-19.165c14.134,0,27.075,7.165,34.613,19.165
	c1.495,2.38,4.108,3.825,6.919,3.825c2.811,0,5.424-1.445,6.919-3.825c7.539-12,20.479-19.165,34.613-19.165
	c14.134,0,27.075,7.165,34.613,19.165c1.495,2.38,4.108,3.825,6.919,3.825s5.424-1.445,6.919-3.825
	c7.539-12,20.479-19.165,34.613-19.165c22.526,0,40.851,18.325,40.851,40.851c0,0.906-0.041,1.815-0.102,2.723H54.57
	C54.509,244.2,54.468,243.292,54.468,242.387z M487.489,277.791H89.872c-4.513,0-8.17,3.657-8.17,8.17c0,4.513,3.657,8.17,8.17,8.17
	h389.21c-4.251,75.802-67.257,136.17-144.104,136.17H209.702c-4.513,0-8.17,3.657-8.17,8.17c0,4.513,3.657,8.17,8.17,8.17h125.277
	c8.331,0,16.517-0.638,24.511-1.867v10.037c0,4.506-3.665,8.17-8.17,8.17H160.681c-4.506,0-8.17-3.665-8.17-8.17v-10.037
	c7.994,1.229,16.179,1.867,24.511,1.867c4.513,0,8.17-3.657,8.17-8.17c0-4.513-3.657-8.17-8.17-8.17
	c-76.847,0-139.853-60.368-144.104-136.17h24.274c4.513,0,8.17-3.657,8.17-8.17c0-4.513-3.657-8.17-8.17-8.17H24.511
	c-4.506,0-8.17-3.665-8.17-8.17c0-4.506,3.665-8.17,8.17-8.17h462.979c4.506,0,8.17,3.665,8.17,8.17
	C495.66,274.126,491.995,277.791,487.489,277.791z"/>
<g>
	<path style="fill:#FFCFB2;" d="M234.213,130.726c0-12.897,3.324-18.991,7.172-26.048c4.298-7.878,9.168-16.809,9.168-33.872
		c0-17.062-4.872-25.99-9.169-33.869c-2.161-3.961-7.124-5.421-11.085-3.259s-5.421,7.124-3.259,11.085
		c3.849,7.057,7.173,13.149,7.173,26.043c0,12.897-3.324,18.991-7.172,26.048c-4.298,7.878-9.168,16.809-9.168,33.872
		s4.871,25.992,9.168,33.872c1.483,2.718,4.287,4.258,7.18,4.258c1.321,0,2.662-0.321,3.905-0.999
		c3.961-2.16,5.421-7.123,3.259-11.085C237.536,149.716,234.213,143.623,234.213,130.726z"/>
	<path style="fill:#FFCFB2;" d="M277.787,130.726c0-12.897,3.324-18.991,7.172-26.048c4.298-7.878,9.168-16.809,9.168-33.872
		c0-17.062-4.872-25.99-9.169-33.869c-2.161-3.961-7.124-5.421-11.085-3.259c-3.961,2.161-5.421,7.124-3.259,11.085
		c3.849,7.057,7.173,13.149,7.173,26.043c0,12.897-3.324,18.991-7.172,26.048c-4.298,7.878-9.168,16.809-9.168,33.872
		s4.871,25.992,9.168,33.872c1.483,2.718,4.287,4.258,7.18,4.258c1.321,0,2.662-0.321,3.905-0.999
		c3.961-2.16,5.421-7.123,3.259-11.085C281.111,149.716,277.787,143.623,277.787,130.726z"/>
</g>
<g>
</g>
<g>
</g>
<g>
</g>
<g>
</g>
<g>
</g>
<g>
</g>
<g>
</g>
<g>
</g>
<g>
</g>
<g>
</g>
<g>
</g>
<g>
</g>
<g>
</g>
<g>
</g>
<g>
</g>
</svg>
