<svg width="513" height="512" viewBox="0 0 513 512" fill="none" xmlns="http://www.w3.org/2000/svg">
<path d="M304.003 0H192.003C175.029 0 158.75 6.74284 146.748 18.7452C134.746 30.7475 128.003 47.0261 128.003 64V128C128.003 144.974 134.746 161.253 146.748 173.255C158.75 185.257 175.029 192 192.003 192H304.003C320.977 192 337.255 185.257 349.258 173.255C361.26 161.253 368.003 144.974 368.003 128V64C368.003 47.0261 361.26 30.7475 349.258 18.7452C337.255 6.74284 320.977 0 304.003 0ZM352.003 120C352.003 134.852 346.103 149.096 335.601 159.598C325.099 170.1 310.855 176 296.003 176H200.003C185.151 176 170.907 170.1 160.405 159.598C149.903 149.096 144.003 134.852 144.003 120V72C144.003 57.1479 149.903 42.9041 160.405 32.402C170.907 21.9 185.151 16 200.003 16H296.003C310.855 16 325.099 21.9 335.601 32.402C346.103 42.9041 352.003 57.1479 352.003 72V120Z" fill="#434854"/>
<path d="M352.003 120C352.003 134.852 346.103 149.096 335.601 159.598C325.099 170.1 310.855 176 296.003 176H200.003C185.151 176 170.907 170.1 160.405 159.598C149.903 149.096 144.003 134.852 144.003 120V72C144.003 57.1479 149.903 42.9041 160.405 32.402C170.907 21.9 185.151 16 200.003 16H296.003C310.855 16 325.099 21.9 335.601 32.402C346.103 42.9041 352.003 57.1479 352.003 72V120Z" fill="#EAEAEA"/>
<path d="M364.563 147.744C364.211 148.864 363.955 150.032 363.539 151.12C362.243 154.416 360.627 157.52 358.835 160.544C358.755 160.688 358.691 160.832 358.595 160.96C352.951 170.408 344.956 178.234 335.389 183.673C325.822 189.113 315.009 191.982 304.003 192H192.003C181 191.98 170.189 189.113 160.622 183.676C151.055 178.24 143.059 170.419 137.411 160.976L137.187 160.576C135.36 157.557 133.782 154.395 132.467 151.12C132.051 150.032 131.795 148.864 131.427 147.744C130.611 145.232 129.731 142.768 129.219 140.144C128.414 136.146 128.006 132.078 128.003 128V240C128.003 256.974 134.746 273.252 146.748 285.255C158.75 297.257 175.029 304 192.003 304H304.003C320.977 304 337.255 297.257 349.258 285.255C361.26 273.252 368.003 256.974 368.003 240V128C368.003 132.176 367.571 136.224 366.787 140.16C366.275 142.784 365.395 145.248 364.563 147.744Z" fill="#434854"/>
<path d="M364.563 147.744C364.211 148.864 363.955 150.032 363.539 151.12C362.243 154.416 360.627 157.52 358.835 160.544C358.755 160.688 358.691 160.832 358.595 160.96C352.951 170.408 344.956 178.234 335.389 183.673C325.822 189.113 315.009 191.982 304.003 192H192.003C181 191.98 170.189 189.113 160.622 183.676C151.055 178.24 143.059 170.419 137.411 160.976L137.187 160.576C135.36 157.557 133.782 154.395 132.467 151.12C132.051 150.032 131.795 148.864 131.427 147.744C130.611 145.232 129.731 142.768 129.219 140.144C128.414 136.146 128.006 132.078 128.003 128V240C128.003 256.974 134.746 273.252 146.748 285.255C158.75 297.257 175.029 304 192.003 304H304.003C320.977 304 337.255 297.257 349.258 285.255C361.26 273.252 368.003 256.974 368.003 240V128C368.003 132.176 367.571 136.224 366.787 140.16C366.275 142.784 365.395 145.248 364.563 147.744Z" fill="black"/>
<path d="M336.003 295.12V183.296C331.059 186.208 325.683 188.416 320.003 189.904V301.728C325.617 300.278 331.002 298.054 336.003 295.12Z" fill="white"/>
<path d="M176.003 96C176.003 102.303 177.865 108.545 181.484 114.369C185.102 120.192 190.405 125.484 197.091 129.941C203.777 134.398 211.714 137.934 220.45 140.346C229.185 142.758 238.548 144 248.003 144C257.458 144 266.821 142.758 275.556 140.346C284.292 137.934 292.229 134.398 298.915 129.941C305.6 125.484 310.904 120.192 314.522 114.369C318.141 108.545 320.003 102.303 320.003 96C320.003 83.2696 312.417 71.0606 298.915 62.0589C285.412 53.0571 267.099 48 248.003 48C228.907 48 210.594 53.0571 197.091 62.0589C183.589 71.0606 176.003 83.2696 176.003 96Z" fill="#EF4D4D"/>
<path d="M176.003 208H64.0029C47.0291 208 30.7504 214.743 18.7481 226.745C6.74577 238.747 0.00292969 255.026 0.00292969 272V336C0.00292969 352.974 6.74577 369.252 18.7481 381.255C30.7504 393.257 47.0291 400 64.0029 400H176.003C192.977 400 209.255 393.257 221.258 381.255C233.26 369.252 240.003 352.974 240.003 336V272C240.003 255.026 233.26 238.747 221.258 226.745C209.255 214.743 192.977 208 176.003 208ZM224.003 328C224.003 342.852 218.103 357.096 207.601 367.598C197.099 378.1 182.855 384 168.003 384H72.0029C57.1508 384 42.907 378.1 32.4049 367.598C21.9029 357.096 16.0029 342.852 16.0029 328V280C16.0029 265.148 21.9029 250.904 32.4049 240.402C42.907 229.9 57.1508 224 72.0029 224H168.003C182.855 224 197.099 229.9 207.601 240.402C218.103 250.904 224.003 265.148 224.003 280V328Z" fill="#434854"/>
<path d="M224.003 328C224.003 342.852 218.103 357.096 207.601 367.598C197.099 378.1 182.855 384 168.003 384H72.0029C57.1508 384 42.907 378.1 32.4049 367.598C21.9029 357.096 16.0029 342.852 16.0029 328V280C16.0029 265.148 21.9029 250.904 32.4049 240.402C42.907 229.9 57.1508 224 72.0029 224H168.003C182.855 224 197.099 229.9 207.601 240.402C218.103 250.904 224.003 265.148 224.003 280V328Z" fill="#EAEAEA"/>
<path d="M236.563 355.744C236.211 356.864 235.955 358.032 235.539 359.12C234.243 362.416 232.627 365.52 230.835 368.544C230.755 368.688 230.691 368.832 230.595 368.96C224.951 378.408 216.956 386.234 207.389 391.673C197.822 397.113 187.009 399.982 176.003 400H64.0029C52.9995 399.98 42.1885 397.113 32.622 391.676C23.0554 386.24 15.059 378.419 9.41093 368.976L9.18693 368.576C7.35702 365.564 5.77834 362.407 4.46693 359.136C4.05093 358.048 3.79493 356.864 3.42693 355.76C2.61093 353.248 1.74693 350.768 1.21893 348.144C0.41374 344.146 0.00641909 340.078 0.00292969 336V448C0.00292969 464.974 6.74577 481.252 18.7481 493.255C30.7504 505.257 47.0291 512 64.0029 512H176.003C192.977 512 209.255 505.257 221.258 493.255C233.26 481.252 240.003 464.974 240.003 448V336C240.003 340.176 239.571 344.224 238.787 348.16C238.275 350.784 237.395 353.248 236.563 355.744Z" fill="#434854"/>
<path d="M236.563 355.744C236.211 356.864 235.955 358.032 235.539 359.12C234.243 362.416 232.627 365.52 230.835 368.544C230.755 368.688 230.691 368.832 230.595 368.96C224.951 378.408 216.956 386.234 207.389 391.673C197.822 397.113 187.009 399.982 176.003 400H64.0029C52.9995 399.98 42.1885 397.113 32.622 391.676C23.0554 386.24 15.059 378.419 9.41093 368.976L9.18693 368.576C7.35702 365.564 5.77834 362.407 4.46693 359.136C4.05093 358.048 3.79493 356.864 3.42693 355.76C2.61093 353.248 1.74693 350.768 1.21893 348.144C0.41374 344.146 0.00641909 340.078 0.00292969 336V448C0.00292969 464.974 6.74577 481.252 18.7481 493.255C30.7504 505.257 47.0291 512 64.0029 512H176.003C192.977 512 209.255 505.257 221.258 493.255C233.26 481.252 240.003 464.974 240.003 448V336C240.003 340.176 239.571 344.224 238.787 348.16C238.275 350.784 237.395 353.248 236.563 355.744Z" fill="black"/>
<path d="M208.003 503.12V391.296C203.059 394.208 197.683 396.416 192.003 397.904V509.728C197.617 508.278 203.002 506.054 208.003 503.12Z" fill="white"/>
<path d="M48.0029 304C48.0029 316.73 55.5886 328.939 69.0912 337.941C82.5939 346.943 100.907 352 120.003 352C139.099 352 157.412 346.943 170.915 337.941C184.417 328.939 192.003 316.73 192.003 304C192.003 291.27 184.417 279.061 170.915 270.059C157.412 261.057 139.099 256 120.003 256C100.907 256 82.5939 261.057 69.0912 270.059C55.5886 279.061 48.0029 291.27 48.0029 304Z" fill="#EF4D4D"/>
<path d="M448.003 208H336.003C319.029 208 302.75 214.743 290.748 226.745C278.746 238.747 272.003 255.026 272.003 272V336C272.003 352.974 278.746 369.252 290.748 381.255C302.75 393.257 319.029 400 336.003 400H448.003C464.977 400 481.255 393.257 493.258 381.255C505.26 369.252 512.003 352.974 512.003 336V272C512.003 255.026 505.26 238.747 493.258 226.745C481.255 214.743 464.977 208 448.003 208ZM496.003 328C496.003 342.852 490.103 357.096 479.601 367.598C469.099 378.1 454.855 384 440.003 384H344.003C329.151 384 314.907 378.1 304.405 367.598C293.903 357.096 288.003 342.852 288.003 328V280C288.003 265.148 293.903 250.904 304.405 240.402C314.907 229.9 329.151 224 344.003 224H440.003C454.855 224 469.099 229.9 479.601 240.402C490.103 250.904 496.003 265.148 496.003 280V328Z" fill="#434854"/>
<path d="M496.003 328C496.003 342.852 490.103 357.096 479.601 367.598C469.099 378.1 454.855 384 440.003 384H344.003C329.151 384 314.907 378.1 304.405 367.598C293.903 357.096 288.003 342.852 288.003 328V280C288.003 265.148 293.903 250.904 304.405 240.402C314.907 229.9 329.151 224 344.003 224H440.003C454.855 224 469.099 229.9 479.601 240.402C490.103 250.904 496.003 265.148 496.003 280V328Z" fill="#EAEAEA"/>
<path d="M508.563 355.744C508.211 356.864 507.955 358.032 507.539 359.12C506.243 362.416 504.627 365.52 502.835 368.544C502.755 368.688 502.691 368.832 502.595 368.96C496.951 378.408 488.956 386.234 479.389 391.673C469.822 397.113 459.009 399.982 448.003 400H336.003C325 399.98 314.189 397.113 304.622 391.676C295.055 386.24 287.059 378.419 281.411 368.976L281.187 368.576C279.357 365.564 277.778 362.407 276.467 359.136C276.051 358.048 275.795 356.864 275.427 355.76C274.611 353.248 273.747 350.768 273.219 348.144C272.414 344.146 272.006 340.078 272.003 336V448C272.003 464.974 278.746 481.252 290.748 493.255C302.75 505.257 319.029 512 336.003 512H448.003C464.977 512 481.255 505.257 493.258 493.255C505.26 481.252 512.003 464.974 512.003 448V336C512.003 340.176 511.571 344.224 510.787 348.16C510.275 350.784 509.395 353.248 508.563 355.744Z" fill="#434854"/>
<path d="M508.563 355.744C508.211 356.864 507.955 358.032 507.539 359.12C506.243 362.416 504.627 365.52 502.835 368.544C502.755 368.688 502.691 368.832 502.595 368.96C496.951 378.408 488.956 386.234 479.389 391.673C469.822 397.113 459.009 399.982 448.003 400H336.003C325 399.98 314.189 397.113 304.622 391.676C295.055 386.24 287.059 378.419 281.411 368.976L281.187 368.576C279.357 365.564 277.778 362.407 276.467 359.136C276.051 358.048 275.795 356.864 275.427 355.76C274.611 353.248 273.747 350.768 273.219 348.144C272.414 344.146 272.006 340.078 272.003 336V448C272.003 464.974 278.746 481.252 290.748 493.255C302.75 505.257 319.029 512 336.003 512H448.003C464.977 512 481.255 505.257 493.258 493.255C505.26 481.252 512.003 464.974 512.003 448V336C512.003 340.176 511.571 344.224 510.787 348.16C510.275 350.784 509.395 353.248 508.563 355.744Z" fill="black"/>
<path d="M480.003 503.12V391.296C475.059 394.208 469.683 396.416 464.003 397.904V509.728C469.617 508.278 475.002 506.054 480.003 503.12Z" fill="white"/>
<path d="M320.003 304C320.003 316.73 327.589 328.939 341.091 337.941C354.594 346.943 372.907 352 392.003 352C411.099 352 429.412 346.943 442.915 337.941C456.417 328.939 464.003 316.73 464.003 304C464.003 291.27 456.417 279.061 442.915 270.059C429.412 261.057 411.099 256 392.003 256C372.907 256 354.594 261.057 341.091 270.059C327.589 279.061 320.003 291.27 320.003 304Z" fill="#EF4D4D"/>
</svg>
