<?xml version="1.0" encoding="iso-8859-1"?>
<!-- Generator: Adobe Illustrator 19.0.0, SVG Export Plug-In . SVG Version: 6.00 Build 0)  -->
<svg version="1.1" id="Capa_1" xmlns="http://www.w3.org/2000/svg" xmlns:xlink="http://www.w3.org/1999/xlink" x="0px" y="0px"
	 viewBox="0 0 512.001 512.001" style="enable-background:new 0 0 512.001 512.001;" xml:space="preserve">
<path style="fill:#9E7325;" d="M327.085,171.114c-94.883,1.899-170.28,80.476-170.28,175.265l260.771,59.622h25.566l0,0
	c33.887,0,61.358-27.438,61.358-61.284l0,0C504.5,247.634,424.73,169.159,327.085,171.114z"/>
<path style="fill:#C4C65A;" d="M426.033,202.835c-0.496-1.9-1.185-3.77-2.057-5.579c-0.911-1.781-2.027-3.483-3.301-5.099
	c-0.638-0.807-1.309-1.578-2.009-2.31c-0.718-0.719-1.479-1.388-2.257-2.022c-1.56-1.266-3.222-2.367-4.956-3.284
	c-3.548-1.77-7.381-2.806-11.32-2.963c-7.83-0.275-13.895-6.324-14.485-14.04c-0.132-1.97-0.474-3.918-1.013-5.82
	c-0.564-1.873-1.351-3.671-2.307-5.408c-1.877-3.514-4.669-6.511-7.961-9.039c-6.741-4.881-15.02-6.73-22.758-4.791
	c-7.548,1.71-15.143-2.165-17.87-9.529c-1.393-3.693-3.617-7.018-6.48-9.814c-2.91-2.684-6.406-4.969-10.398-6.263
	c-3.943-1.427-8.11-1.802-12.067-1.458c-3.98,0.414-7.803,1.721-11.167,3.75c-6.691,4.154-15.042,2.592-20.031-3.333
	c-1.256-1.53-2.676-2.942-4.239-4.165c-1.566-1.174-3.273-2.193-5.087-3.044c-0.907-0.425-1.841-0.809-2.797-1.148
	c-0.957-0.322-1.938-0.56-2.936-0.775c-1.996-0.419-4.064-0.655-6.163-0.698c-2.099,0.044-4.167,0.28-6.163,0.698
	c-0.998,0.214-1.979,0.453-2.936,0.775c-0.956,0.34-1.89,0.723-2.797,1.148c-1.814,0.851-3.521,1.869-5.088,3.044
	c-1.563,1.223-2.983,2.635-4.239,4.165c-4.988,5.924-13.339,7.486-20.032,3.332c-3.364-2.029-7.186-3.336-11.166-3.75
	c-3.957-0.344-8.124,0.031-12.067,1.458c-3.992,1.294-7.488,3.58-10.398,6.264c-2.863,2.796-5.087,6.122-6.48,9.815
	c-2.726,7.363-10.32,11.238-17.871,9.529c-7.736-1.939-16.015-0.09-22.756,4.791c-3.292,2.528-6.084,5.526-7.962,9.039
	c-0.956,1.737-1.743,3.536-2.308,5.409c-0.539,1.902-0.881,3.85-1.013,5.82c-0.588,7.715-6.653,13.764-14.485,14.04
	c-3.939,0.157-7.771,1.193-11.319,2.963c-1.734,0.918-3.395,2.019-4.956,3.284c-0.778,0.634-1.54,1.303-2.257,2.022
	c-0.7,0.732-1.371,1.503-2.009,2.31c-1.274,1.616-2.39,3.318-3.3,5.099c-0.872,1.809-1.562,3.679-2.057,5.579
	c-1.035,3.773-1.081,7.805-0.396,11.658c0.174,0.953,0.25,1.899,0.234,2.828c0.005,0.942-0.08,1.868-0.249,2.767
	c-0.339,1.798-1.015,3.49-1.982,5.001c-1.892,3.045-4.848,5.441-8.652,6.463c-3.759,1.087-7.272,2.953-10.287,5.484
	c-1.473,1.282-2.833,2.724-4.057,4.302c-0.612,0.789-1.19,1.612-1.73,2.465c-0.519,0.864-0.991,1.763-1.428,2.687
	c-0.872,1.85-1.558,3.754-2.051,5.68c-0.466,1.937-0.695,3.915-0.755,5.869c-0.042,1.962,0.06,3.892,0.451,5.818
	c0.384,1.923,0.962,3.803,1.736,5.615c0.777,1.799,1.103,3.6,1.183,5.471l200.326,65.808l136.353-95.109
	c34.771-7.225,39.02-31.149,39.02-31.149C427.114,210.639,427.068,206.607,426.033,202.835z"/>
<path style="fill:#915729;" d="M387.408,245.641c-14.46,11.751-81.002,50.627-136.353,95.109l145.186,47.694
	c2.17-3.356,5.193-5.678,8.583-6.966c1.709-0.614,3.471-1.086,5.353-1.126c1.858-0.095,3.753,0.043,5.696,0.608
	c3.89,1.057,8.129,1.077,12.258-0.007c2.091-0.5,4.058-1.398,6.041-2.404c1.918-1.085,3.767-2.399,5.462-3.925
	c3.333-3.12,5.9-6.857,7.292-10.891c0.356-1.002,0.657-2.009,0.9-3.014c0.214-1.028,0.356-2.064,0.448-3.087
	c0.09-1.024,0.121-2.04,0.093-3.043c-0.052-1.019-0.182-2.038-0.36-3.031c-0.356-1.962-0.32-3.855-0.091-5.715
	c0.131-0.921,0.344-1.813,0.636-2.673c0.282-0.865,0.582-1.729,0.992-2.537c0.397-0.815,0.892-1.582,1.423-2.325
	c0.506-0.754,1.087-1.465,1.739-2.127c1.339-1.311,2.838-2.483,4.607-3.395c0.9-0.461,1.78-0.98,2.634-1.554
	c0.819-0.586,1.602-1.23,2.362-1.925c0.758-0.695,1.488-1.441,2.185-2.234c0.663-0.802,1.268-1.658,1.85-2.552
	c0.571-0.896,1.135-1.827,1.604-2.805c0.447-0.982,0.854-2,1.216-3.046c0.776-2.085,1.137-4.318,1.386-6.591
	c0.231-2.275,0.056-4.55-0.205-6.733c-0.392-2.186-0.972-4.292-1.78-6.254c-0.889-1.958-1.914-3.781-3.16-5.41
	c-1.305-1.622-2.756-3.061-4.334-4.282c-1.603-1.195-2.967-2.587-3.977-4.125c-1.021-1.536-1.901-3.17-2.359-4.924
	c-0.492-1.744-0.821-3.536-0.719-5.409c0.08-1.871,0.406-3.673,1.183-5.472c0.773-1.811,1.352-3.691,1.736-5.614
	c0.391-1.925,0.493-3.856,0.451-5.818c-0.06-1.955-0.289-3.932-0.755-5.869c-0.494-1.925-1.179-3.83-2.051-5.68
	c-0.437-0.924-0.909-1.823-1.428-2.687c-0.541-0.854-1.118-1.676-1.73-2.465c-1.224-1.578-2.584-3.02-4.057-4.302
	c-0.335-0.281-0.676-0.554-1.023-0.819c-4.431-3.38-9.899-5.814-15.431-6.503C416.741,227.948,404.835,231.479,387.408,245.641z"/>
<g>
	<ellipse style="fill:#C95A3A;" cx="265.2" cy="203.761" rx="61.36" ry="61.28"/>
	<ellipse style="fill:#C95A3A;" cx="130.22" cy="221.131" rx="61.36" ry="61.28"/>
	<ellipse style="fill:#C95A3A;" cx="68.858" cy="308.871" rx="61.36" ry="61.28"/>
	<ellipse style="fill:#C95A3A;" cx="361.33" cy="293.651" rx="61.36" ry="61.28"/>
</g>
<path style="fill:#A7A951;" d="M353.689,191.307c10.969-2.936,21.007,7.09,18.068,18.046l-5.73,21.361l-5.73,21.361
	c-2.939,10.956-16.651,14.626-24.681,6.605l-15.656-15.637l-15.656-15.637c-8.03-8.02-4.356-21.716,6.613-24.651l21.386-5.724
	L353.689,191.307z"/>
<path style="fill:#D1D274;" d="M344.932,228.53l5.73-21.361c1.448-5.398-0.262-10.562-3.674-14.069l-14.686,3.93l-21.386,5.723
	c-10.969,2.936-14.643,16.631-6.613,24.651l15.656,15.637l14.41,14.393c2.241-1.841,3.985-4.389,4.832-7.545L344.932,228.53z"/>
<path style="fill:#A7A951;" d="M190.147,150.073c5.678-7.402,19.874-7.402,25.552,0l11.07,14.432l11.07,14.432
	c5.678,7.402-1.42,16.655-12.776,16.655h-22.141h-22.141c-11.356,0-18.454-9.253-12.776-16.655l11.07-14.432L190.147,150.073z"/>
<path style="fill:#D1D274;" d="M210.307,174.568l-11.07-14.432c-2.797-3.647-7.663-5.488-12.558-5.542l-7.602,9.91l-11.07,14.432
	c-5.678,7.402,1.42,16.655,12.776,16.655h22.141h20.379c0.281-2.174-0.289-4.46-1.925-6.592L210.307,174.568z"/>
<path style="fill:#A7A951;" d="M36.573,236.448c-1.225-9.244,8.812-19.27,18.068-18.046l18.045,2.386l18.045,2.386
	c9.256,1.224,10.787,12.78,2.757,20.8l-15.656,15.637l-15.656,15.637c-8.03,8.021-19.6,6.491-20.825-2.754l-2.389-18.023
	L36.573,236.448z"/>
<path style="fill:#D1D274;" d="M68.17,239.53l-18.045-2.386c-4.56-0.603-9.304,1.531-12.803,4.951l1.641,12.376l2.389,18.023
	c1.225,9.244,12.795,10.774,20.825,2.754l15.656-15.637l14.41-14.393c-1.34-1.736-3.362-2.949-6.028-3.302L68.17,239.53z"/>
<path style="fill:#EBD37A;" d="M34.088,346.379c0-94.788,75.397-173.366,170.28-175.265c97.646-1.954,177.415,76.52,177.415,173.603
	l0,0c0,33.846,27.471,61.284,61.358,61.284l0,0H93.783C60.814,406.001,34.088,379.307,34.088,346.379L34.088,346.379z"/>
<path style="fill:#D9B43A;" d="M382.357,353.001H34.464c3.3,29.81,28.593,53,59.319,53h349.359
	C412.07,406.001,386.409,382.927,382.357,353.001z"/>
<path d="M458.03,215.786c-2.949-2.907-7.698-2.873-10.605,0.076c-2.908,2.95-2.874,7.699,0.076,10.606
	c1.601,1.578,3.156,3.19,4.684,4.82c-0.426-0.357-0.859-0.704-1.294-1.036c-5.669-4.324-12.436-7.159-19.052-7.982
	c-0.161-0.02-0.318-0.033-0.478-0.052c1.69-3.358,2.287-5.671,2.355-5.953c0.037-0.152,0.069-0.306,0.097-0.46
	c0.916-5.144,0.727-10.315-0.522-14.865c-0.617-2.364-1.478-4.698-2.557-6.939c-0.026-0.054-0.053-0.108-0.08-0.162
	c-1.103-2.156-2.479-4.284-4.098-6.339c-0.779-0.984-1.61-1.939-2.469-2.837c-0.037-0.04-0.075-0.079-0.114-0.117
	c-0.845-0.846-1.771-1.677-2.839-2.546c-1.933-1.569-4.01-2.944-6.172-4.089c-0.054-0.028-0.106-0.055-0.16-0.082
	c-4.587-2.289-9.422-3.549-14.406-3.748c-3.907-0.137-6.965-3.129-7.264-7.049c-0.167-2.474-0.598-4.95-1.281-7.361
	c-0.011-0.039-0.022-0.077-0.034-0.116c-0.688-2.287-1.67-4.596-2.873-6.781c-2.265-4.239-5.633-8.093-10.01-11.454
	c-0.056-0.043-0.112-0.085-0.169-0.126c-8.612-6.236-19.131-8.427-28.88-6.016c-3.989,0.873-7.733-1.108-9.129-4.876
	c-1.771-4.695-4.549-8.912-8.257-12.534c-0.051-0.05-0.103-0.099-0.155-0.147c-3.976-3.667-8.365-6.306-13.049-7.845
	c-4.707-1.684-9.811-2.302-15.151-1.834c-0.042,0.003-0.083,0.007-0.125,0.012c-5.001,0.52-9.935,2.175-14.348,4.838
	c-3.412,2.119-7.665,1.383-10.279-1.721c-1.642-1.999-3.463-3.786-5.414-5.312c-0.04-0.032-0.081-0.063-0.122-0.094
	c-1.965-1.473-4.118-2.763-6.402-3.834c-1.122-0.525-2.289-1.005-3.469-1.424c-0.041-0.015-0.082-0.029-0.124-0.043
	c-1.402-0.471-2.738-0.78-3.785-1.005c-2.458-0.516-4.997-0.804-7.547-0.856c-0.104-0.002-0.207-0.002-0.311,0
	c-2.549,0.053-5.088,0.341-7.586,0.865c-1.01,0.217-2.349,0.527-3.749,0.998c-0.04,0.014-0.081,0.028-0.121,0.042
	c-1.183,0.42-2.351,0.9-3.469,1.425c-2.281,1.069-4.435,2.359-6.401,3.832c-0.042,0.032-0.084,0.064-0.126,0.097
	c-1.949,1.526-3.771,3.313-5.354,5.241c-2.671,3.174-6.923,3.911-10.42,1.741c-4.331-2.613-9.264-4.268-14.265-4.788
	c-0.042-0.004-0.083-0.008-0.125-0.012c-5.346-0.467-10.444,0.151-15.151,1.834c-4.685,1.539-9.074,4.179-13.05,7.847
	c-0.052,0.048-0.104,0.097-0.154,0.146c-3.709,3.622-6.487,7.84-8.273,12.578c-1.38,3.726-5.125,5.706-9.115,4.832
	c-9.748-2.409-20.266-0.219-28.877,6.017c-0.058,0.042-0.113,0.083-0.169,0.126c-4.378,3.361-7.745,7.215-10.01,11.455
	c-0.214,0.401-0.382,0.815-0.517,1.233c-27.216,6.092-48.702,28.431-53.088,56.482l-6.574-0.869
	c-6.646-0.881-13.851,1.828-19.262,7.24c-5.403,5.405-8.104,12.592-7.224,19.227l2.019,15.236C11.839,263.974,0,285.645,0,308.869
	c0,22.546,10.893,43.357,29.277,56.26c8.145,27.912,33.97,48.371,64.506,48.371h286.359c4.143,0,7.5-3.358,7.5-7.5
	s-3.357-7.5-7.5-7.5H93.782c-28.779,0-52.193-23.382-52.193-52.123c0-90.708,73.09-165.968,162.93-167.766
	c45.124-0.905,87.741,15.974,119.928,47.523c32.139,31.501,49.838,73.614,49.838,118.581c0,17.638,6.687,33.742,17.653,45.929
	c0.298,0.401,0.64,0.778,1.027,1.124c0.03,0.027,0.063,0.05,0.094,0.076c12.565,13.317,30.363,21.654,50.084,21.654
	c37.969,0,68.858-30.856,68.858-68.784C512,295.88,492.833,250.092,458.03,215.786z M441.799,242.184
	c0.235,0.179,0.466,0.363,0.692,0.552c1.084,0.95,2.096,2.026,3.003,3.195c0.451,0.583,0.88,1.191,1.273,1.809
	c0.352,0.589,0.689,1.23,1.028,1.945c0.655,1.392,1.179,2.836,1.557,4.292c0.31,1.307,0.49,2.749,0.536,4.222
	c0.035,1.651-0.061,2.974-0.308,4.189c-0.285,1.426-0.715,2.817-1.268,4.111c-1.075,2.494-1.661,5.149-1.786,8.037
	c-0.134,2.467,0.175,4.943,0.972,7.787c0.615,2.315,1.712,4.64,3.327,7.069c1.458,2.221,3.375,4.23,5.699,5.973
	c1.062,0.828,2.062,1.817,2.976,2.942c0.773,1.026,1.487,2.258,2.179,3.76c0.525,1.304,0.943,2.78,1.244,4.394
	c0.178,1.53,0.326,3.275,0.171,4.802c-0.17,1.552-0.417,3.335-0.959,4.79c-0.021,0.054-0.04,0.109-0.059,0.164
	c-0.275,0.794-0.585,1.575-0.922,2.32c-0.315,0.646-0.75,1.349-1.099,1.899c-0.459,0.706-0.877,1.289-1.274,1.777
	c-0.493,0.556-1.01,1.082-1.531,1.56c-0.54,0.494-1.058,0.919-1.578,1.298c-0.58,0.384-1.178,0.734-1.796,1.05
	c-2.298,1.185-4.398,2.724-6.42,4.706c-0.03,0.03-0.061,0.06-0.091,0.09c-0.947,0.961-1.809,2.009-2.561,3.116
	c-0.823,1.159-1.454,2.199-1.976,3.26c-0.618,1.228-1.036,2.413-1.395,3.513c-0.433,1.279-0.75,2.619-0.944,3.982
	c-0.006,0.046-0.012,0.091-0.018,0.137c-0.353,2.853-0.302,5.461,0.151,7.955c0.129,0.721,0.212,1.396,0.247,2.008
	c0.017,0.682-0.007,1.384-0.067,2.075c-0.068,0.756-0.168,1.466-0.298,2.113c-0.176,0.71-0.395,1.435-0.671,2.211
	c-0.952,2.758-2.774,5.458-5.274,7.812c-1.199,1.073-2.524,2.029-3.94,2.842c-1.402,0.708-2.878,1.395-4.233,1.718
	c-0.054,0.013-0.108,0.027-0.162,0.041c-2.801,0.735-5.684,0.749-8.335,0.037c-2.53-0.725-5.144-1.013-7.991-0.879
	c-3.161,0.087-5.854,0.932-7.611,1.563c-0.043,0.016-0.087,0.032-0.13,0.048c-1.013,0.385-1.987,0.833-2.927,1.333
	c-4.17-5.857-7.199-12.574-8.753-19.835c0.04-0.018,0.082-0.03,0.122-0.049c24.05-11.297,39.589-35.739,39.589-62.27
	c0-19.209-7.982-36.785-20.946-49.365c4.04-2.227,7.426-4.659,10.276-7.128c3.243-0.462,6.667-0.469,10.466,0.002
	C434.009,237.656,438.202,239.44,441.799,242.184z M151.313,149.754c0.056,0.014,0.111,0.027,0.167,0.04
	c11.392,2.578,22.554-3.413,26.545-14.198c0.979-2.598,2.536-4.959,4.628-7.021c2.383-2.181,4.921-3.718,7.545-4.569
	c0.081-0.026,0.16-0.053,0.24-0.082c2.618-0.948,5.659-1.309,8.801-1.043c2.801,0.3,5.567,1.235,7.925,2.656
	c9.748,6.051,22.25,4.003,29.781-4.943c0.929-1.131,1.94-2.131,3.006-2.973c1.132-0.84,2.38-1.583,3.713-2.208
	c0.662-0.311,1.354-0.596,2.058-0.849c0.679-0.224,1.458-0.401,2.028-0.524c1.501-0.314,3.056-0.495,4.625-0.537
	c1.568,0.042,3.122,0.222,4.584,0.528c0.895,0.193,1.537,0.358,2.068,0.533c0.703,0.252,1.396,0.538,2.059,0.848
	c1.332,0.625,2.58,1.368,3.71,2.208c1.066,0.841,2.077,1.841,3.063,3.042c7.475,8.876,19.976,10.927,29.643,4.923
	c2.438-1.47,5.204-2.405,8.006-2.706c3.143-0.265,6.183,0.096,8.803,1.044c0.079,0.028,0.159,0.056,0.239,0.082
	c2.624,0.851,5.162,2.388,7.545,4.568c2.091,2.062,3.647,4.423,4.611,6.98c4.011,10.828,15.183,16.816,26.56,14.24
	c0.056-0.013,0.111-0.026,0.167-0.04c5.436-1.36,11.426-0.076,16.452,3.53c2.629,2.034,4.591,4.241,5.874,6.642
	c0.729,1.324,1.293,2.634,1.678,3.895c0.389,1.388,0.635,2.809,0.734,4.288c0.882,11.548,10.21,20.561,21.664,20.963
	c2.784,0.111,5.54,0.831,8.189,2.14c1.274,0.681,2.505,1.5,3.65,2.43c0.63,0.513,1.164,0.987,1.629,1.448
	c0.518,0.545,1.019,1.124,1.482,1.709c0.987,1.252,1.819,2.528,2.474,3.792c0.642,1.345,1.152,2.738,1.542,4.228
	c0.66,2.407,0.764,5.17,0.303,8.012c-0.567,1.815-4.984,13.947-23.354,21.245c-6.427-3.718-13.526-6.426-21.099-7.908l4.351-16.217
	c2.081-7.758-0.067-15.784-5.747-21.468c-5.688-5.691-13.727-7.845-21.503-5.767l-19.532,5.227
	c-7.256-30.915-34.828-52.966-67.016-52.966c-14.688,0-28.67,4.558-40.495,13.172l-3.058-3.987
	c-4.076-5.314-11.077-8.487-18.728-8.487c-7.649,0-14.65,3.173-18.727,8.487l-15.369,20.036
	c-9.852-6.687-21.111-10.655-32.92-11.619C140.706,149.518,146.25,148.487,151.313,149.754z M238.502,166.132l-4.66-6.075
	c9.178-6.591,19.997-10.079,31.361-10.079c25.332,0,47.014,17.445,52.526,41.843l-8.755,2.343c-0.027,0.007-0.053,0.017-0.08,0.024
	C287.655,179.905,263.763,170.384,238.502,166.132z M130.216,167.343c7.826,0,15.426,1.67,22.407,4.872
	c-25.524,8.22-49.023,22.157-68.939,41.116l-6.618-0.875C81.247,186.812,103.739,167.343,130.216,167.343z M46.971,227.466
	c2.069-2.07,4.695-3.237,6.687-2.975l17.248,2.281c-9.121,10.6-16.93,22.084-23.331,34.249l-3.566-26.904
	C43.746,232.139,44.909,229.529,46.971,227.466z M15,308.869c0-15.634,6.865-30.371,18.42-40.481l0.496,3.745
	c0.489,3.69,2.054,6.928,4.428,9.404c-7.246,19.217-11.241,39.691-11.706,60.707C19.194,332.884,15,321.212,15,308.869z
	 M204.218,163.615c-5.684,0.114-11.323,0.499-16.907,1.134l8.788-11.456c1.219-1.589,3.897-2.616,6.824-2.616
	c2.928,0,5.606,1.027,6.825,2.617l8.092,10.55C213.328,163.602,208.785,163.525,204.218,163.615z M324.132,205.636l31.497-8.429
	c3.653-0.979,6.124,0.988,7.015,1.88c0.887,0.887,2.845,3.344,1.869,6.978l-8.95,33.361c-6.102-8.491-12.985-16.521-20.617-24.002
	C331.452,211.999,327.842,208.741,324.132,205.636z M366.255,256.207c0.52-1.135,0.957-2.312,1.285-3.534l3.216-11.987
	c25.513,4.488,44.434,26.794,44.434,52.961c0,18.847-10.036,36.346-25.979,46.016C388.404,309.943,380.479,281.492,366.255,256.207z
	 M443.142,398.501c-12.044,0-23.177-3.97-32.157-10.666c1.041-0.02,1.946,0.08,2.797,0.328c0.041,0.012,0.083,0.024,0.125,0.035
	c5.173,1.406,10.723,1.416,16.052,0.03c2.894-0.703,5.468-1.905,7.607-2.99c0.1-0.051,0.199-0.104,0.297-0.159
	c2.441-1.38,4.726-3.022,6.791-4.882c0.035-0.032,0.07-0.064,0.105-0.097c4.304-4.028,7.505-8.841,9.233-13.853
	c0.442-1.243,0.82-2.509,1.124-3.763c0.019-0.079,0.036-0.157,0.053-0.236c0.258-1.241,0.452-2.568,0.577-3.959
	c0.114-1.31,0.154-2.625,0.118-3.911c-0.002-0.056-0.004-0.112-0.007-0.168c-0.064-1.262-0.221-2.599-0.471-3.992
	c-0.181-0.994-0.191-2.07-0.035-3.381c0.065-0.434,0.166-0.852,0.3-1.244c0.012-0.034,0.022-0.068,0.034-0.103
	c0.18-0.553,0.37-1.113,0.548-1.463c0.018-0.035,0.035-0.07,0.053-0.105c0.161-0.331,0.416-0.739,0.78-1.247
	c0.044-0.062,0.087-0.124,0.129-0.187c0.236-0.351,0.509-0.687,0.813-1c0.917-0.891,1.813-1.557,2.724-2.026
	c1.156-0.592,2.299-1.266,3.396-2.003c0.063-0.042,0.125-0.085,0.187-0.129c1.026-0.735,2.054-1.571,3.062-2.492
	c0.953-0.873,1.88-1.821,2.755-2.817c0.049-0.056,0.098-0.113,0.146-0.17c0.786-0.951,1.557-2.012,2.396-3.303
	c0.638-1.002,1.379-2.213,2.04-3.591c0.021-0.044,0.042-0.089,0.063-0.134c0.532-1.168,1.02-2.387,1.45-3.623
	c1.098-2.984,1.528-6.003,1.787-8.363c0.318-3.132,0.05-6.125-0.22-8.382c-0.018-0.145-0.039-0.29-0.064-0.433
	c-0.501-2.793-1.25-5.413-2.227-7.786c-0.034-0.083-0.07-0.167-0.107-0.249c-1.199-2.638-2.517-4.882-4.029-6.861
	c-0.037-0.049-0.075-0.098-0.114-0.146c-1.678-2.087-3.559-3.942-5.588-5.513c-0.036-0.027-0.071-0.055-0.107-0.082
	c-0.933-0.695-1.689-1.465-2.215-2.265c-0.722-1.086-1.163-1.958-1.348-2.666c-0.013-0.047-0.025-0.094-0.039-0.141
	c-0.348-1.235-0.49-2.177-0.443-3.047c0.05-1.145,0.228-2.016,0.588-2.851c0.969-2.268,1.706-4.654,2.188-7.065
	c0.463-2.275,0.659-4.719,0.598-7.542c-0.078-2.587-0.401-5.074-0.959-7.394c-0.009-0.037-0.018-0.074-0.027-0.111
	c-0.613-2.39-1.465-4.748-2.536-7.024c-0.573-1.211-1.156-2.305-1.781-3.344c-0.029-0.048-0.059-0.097-0.089-0.145
	c-0.222-0.352-0.461-0.697-0.696-1.044C483.542,268.477,497,305.527,497,344.717C497,374.374,472.839,398.501,443.142,398.501z"/>
<circle cx="139.09" cy="255.001" r="7.5"/>
<circle cx="103.09" cy="285.001" r="7.5"/>
<circle cx="163.09" cy="309.001" r="7.5"/>
<circle cx="104.09" cy="249.001" r="7.5"/>
<circle cx="194.09" cy="219.001" r="7.5"/>
<circle cx="224.09" cy="289.001" r="7.5"/>
<circle cx="254.09" cy="239.001" r="7.5"/>
<circle cx="324.09" cy="299.001" r="7.5"/>
<g>
</g>
<g>
</g>
<g>
</g>
<g>
</g>
<g>
</g>
<g>
</g>
<g>
</g>
<g>
</g>
<g>
</g>
<g>
</g>
<g>
</g>
<g>
</g>
<g>
</g>
<g>
</g>
<g>
</g>
</svg>
